SplineFontDB: 3.0
FontName: Nunito-Medium
FullName: Nunito Medium
FamilyName: Nunito
Weight: Medium
Copyright: Digitized data Copyright (c) 2011-2013, vernon adams.
Version: 2.0
ItalicAngle: 0
UnderlinePosition: 0
UnderlineWidth: 0
Ascent: 1638
Descent: 410
UFOAscent: 2030
UFODescent: -675
LayerCount: 2
Layer: 0 0 "Back"  1
Layer: 1 0 "Fore"  0
FSType: 0
OS2Version: 0
OS2_WeightWidthSlopeOnly: 0
OS2_UseTypoMetrics: 1
CreationTime: 1393441343
ModificationTime: 1393441822
PfmFamily: 17
TTFWeight: 500
TTFWidth: 5
LineGap: 0
VLineGap: 0
OS2TypoAscent: 1999
OS2TypoAOffset: 0
OS2TypoDescent: 572
OS2TypoDOffset: 0
OS2TypoLinegap: 0
OS2WinAscent: 1999
OS2WinAOffset: 0
OS2WinDescent: -572
OS2WinDOffset: 0
HheadAscent: 1999
HheadAOffset: 0
HheadDescent: -572
HheadDOffset: 0
OS2Vendor: 'NeWT'
Lookup: 258 0 0 "kernHorizontalKerninglookup0"  {"kernHorizontalKerninglookup0 subtable"  } ['kern' ('DFLT' <'dflt' > ) ]
Lookup: 258 0 0 "kernHorizontalKerninginLatinloo"  {"kernHorizontalKerninginLatinloo subtable"  } ['kern' ('latn' <'dflt' > ) ]
MarkAttachClasses: 1
DEI: 91125
LangName: 1033 "" "" "" "" "" "Version 2.0" "" "Nunito is a trademark of Vernon Adams and may be registered in certain jurisdictions." "newtypography" "Vernon Adams" "" "newtypography.co.uk" "newtypography.co.uk" "Copyright (c) 2013, vernon adams.+AAoACgAA-This Font Software is licensed under the SIL Open Font License, Version 1.1.+AAoA-This license is copied below, and is also available with a FAQ at:+AAoA-http://scripts.sil.org/OFL+AAoA" "http://scripts.sil.org/OFL" "" "" "" "Nunito-Medium" 
PickledData: "(dp1
S'com.typemytype.robofont.foreground.layerStrokeColor'
p2
(F0.5
I0
F0.5
F0.69999999999999996
tp3
sS'com.typemytype.robofont.guides'
p4
((dp5
S'angle'
p6
I0
sS'name'
p7
NsS'magnetic'
p8
I5
sS'isGlobal'
p9
I1
sS'y'
I1013
sS'x'
I587
s(dp10
g6
I0
sg7
Nsg8
I5
sg9
I1
sS'y'
I903
sS'x'
I595
s(dp11
g6
I0
sg7
Nsg8
I5
sg9
I1
sS'y'
I120
sS'x'
I780
s(dp12
g6
I0
sg7
Nsg8
I5
sg9
I1
sS'y'
S'-22'
p13
sS'x'
I907
s(dp14

StartChar: A
Encoding: 65 65 0
Width: 1441
VWidth: 0
GlyphClass: 2
Flags: W
PickledData: "(dp1
S'b'
(dp2
sS'anchors'
p3
(tsS'lib'
p4
(dp5
sS'unicodes'
p6
(tsS'y'
I1232
sS'width'
p7
I1445
sS'points'
p8
(dp9
sS'contours'
p10
(dp11
sS'components'
p12
(tsS'segmentType'
p13
S'line'
p14
sS'x'
I718
sS'com.typemytype.robofont.layerData'
p15
(dp16
S'b'
(dp17
S'name'
p18
S'A'
sg4
(dp19
sg6
(tsg7
I1414
sg10
((dp20
g8
((dp21
g13
S'line'
p22
sS'x'
I403
sS'smooth'
p23
I0
sS'y'
I502
s(dp24
g13
S'line'
p25
sS'x'
I703
sg23
I0
sS'y'
I1275
s(dp26
g13
S'line'
p27
sS'x'
I705
sg23
I0
sS'y'
I1275
s(dp28
g13
S'line'
p29
sS'x'
I1004
sg23
I0
sS'y'
I502
stp30
s(dp31
g8
((dp32
g13
S'curve'
p33
sS'x'
I150
sg23
I1
sS'y'
I0
s(dp34
S'y'
I0
sS'x'
I181
sg23
I0
s(dp35
S'y'
I15
sS'x'
I214
sg23
I0
s(dp36
g13
S'curve'
p37
sS'x'
I229
sg23
I1
sS'y'
I53
s(dp38
g13
S'line'
p39
sS'x'
I356
sg23
I0
sS'y'
I373
s(dp40
g13
S'line'
p41
sS'x'
I1051
sg23
I0
sS'y'
I373
s(dp42
g13
S'line'
p43
sS'x'
I1179
sg23
I1
sS'y'
I53
s(dp44
S'y'
I17
sS'x'
I1193
sg23
I0
s(dp45
S'y'
I0
sS'x'
I1228
sg23
I0
s(dp46
g13
S'curve'
p47
sS'x'
I1260
sg23
I1
sS'y'
I0
s(dp48
S'y'
I0
sS'x'
I1306
sg23
I0
s(dp49
S'y'
I31
sS'x'
I1354
sg23
I0
s(dp50
g13
S'curve'
p51
sS'x'
I1354
sg23
I1
sS'y'
I80
s(dp52
S'y'
I87
sS'x'
I1354
sg23
I0
s(dp53
S'y'
I97
sS'x'
I1352
sg23
I0
s(dp54
g13
S'curve'
p55
sS'x'
I1349
sg23
I0
sS'y'
I108
s(dp56
g13
S'line'
p57
sS'x'
I871
sg23
I1
sS'y'
I1288
s(dp58
S'y'
I1420
sS'x'
I817
sg23
I0
s(dp59
S'y'
I1430
sS'x'
I777
sg23
I0
s(dp60
g13
S'curve'
p61
sS'x'
I710
sg23
I1
sS'y'
I1430
s(dp62
S'y'
I1430
sS'x'
I644
sg23
I0
s(dp63
S'y'
I1413
sS'x'
I596
sg23
I0
s(dp64
g13
S'curve'
p65
sS'x'
I542
sg23
I1
sS'y'
I1280
s(dp66
g13
S'line'
p67
sS'x'
I66
sg23
I1
sS'y'
I108
s(dp68
S'y'
I97
sS'x'
I62
sg23
I0
s(dp69
S'y'
I87
sS'x'
I60
sg23
I0
s(dp70
g13
S'curve'
p71
sS'x'
I60
sg23
I1
sS'y'
I78
s(dp72
S'y'
I32
sS'x'
I60
sg23
I0
s(dp73
S'y'
I0
sS'x'
I106
sg23
I0
stp74
stp75
sg12
(tsg3
(tsssg18
S'A'
s."
AnchorPoint: "ogonek" 1266 19 basechar 0
AnchorPoint: "top" 720 1438 basechar 0
LayerCount: 2
Fore
SplineSet
995.988 513 m 257
 447.398 513 l 257
 722 1225 l 257
 995.988 513 l 257
1168 66 m 258
 1188.01 14.2707 1229.84 -7.2335 1271.4 -7.2335 c 256
 1327.97 -7.2335 1384.05 32.5811 1384.05 90.2396 c 256
 1384.05 102.431 1381.54 115.421 1376 129 c 258
 907 1298 l 258
 856 1425 796 1444 722 1444 c 256
 648 1444 587 1425 536 1298 c 258
 67 129 l 258
 61.6606 115.651 59.2405 102.873 59.2405 90.8623 c 256
 59.2405 32.8679 115.663 -7.2335 172.3 -7.2335 c 256
 213.775 -7.2335 255.366 14.2707 275 66 c 258
 384.918 351 l 257
 1058.33 351 l 257
 1168 66 l 258
EndSplineSet
EndChar

StartChar: AE
Encoding: 198 198 1
Width: 1970
VWidth: 0
GlyphClass: 2
Flags: W
PickledData: "(dp1
S'com.typemytype.robofont.layerData'
p2
(dp3
S'b'
(dp4
S'name'
p5
S'AE'
p6
sS'lib'
p7
(dp8
sS'unicodes'
p9
(tsS'width'
p10
I1976
sS'contours'
p11
(tsS'components'
p12
(tsS'anchors'
p13
(tsss."
AnchorPoint: "top" 1296 1445 basechar 0
LayerCount: 2
Fore
SplineSet
1258 0 m 258
 1848 0 l 257
 1904 2 1929 39 1929 79 c 256
 1929 125 1894 175 1832 175 c 258
 1350 175 l 257
 1274 648 l 257
 1798 648 l 258
 1853 648 1879 686 1879 727 c 256
 1879 773 1845 822 1783 822 c 258
 1250 822 l 257
 1181 1258 l 257
 1831 1258 l 258
 1887 1258 1912 1296 1912 1337 c 256
 1912 1383 1877 1433 1815 1433 c 258
 993 1432 l 258
 906 1432 839 1408 756 1252 c 257
 70 135 l 258
 59 116 54 97 54 81 c 256
 54 31 99 0 148 0 c 256
 189 0 232 21 257 71 c 257
 440 362 l 257
 1097 362 l 257
 1146 71 l 257
 1154 16 1206 0 1258 0 c 258
522 515 m 257
 961 1282 l 257
 964 1282 l 257
 1078 515 l 257
 522 515 l 257
EndSplineSet
EndChar

StartChar: B
Encoding: 66 66 13
Width: 1343
VWidth: 0
GlyphClass: 2
Flags: W
PickledData: "(dp1
S'b'
(dp2
sS'anchors'
p3
(tsS'lib'
p4
(dp5
sS'unicodes'
p6
(tsS'y'
I1260
sS'width'
p7
I1395
sS'points'
p8
(dp9
sS'contours'
p10
(dp11
sS'components'
p12
(tsS'segmentType'
p13
S'curve'
p14
sS'x'
I676
sS'com.typemytype.robofont.layerData'
p15
(dp16
S'b'
(dp17
S'name'
p18
S'B'
sg4
(dp19
sg6
(tsg7
I1292
sg10
((dp20
g8
((dp21
g13
S'curve'
p22
sS'x'
I266
sS'smooth'
p23
I1
sS'y'
I0
s(dp24
g13
S'line'
p25
sS'x'
I1035
sg23
I1
sS'y'
I0
s(dp26
S'y'
I0
sS'x'
I1084
sg23
I0
s(dp27
S'y'
I36
sS'x'
I1108
sg23
I0
s(dp28
g13
S'curve'
p29
sS'x'
I1108
sg23
I1
sS'y'
I73
s(dp30
S'y'
I109
sS'x'
I1108
sg23
I0
s(dp31
S'y'
I145
sS'x'
I1084
sg23
I0
s(dp32
g13
S'curve'
p33
sS'x'
I1035
sg23
I1
sS'y'
I145
s(dp34
g13
S'line'
p35
sS'x'
I353
sg23
I0
sS'y'
I145
s(dp36
g13
S'line'
p37
sS'x'
I353
sg23
I0
sS'y'
I662
s(dp38
g13
S'line'
p39
sS'x'
I975
sg23
I1
sS'y'
I662
s(dp40
S'y'
I662
sS'x'
I1024
sg23
I0
s(dp41
S'y'
I698
sS'x'
I1049
sg23
I0
s(dp42
g13
S'curve'
p43
sS'x'
I1049
sg23
I1
sS'y'
I734
s(dp44
S'y'
I770
sS'x'
I1049
sg23
I0
s(dp45
S'y'
I806
sS'x'
I1026
sg23
I0
s(dp46
g13
S'curve'
p47
sS'x'
I975
sg23
I1
sS'y'
I806
s(dp48
g13
S'line'
p49
sS'x'
I353
sg23
I0
sS'y'
I806
s(dp50
g13
S'line'
p51
sS'x'
I353
sg23
I0
sS'y'
I1281
s(dp52
g13
S'line'
p53
sS'x'
I1007
sg23
I1
sS'y'
I1281
s(dp54
S'y'
I1281
sS'x'
I1056
sg23
I0
s(dp55
S'y'
I1317
sS'x'
I1080
sg23
I0
s(dp56
g13
S'curve'
p57
sS'x'
I1080
sg23
I1
sS'y'
I1354
s(dp58
S'y'
I1390
sS'x'
I1080
sg23
I0
s(dp59
S'y'
I1426
sS'x'
I1056
sg23
I0
s(dp60
g13
S'curve'
p61
sS'x'
I1007
sg23
I1
sS'y'
I1426
s(dp62
g13
S'line'
p63
sS'x'
I261
sg23
I1
sS'y'
I1426
s(dp64
S'y'
I1426
sS'x'
I213
sg23
I0
s(dp65
S'y'
I1383
sS'x'
I178
sg23
I0
s(dp66
g13
S'curve'
p67
sS'x'
I178
sg23
I1
sS'y'
I1340
s(dp68
g13
S'line'
p69
sS'x'
I178
sg23
I1
sS'y'
I86
s(dp70
S'y'
I41
sS'x'
I178
sg23
I0
s(dp71
S'y'
I0
sS'x'
I222
sg23
I0
stp72
stp73
sg12
(tsg3
(tsssg18
S'B'
s."
AnchorPoint: "top" 659 1438 basechar 0
LayerCount: 2
Fore
SplineSet
286 0 m 258
 750 0 l 258
 1090 0 1253 190 1253 384 c 256
 1253 601 1119 719 912 744 c 257
 912 748 l 257
 1101 777 1192 908 1192 1078 c 256
 1192 1291 1045 1433 701 1433 c 258
 286 1433 l 258
 225 1433 175 1385 175 1324 c 258
 175 109 l 258
 175 48 225 0 286 0 c 258
401 176 m 257
 401 649 l 257
 636 649 l 258
 883 649 1017 611 1017 411 c 256
 1017 216 911 176 708 176 c 258
 401 176 l 257
401 823 m 257
 401 1259 l 257
 687 1259 l 258
 849 1259 972 1234 972 1060 c 256
 972 888 881 823 664 823 c 258
 401 823 l 257
EndSplineSet
EndChar

StartChar: C
Encoding: 67 67 14
Width: 1354
VWidth: 0
GlyphClass: 2
Flags: W
PickledData: "(dp1
S'b'
(dp2
sS'anchors'
p3
(tsS'lib'
p4
(dp5
sS'unicodes'
p6
(tsS'width'
p7
I1354
sS'contours'
p8
(tsS'components'
p9
(tsS'com.typemytype.robofont.layerData'
p10
(dp11
S'b'
(dp12
S'name'
p13
S'C'
sg4
(dp14
sg6
(tsg7
F1353.8900000000001
sg8
(tsg9
(tsg3
(tsssg13
S'C'
s."
AnchorPoint: "bot" 774 4 basechar 0
AnchorPoint: "top" 784 1438 basechar 0
LayerCount: 2
Fore
SplineSet
785 -22 m 256
 977 -22 1097 28 1190 87 c 256
 1226.11 110.187 1240.71 141.274 1240.71 170.63 c 256
 1240.71 216.874 1204.47 258.821 1159.01 258.821 c 256
 1146.2 258.821 1132.67 255.494 1119 248 c 256
 1037 203 951 159 823 159 c 256
 503 159 358 395 358 718 c 256
 358 1040 504 1281 814 1281 c 256
 974 1281 1054 1228 1101 1207 c 256
 1112.07 1202.24 1123.06 1200.08 1133.64 1200.08 c 256
 1182.03 1200.08 1221.82 1245.18 1221.82 1291.89 c 256
 1221.82 1320.72 1206.66 1350.16 1169 1370 c 256
 1078 1419 961 1462 806 1462 c 256
 388 1462 118 1148 118 715 c 256
 118 292 374 -22 785 -22 c 256
EndSplineSet
EndChar

StartChar: D
Encoding: 68 68 20
Width: 1519
VWidth: 0
GlyphClass: 2
Flags: W
PickledData: "(dp1
S'b'
(dp2
sS'anchors'
p3
(tsS'lib'
p4
(dp5
sS'unicodes'
p6
(tsS'width'
p7
I1535
sS'contours'
p8
(tsS'components'
p9
(tsS'com.typemytype.robofont.layerData'
p10
(dp11
S'b'
(dp12
S'name'
p13
S'D'
sg4
(dp14
sg6
(tsg7
I1499
sg8
((dp15
S'points'
p16
((dp17
S'segmentType'
p18
S'curve'
p19
sS'x'
I266
sS'smooth'
p20
I1
sS'y'
I0
s(dp21
g18
S'line'
p22
sS'x'
I1035
sg20
I1
sS'y'
I0
s(dp23
S'y'
I0
sS'x'
I1084
sg20
I0
s(dp24
S'y'
I34
sS'x'
I1108
sg20
I0
s(dp25
g18
S'curve'
p26
sS'x'
I1108
sg20
I1
sS'y'
I71
s(dp27
S'y'
I107
sS'x'
I1108
sg20
I0
s(dp28
S'y'
I141
sS'x'
I1084
sg20
I0
s(dp29
g18
S'curve'
p30
sS'x'
I1035
sg20
I1
sS'y'
I141
s(dp31
g18
S'line'
p32
sS'x'
I356
sg20
I0
sS'y'
I141
s(dp33
g18
S'line'
p34
sS'x'
I356
sg20
I0
sS'y'
I665
s(dp35
g18
S'line'
p36
sS'x'
I975
sg20
I1
sS'y'
I665
s(dp37
S'y'
I665
sS'x'
I1024
sg20
I0
s(dp38
S'y'
I698
sS'x'
I1049
sg20
I0
s(dp39
g18
S'curve'
p40
sS'x'
I1049
sg20
I1
sS'y'
I734
s(dp41
S'y'
I770
sS'x'
I1049
sg20
I0
s(dp42
S'y'
I803
sS'x'
I1026
sg20
I0
s(dp43
g18
S'curve'
p44
sS'x'
I975
sg20
I1
sS'y'
I803
s(dp45
g18
S'line'
p46
sS'x'
I356
sg20
I0
sS'y'
I803
s(dp47
g18
S'line'
p48
sS'x'
I356
sg20
I0
sS'y'
I1285
s(dp49
g18
S'line'
p50
sS'x'
I1007
sg20
I1
sS'y'
I1285
s(dp51
S'y'
I1285
sS'x'
I1056
sg20
I0
s(dp52
S'y'
I1319
sS'x'
I1080
sg20
I0
s(dp53
g18
S'curve'
p54
sS'x'
I1080
sg20
I1
sS'y'
I1356
s(dp55
S'y'
I1392
sS'x'
I1080
sg20
I0
s(dp56
S'y'
I1426
sS'x'
I1056
sg20
I0
s(dp57
g18
S'curve'
p58
sS'x'
I1007
sg20
I1
sS'y'
I1426
s(dp59
g18
S'line'
p60
sS'x'
I261
sg20
I1
sS'y'
I1426
s(dp61
S'y'
I1426
sS'x'
I213
sg20
I0
s(dp62
S'y'
I1383
sS'x'
I178
sg20
I0
s(dp63
g18
S'curve'
p64
sS'x'
I178
sg20
I1
sS'y'
I1340
s(dp65
g18
S'line'
p66
sS'x'
I178
sg20
I1
sS'y'
I86
s(dp67
S'y'
I41
sS'x'
I178
sg20
I0
s(dp68
S'y'
I0
sS'x'
I222
sg20
I0
stp69
stp70
sg9
(tsg3
(tsssg13
S'D'
s."
AnchorPoint: "mid" 302 739 basechar 0
AnchorPoint: "top" 759 1438 basechar 0
LayerCount: 2
Fore
SplineSet
289 2 m 258
 645 2 l 258
 1124 2 1403 250 1403 713 c 256
 1403 1179 1139 1434 632 1434 c 258
 289 1434 l 258
 226 1434 175 1384 175 1323 c 258
 175 112 l 258
 175 51 226 2 289 2 c 258
402 182 m 257
 402 1254 l 257
 626 1254 l 258
 993 1254 1168 1111 1168 717 c 256
 1168 361 1042 182 658 182 c 258
 402 182 l 257
EndSplineSet
EndChar

StartChar: Dcroat
Encoding: 272 272 22
Width: 1511
VWidth: 0
GlyphClass: 2
Flags: W
LayerCount: 2
Fore
SplineSet
78 653 m 258
 548 653 l 258
 604 653 638 682 638 726 c 256
 638 773 604 802 548 802 c 258
 84 802 l 258
 28 802 -7 773 -7 726 c 256
 -7 682 26 653 78 653 c 258
EndSplineSet
Refer: 20 68 N 1 0 0 1 0 0 2
EndChar

StartChar: uni0394
Encoding: 916 916 23
Width: 1255
VWidth: 0
GlyphClass: 2
Flags: W
LayerCount: 2
Fore
SplineSet
12 0 m 257
 1243 0 l 257
 732 1380 l 257
 712.166 1425.62 668.727 1447.88 625.947 1447.88 c 256
 582.452 1447.88 539.637 1424.87 523 1380 c 258
 12 0 l 257
234 117 m 257
 624 1227 l 257
 1022 117 l 257
 234 117 l 257
EndSplineSet
EndChar

StartChar: E
Encoding: 69 69 24
Width: 1247
VWidth: 0
GlyphClass: 2
Flags: W
PickledData: "(dp1
S'b'
(dp2
sS'anchors'
p3
(tsS'lib'
p4
(dp5
sS'unicodes'
p6
(tsS'width'
p7
I1258
sS'contours'
p8
(tsS'components'
p9
(tsS'com.typemytype.robofont.layerData'
p10
(dp11
S'b'
(dp12
S'name'
p13
S'E'
sg4
(dp14
sg6
(tsg7
I1234
sg8
(tsg9
(tsg3
(tsssg13
S'E'
s."
AnchorPoint: "bot" 669 1 basechar 0
AnchorPoint: "ogonek" 826 9 basechar 0
AnchorPoint: "top" 657 1438 basechar 0
LayerCount: 2
Fore
SplineSet
287 0 m 258
 1043 0 l 258
 1102 0 1131 46 1131 89 c 256
 1131 133 1102 180 1043 180 c 258
 402 180 l 257
 402 647 l 257
 983 647 l 258
 1042 647 1072 692 1072 735 c 256
 1072 779 1044 823 983 823 c 258
 402 823 l 257
 402 1252 l 257
 1019 1252 l 258
 1078 1252 1106 1299 1106 1343 c 256
 1106 1386 1078 1433 1019 1433 c 258
 283 1433 l 258
 221 1433 175 1380 175 1323 c 258
 175 110 l 258
 175 52 230 0 287 0 c 258
EndSplineSet
EndChar

StartChar: Eng
Encoding: 330 330 33
Width: 1530
VWidth: 0
GlyphClass: 2
Flags: HW
PickledData: "(dp1
S'com.typemytype.robofont.layerData'
p2
(dp3
S'b'
(dp4
S'name'
p5
S'Eng'
p6
sS'lib'
p7
(dp8
sS'unicodes'
p9
(tsS'width'
p10
I1495
sS'contours'
p11
(tsS'components'
p12
(tsS'anchors'
p13
(tsss."
LayerCount: 2
Fore
SplineSet
636 -420 m 0
 751.754882812 -446.966796875 855.471679688 -462.608398438 945.784179688 -462.608398438 c 0
 1210.45996094 -462.608398438 1360 -328.26953125 1360 49 c 2
 1360 1334 l 2
 1360 1400 1307 1433 1256 1433 c 0
 1204 1433 1152 1399 1152 1334 c 2
 1152 333 l 1
 444 1354 l 2
 406 1408 345 1432 299 1432 c 0
 230 1432 173 1381 173 1291 c 2
 173 98 l 2
 173 32 225 0 277 0 c 0
 329 0 382 33 382 98 c 2
 382 1089 l 1
 1155 -7 l 1
 1155 -215.81640625 1094.37011719 -303.376953125 929.137695312 -303.376953125 c 0
 860.942382812 -303.376953125 774.92578125 -288.461914062 668 -261 c 0
 657.798828125 -258.407226562 648.090820312 -257.2109375 638.95703125 -257.2109375 c 0
 586.912109375 -257.2109375 553.481445312 -296.036132812 553.481445312 -336.401367188 c 0
 553.481445312 -370.90234375 577.903320312 -406.528320312 636 -420 c 0
EndSplineSet
EndChar

StartChar: Euro
Encoding: 8364 8364 36
Width: 1411
VWidth: 0
GlyphClass: 2
Flags: HW
LayerCount: 2
Fore
SplineSet
845 -22 m 0
 1037 -22 1157 28 1250 87 c 0
 1286.11035156 110.186523438 1300.70996094 141.274414062 1300.70996094 170.629882812 c 0
 1300.70996094 216.874023438 1264.46972656 258.821289062 1219.00976562 258.821289062 c 0
 1206.20019531 258.821289062 1192.66992188 255.494140625 1179 248 c 0
 1097 203 1011 159 883 159 c 0
 640.008723899 159 497.92402051 295.079720915 443.610487938 502 c 1
 961 502 l 2
 997.24 502 1014.77 530.781 1014.77 560.152 c 0
 1014.77 590.755 995.739 622 959 622 c 2
 422.56107738 622 l 1
 419.509734859 652.988624689 418 685.041391887 418 718 c 0
 418 733.527672854 418.339511006 748.866986863 419.020551496 764 c 1
 961 764 l 2
 997.24 764 1014.77 792.781 1014.77 822.152 c 0
 1014.77 852.755 995.739 884 959 884 c 2
 432.467896134 884 l 1
 476.250754179 1119.37575142 620.132894169 1281 874 1281 c 0
 1034 1281 1114 1228 1161 1207 c 0
 1172.0703125 1202.24023438 1183.05957031 1200.08007812 1193.63964844 1200.08007812 c 0
 1242.03027344 1200.08007812 1281.8203125 1245.1796875 1281.8203125 1291.88964844 c 0
 1281.8203125 1320.71972656 1266.66015625 1350.16015625 1229 1370 c 0
 1138 1419 1021 1462 866 1462 c 0
 504.64785216 1462 253.899602255 1227.34037871 192.572795894 884 c 1
 64 884 l 2
 30.6335 884 13.3688 853.33 13.3688 823 c 0
 13.3688 793.337 29.8832 764 64 764 c 2
 179.170844086 764 l 1
 178.392535661 747.846879492 178 731.509942975 178 715 c 0
 178 683.361626122 179.432146805 652.333033502 182.254179126 622 c 1
 64 622 l 2
 30.6335 622 13.3688 591.33 13.3688 561 c 0
 13.3688 531.337 29.8832 502 64 502 c 2
 201.447039585 502 l 1
 273.364212407 190.786889833 506.663049 -22 845 -22 c 0
EndSplineSet
EndChar

StartChar: F
Encoding: 70 70 37
Width: 1160
VWidth: 0
GlyphClass: 2
Flags: W
PickledData: "(dp1
S'b'
(dp2
sS'anchors'
p3
(tsS'lib'
p4
(dp5
sS'unicodes'
p6
(tsS'width'
p7
I1175
sS'contours'
p8
(tsS'components'
p9
(tsS'com.typemytype.robofont.layerData'
p10
(dp11
S'b'
(dp12
S'name'
p13
S'F'
sg4
(dp14
sg6
(tsg7
I1142
sg8
((dp15
S'points'
p16
((dp17
S'segmentType'
p18
S'curve'
p19
sS'x'
I266
sS'smooth'
p20
I1
sS'y'
I0
s(dp21
g18
S'line'
p22
sS'x'
I1035
sg20
I1
sS'y'
I0
s(dp23
S'y'
I0
sS'x'
I1084
sg20
I0
s(dp24
S'y'
I34
sS'x'
I1108
sg20
I0
s(dp25
g18
S'curve'
p26
sS'x'
I1108
sg20
I1
sS'y'
I71
s(dp27
S'y'
I107
sS'x'
I1108
sg20
I0
s(dp28
S'y'
I141
sS'x'
I1084
sg20
I0
s(dp29
g18
S'curve'
p30
sS'x'
I1035
sg20
I1
sS'y'
I141
s(dp31
g18
S'line'
p32
sS'x'
I353
sg20
I0
sS'y'
I141
s(dp33
g18
S'line'
p34
sS'x'
I353
sg20
I0
sS'y'
I665
s(dp35
g18
S'line'
p36
sS'x'
I975
sg20
I1
sS'y'
I665
s(dp37
S'y'
I665
sS'x'
I1024
sg20
I0
s(dp38
S'y'
I698
sS'x'
I1049
sg20
I0
s(dp39
g18
S'curve'
p40
sS'x'
I1049
sg20
I1
sS'y'
I734
s(dp41
S'y'
I770
sS'x'
I1049
sg20
I0
s(dp42
S'y'
I803
sS'x'
I1026
sg20
I0
s(dp43
g18
S'curve'
p44
sS'x'
I975
sg20
I1
sS'y'
I803
s(dp45
g18
S'line'
p46
sS'x'
I353
sg20
I0
sS'y'
I803
s(dp47
g18
S'line'
p48
sS'x'
I353
sg20
I0
sS'y'
I1285
s(dp49
g18
S'line'
p50
sS'x'
I1007
sg20
I1
sS'y'
I1285
s(dp51
S'y'
I1285
sS'x'
I1056
sg20
I0
s(dp52
S'y'
I1319
sS'x'
I1080
sg20
I0
s(dp53
g18
S'curve'
p54
sS'x'
I1080
sg20
I1
sS'y'
I1356
s(dp55
S'y'
I1392
sS'x'
I1080
sg20
I0
s(dp56
S'y'
I1426
sS'x'
I1056
sg20
I0
s(dp57
g18
S'curve'
p58
sS'x'
I1007
sg20
I1
sS'y'
I1426
s(dp59
g18
S'line'
p60
sS'x'
I261
sg20
I1
sS'y'
I1426
s(dp61
S'y'
I1426
sS'x'
I213
sg20
I0
s(dp62
S'y'
I1383
sS'x'
I178
sg20
I0
s(dp63
g18
S'curve'
p64
sS'x'
I178
sg20
I1
sS'y'
I1340
s(dp65
g18
S'line'
p66
sS'x'
I178
sg20
I1
sS'y'
I86
s(dp67
S'y'
I41
sS'x'
I178
sg20
I0
s(dp68
S'y'
I0
sS'x'
I222
sg20
I0
stp69
stp70
sg9
(tsg3
(tsssg13
S'F'
s."
LayerCount: 2
Fore
SplineSet
287 0 m 256
 344 0 401 36 401 109 c 258
 401 652 l 257
 953 652 l 258
 1012 652 1041 696 1041 740 c 256
 1041 784 1012 828 953 828 c 258
 401 828 l 257
 401 1252 l 257
 980 1252 l 258
 1040 1252 1068 1299 1068 1343 c 256
 1068 1386 1040 1433 980 1433 c 258
 284 1433 l 258
 225 1433 174 1386 174 1321 c 258
 174 109 l 258
 174 36 229 0 287 0 c 256
EndSplineSet
EndChar

StartChar: G
Encoding: 71 71 38
Width: 1473
VWidth: 0
GlyphClass: 2
Flags: W
PickledData: "(dp1
S'b'
(dp2
sS'anchors'
p3
(tsS'lib'
p4
(dp5
sS'unicodes'
p6
(tsS'width'
p7
I1538
sS'contours'
p8
(tsS'components'
p9
(tsS'com.typemytype.robofont.layerData'
p10
(dp11
S'b'
(dp12
S'name'
p13
S'G'
sg4
(dp14
sg6
(tsg7
I1448
sg8
((dp15
S'points'
p16
((dp17
S'segmentType'
p18
S'curve'
p19
sS'x'
I783
sS'smooth'
p20
I1
sS'y'
S'-22'
p21
s(dp22
S'y'
S'-22'
p23
sS'x'
I965
sg20
I0
s(dp24
S'y'
I34
sS'x'
I1086
sg20
I0
s(dp25
g18
S'curve'
p26
sS'x'
I1166
sg20
I1
sS'y'
I86
s(dp27
S'y'
I154
sS'x'
I1270
sg20
I0
s(dp28
S'y'
I258
sS'x'
I1186
sg20
I0
s(dp29
g18
S'curve'
p30
sS'x'
I1112
sg20
I1
sS'y'
I214
s(dp31
S'y'
I162
sS'x'
I1024
sg20
I0
s(dp32
S'y'
I120
sS'x'
I939
sg20
I0
s(dp33
g18
S'curve'
p34
sS'x'
I806
sg20
I1
sS'y'
I120
s(dp35
S'y'
I120
sS'x'
I446
sg20
I0
s(dp36
S'y'
I406
sS'x'
I316
sg20
I0
s(dp37
g18
S'curve'
p38
sS'x'
I316
sg20
I1
sS'y'
I706
s(dp39
S'y'
I1005
sS'x'
I316
sg20
I0
s(dp40
S'y'
I1296
sS'x'
I450
sg20
I0
s(dp41
g18
S'curve'
p42
sS'x'
I801
sg20
I1
sS'y'
I1296
s(dp43
S'y'
I1296
sS'x'
I980
sg20
I0
s(dp44
S'y'
I1246
sS'x'
I1053
sg20
I0
s(dp45
g18
S'curve'
p46
sS'x'
I1094
sg20
I1
sS'y'
I1225
s(dp47
S'y'
I1184
sS'x'
I1174
sg20
I0
s(dp48
S'y'
I1300
sS'x'
I1231
sg20
I0
s(dp49
g18
S'curve'
p50
sS'x'
I1156
sg20
I1
sS'y'
I1343
s(dp51
S'y'
I1372
sS'x'
I1106
sg20
I0
s(dp52
S'y'
I1438
sS'x'
I995
sg20
I0
s(dp53
g18
S'curve'
p54
sS'x'
I797
sg20
I1
sS'y'
I1438
s(dp55
S'y'
I1438
sS'x'
I359
sg20
I0
s(dp56
S'y'
I1093
sS'x'
I128
sg20
I0
s(dp57
g18
S'curve'
p58
sS'x'
I128
sg20
I1
sS'y'
I704
s(dp59
S'y'
I307
sS'x'
I128
sg20
I0
s(dp60
S'y'
S'-22'
p61
sS'x'
I350
sg20
I0
stp62
stp63
sg9
(tsg3
(tsssg13
S'G'
s."
AnchorPoint: "bot" 828 0 basechar 0
AnchorPoint: "top" 834 1433 basechar 0
LayerCount: 2
Fore
SplineSet
816 -22 m 256
 980 -22 1145 14 1268 51 c 256
 1321 66 1357 102 1357 173 c 258
 1357 662 l 258
 1357 722 1326 764 1266 764 c 258
 879 764 l 258
 827 764 802 714 802 676 c 256
 802 639 827 590 879 590 c 258
 1131 590 l 257
 1131 198 l 257
 1039 175 930 159 832 159 c 256
 508 159 358 378 358 725 c 256
 358 1051 503 1281 849 1281 c 256
 976 1281 1090 1250 1202 1220 c 256
 1208 1217 1220 1216 1224 1216 c 256
 1275 1216 1305 1267 1305 1311 c 256
 1305 1342 1290 1373 1253 1389 c 256
 1135 1437 994 1462 841 1462 c 256
 354 1462 118 1122 118 722 c 256
 118 236 405 -22 816 -22 c 256
EndSplineSet
EndChar

StartChar: H
Encoding: 72 72 44
Width: 1498
VWidth: 0
GlyphClass: 2
Flags: W
PickledData: "(dp1
S'b'
(dp2
sS'anchors'
p3
(tsS'lib'
p4
(dp5
sS'unicodes'
p6
(tsS'width'
p7
I1524
sS'contours'
p8
(tsS'components'
p9
(tsS'com.typemytype.robofont.layerData'
p10
(dp11
S'b'
(dp12
S'name'
p13
S'H'
sg4
(dp14
sg6
(tsg7
I1464
sg8
(tsg9
(tsg3
(tsssg13
S'H'
s."
AnchorPoint: "top" 764 1438 basechar 0
LayerCount: 2
Fore
SplineSet
288 1 m 256
 346 1 402 37 402 110 c 258
 402 652 l 257
 1095 652 l 257
 1095 110 l 258
 1095 38 1151 1 1208 1 c 256
 1266 1 1322 37 1322 110 c 258
 1322 1322 l 258
 1322 1395 1267 1432 1209 1432 c 256
 1151 1432 1095 1394 1095 1322 c 258
 1095 833 l 257
 402 833 l 257
 402 1322 l 258
 402 1395 346 1432 289 1432 c 256
 231 1432 175 1394 175 1322 c 258
 175 110 l 258
 175 38 231 1 288 1 c 256
EndSplineSet
EndChar

StartChar: Hbar
Encoding: 294 294 45
Width: 1490
VWidth: 0
GlyphClass: 2
Flags: W
PickledData: "(dp1
S'com.typemytype.robofont.layerData'
p2
(dp3
S'b'
(dp4
S'name'
p5
S'Hbar'
p6
sS'lib'
p7
(dp8
sS'unicodes'
p9
(tsS'width'
p10
I1464
sS'contours'
p11
(tsS'components'
p12
(tsS'anchors'
p13
(tsss."
LayerCount: 2
Fore
SplineSet
115 1020 m 258
 1377 1020 l 258
 1419 1020 1445 1043 1445 1076 c 256
 1445 1108 1420 1132 1377 1132 c 258
 115 1132 l 258
 74 1132 49 1108 49 1076 c 256
 49 1043 74 1020 115 1020 c 258
EndSplineSet
Refer: 44 72 N 1 0 0 1 0 0 2
EndChar

StartChar: I
Encoding: 73 73 47
Width: 617
VWidth: 0
GlyphClass: 2
Flags: W
PickledData: "(dp1
S'b'
(dp2
sS'anchors'
p3
(tsS'lib'
p4
(dp5
sS'unicodes'
p6
(tsS'width'
p7
I637
sS'contours'
p8
(tsS'components'
p9
(tsS'com.typemytype.robofont.layerData'
p10
(dp11
S'b'
(dp12
S'name'
p13
S'I'
sg4
(dp14
sg6
(tsg7
I592
sg8
(tsg9
(tsg3
(tsssg13
S'I'
s."
AnchorPoint: "ogonek" 314 22 basechar 0
AnchorPoint: "top" 311 1438 basechar 0
LayerCount: 2
Fore
SplineSet
308 1 m 256
 366 1 423 37 423 110 c 258
 423 1324 l 258
 423 1397 367 1434 310 1434 c 256
 252 1434 196 1397 196 1324 c 258
 196 110 l 258
 196 38 251 1 308 1 c 256
EndSplineSet
EndChar

StartChar: J
Encoding: 74 74 58
Width: 1034
VWidth: 0
GlyphClass: 2
Flags: W
PickledData: "(dp1
S'b'
(dp2
sS'anchors'
p3
(tsS'lib'
p4
(dp5
sS'unicodes'
p6
(tsS'width'
p7
I1126
sS'contours'
p8
(tsS'components'
p9
(tsS'com.typemytype.robofont.layerData'
p10
(dp11
S'b'
(dp12
S'name'
p13
S'J'
sg4
(dp14
sg6
(tsg7
I1003
sg8
(tsg9
(tsg3
(tsssg13
S'J'
s."
AnchorPoint: "top" 773 1438 basechar 0
LayerCount: 2
Fore
SplineSet
433 -27 m 256
 677 -27 888 102 888 442 c 258
 888 1325 l 258
 888 1397 832 1433 775 1433 c 256
 717 1433 660 1397 660 1325 c 258
 660 459 l 258
 660 242 581 162 425 162 c 256
 340 162 265 195 209 226 c 256
 190 238 173 243 157 243 c 256
 106 243 73 192 73 142 c 256
 73 105.834 88.1151 77.7096 118 60 c 256
 186 20 270 -27 433 -27 c 256
EndSplineSet
EndChar

StartChar: K
Encoding: 75 75 60
Width: 1299
VWidth: 0
GlyphClass: 2
Flags: W
PickledData: "(dp1
S'b'
(dp2
sS'anchors'
p3
(tsS'lib'
p4
(dp5
sS'unicodes'
p6
(tsS'width'
p7
I1329
sS'contours'
p8
(tsS'components'
p9
(tsS'com.typemytype.robofont.layerData'
p10
(dp11
S'b'
(dp12
S'name'
p13
S'K'
sg4
(dp14
sg6
(tsg7
I1210
sg8
(tsg9
(tsg3
(tsssg13
S'K'
s."
AnchorPoint: "bot" 662 0 basechar 0
AnchorPoint: "top" 642 1438 basechar 0
LayerCount: 2
Fore
SplineSet
288 0 m 256
 344 0 402 36 402 108 c 258
 402 710 l 257
 1008 49 l 258
 1037 17 1065 1 1097 1 c 256
 1156 1 1210 45 1210 104 c 256
 1210 125 1206 148 1186 169 c 258
 635 754 l 257
 1134 1277 l 258
 1151 1295 1156 1317 1156 1337 c 256
 1156 1391 1106 1432 1052 1432 c 256
 1021 1432 994 1416 967 1387 c 258
 402 773 l 257
 402 1325 l 258
 402 1396 345 1433 290 1433 c 256
 233 1433 176 1397 176 1325 c 258
 176 108 l 258
 176 35 232 0 288 0 c 256
EndSplineSet
EndChar

StartChar: L
Encoding: 76 76 62
Width: 1114
VWidth: 0
GlyphClass: 2
Flags: W
PickledData: "(dp1
S'b'
(dp2
sS'anchors'
p3
(tsS'lib'
p4
(dp5
sS'unicodes'
p6
(tsS'width'
p7
I1169
sS'contours'
p8
(tsS'components'
p9
(tsS'com.typemytype.robofont.layerData'
p10
(dp11
S'b'
(dp12
S'name'
p13
S'L'
sg4
(dp14
sg6
(tsg7
I1095
sg8
((dp15
S'points'
p16
((dp17
S'segmentType'
p18
S'curve'
p19
sS'x'
I266
sS'smooth'
p20
I1
sS'y'
I0
s(dp21
g18
S'line'
p22
sS'x'
I1035
sg20
I1
sS'y'
I0
s(dp23
S'y'
I0
sS'x'
I1084
sg20
I0
s(dp24
S'y'
I34
sS'x'
I1108
sg20
I0
s(dp25
g18
S'curve'
p26
sS'x'
I1108
sg20
I1
sS'y'
I71
s(dp27
S'y'
I107
sS'x'
I1108
sg20
I0
s(dp28
S'y'
I141
sS'x'
I1084
sg20
I0
s(dp29
g18
S'curve'
p30
sS'x'
I1035
sg20
I1
sS'y'
I141
s(dp31
g18
S'line'
p32
sS'x'
I356
sg20
I0
sS'y'
I141
s(dp33
g18
S'line'
p34
sS'x'
I356
sg20
I0
sS'y'
I665
s(dp35
g18
S'line'
p36
sS'x'
I975
sg20
I1
sS'y'
I665
s(dp37
S'y'
I665
sS'x'
I1024
sg20
I0
s(dp38
S'y'
I698
sS'x'
I1049
sg20
I0
s(dp39
g18
S'curve'
p40
sS'x'
I1049
sg20
I1
sS'y'
I734
s(dp41
S'y'
I770
sS'x'
I1049
sg20
I0
s(dp42
S'y'
I803
sS'x'
I1026
sg20
I0
s(dp43
g18
S'curve'
p44
sS'x'
I975
sg20
I1
sS'y'
I803
s(dp45
g18
S'line'
p46
sS'x'
I356
sg20
I0
sS'y'
I803
s(dp47
g18
S'line'
p48
sS'x'
I356
sg20
I0
sS'y'
I1285
s(dp49
g18
S'line'
p50
sS'x'
I1007
sg20
I1
sS'y'
I1285
s(dp51
S'y'
I1285
sS'x'
I1056
sg20
I0
s(dp52
S'y'
I1319
sS'x'
I1080
sg20
I0
s(dp53
g18
S'curve'
p54
sS'x'
I1080
sg20
I1
sS'y'
I1356
s(dp55
S'y'
I1392
sS'x'
I1080
sg20
I0
s(dp56
S'y'
I1426
sS'x'
I1056
sg20
I0
s(dp57
g18
S'curve'
p58
sS'x'
I1007
sg20
I1
sS'y'
I1426
s(dp59
g18
S'line'
p60
sS'x'
I261
sg20
I1
sS'y'
I1426
s(dp61
S'y'
I1426
sS'x'
I213
sg20
I0
s(dp62
S'y'
I1383
sS'x'
I178
sg20
I0
s(dp63
g18
S'curve'
p64
sS'x'
I178
sg20
I1
sS'y'
I1340
s(dp65
g18
S'line'
p66
sS'x'
I178
sg20
I1
sS'y'
I86
s(dp67
S'y'
I41
sS'x'
I178
sg20
I0
s(dp68
S'y'
I0
sS'x'
I222
sg20
I0
stp69
stp70
sg9
(tsg3
(tsssg13
S'L'
s."
AnchorPoint: "mid" 287 724 basechar 0
AnchorPoint: "bot" 667 0 basechar 0
AnchorPoint: "caron.alt" 373 1018 basechar 0
AnchorPoint: "top" 489 1445 basechar 0
LayerCount: 2
Fore
SplineSet
290 0 m 258
 1013 0 l 258
 1072 0 1102 45 1102 90 c 256
 1102 134 1072 180 1013 180 c 258
 402 180 l 257
 402 1322 l 258
 402 1395 347 1432 290 1432 c 256
 232 1432 175 1395 175 1322 c 258
 175 113 l 258
 175 50 229 0 290 0 c 258
EndSplineSet
EndChar

StartChar: Lslash
Encoding: 321 321 67
Width: 1163
VWidth: 0
GlyphClass: 2
Flags: HW
LayerCount: 2
Fore
SplineSet
290 0 m 2
 1013 0 l 2
 1072 0 1102 45 1102 90 c 0
 1102 134 1072 180 1013 180 c 2
 402 180 l 1
 402 740.605150215 l 1
 569 856 l 2
 588.744140625 869.264648438 596.885742188 888.791015625 596.885742188 909.202148438 c 0
 596.885742188 949.431640625 565.083007812 992.34765625 526.909179688 992.34765625 c 0
 516.572265625 992.34765625 505.797851562 989.259765625 495 982 c 2
 402 917.548837209 l 1
 402 1322 l 2
 402 1395 347 1432 290 1432 c 0
 232 1432 175 1395 175 1322 c 2
 175 759.148325359 l 1
 71 686 l 2
 50.0888671875 671.89453125 40.3779296875 649.62890625 40.3779296875 627.455078125 c 0
 40.3779296875 587.934570312 69.068359375 547.646484375 106.467773438 547.646484375 c 0
 117.400390625 547.646484375 129.006835938 551.030273438 141 559 c 2
 175 582.712820513 l 1
 175 113 l 2
 175 50 229 0 290 0 c 2
EndSplineSet
EndChar

StartChar: M
Encoding: 77 77 68
Width: 1913
VWidth: 0
GlyphClass: 2
Flags: W
PickledData: "(dp1
S'b'
(dp2
sS'anchors'
p3
(tsS'lib'
p4
(dp5
sS'unicodes'
p6
(tsS'width'
p7
I1984
sS'contours'
p8
(tsS'components'
p9
(tsS'com.typemytype.robofont.layerData'
p10
(dp11
S'b'
(dp12
S'name'
p13
S'M'
sg4
(dp14
sg6
(tsg7
I1899
sg8
(tsg9
(tsg3
(tsssg13
S'M'
s."
AnchorPoint: "top" 977 1438 basechar 0
LayerCount: 2
Fore
SplineSet
952 41 m 256
 1003 41 1057 75 1084 141 c 257
 1518 1140 l 257
 1518 96 l 258
 1518 44 1570.25 18 1622.5 18 c 256
 1674.75 18 1727 44 1727 96 c 258
 1727 1249 l 258
 1727 1337.3 1644.65 1396.61 1556.17 1396.61 c 256
 1485.34 1396.61 1410.57 1358.6 1371 1267 c 258
 952 314 l 257
 533 1267 l 258
 493.427 1358.6 418.664 1396.61 347.827 1396.61 c 256
 259.35 1396.61 177 1337.3 177 1249 c 258
 177 96 l 258
 177 44 229.25 18 281.5 18 c 256
 333.75 18 386 44 386 96 c 258
 386 1140 l 257
 819 141 l 258
 847 75 901 41 952 41 c 256
EndSplineSet
EndChar

StartChar: N
Encoding: 78 78 69
Width: 1531
VWidth: 0
GlyphClass: 2
Flags: W
PickledData: "(dp1
S'b'
(dp2
sS'anchors'
p3
(tsS'lib'
p4
(dp5
sS'unicodes'
p6
(tsS'width'
p7
I1557
sS'contours'
p8
(tsS'components'
p9
(tsS'com.typemytype.robofont.layerData'
p10
(dp11
S'b'
(dp12
S'name'
p13
S'N'
sg4
(dp14
sg6
(tsg7
I1499
sg8
(tsg9
(tsg3
(tsssg13
S'N'
s."
AnchorPoint: "bot" 793 0 basechar 0
AnchorPoint: "top" 801 1438 basechar 0
LayerCount: 2
Fore
SplineSet
276 0 m 256
 328 0 381 33 381 98 c 258
 381 1089 l 257
 1087 75 l 258
 1122 26 1183 0 1227 0 c 256
 1298 0 1359 52 1359 141 c 258
 1359 1334 l 258
 1359 1400 1306 1433 1255 1433 c 256
 1203 1433 1151 1399 1151 1334 c 258
 1151 333 l 257
 443 1354 l 258
 405 1408 344 1432 298 1432 c 256
 229 1432 172 1381 172 1291 c 258
 172 98 l 258
 172 32 224 0 276 0 c 256
EndSplineSet
EndChar

StartChar: O
Encoding: 79 79 74
Width: 1601
VWidth: 0
GlyphClass: 2
Flags: W
PickledData: "(dp1
S'b'
(dp2
sS'anchors'
p3
(tsS'com.typemytype.robofont.layerData'
p4
(dp5
S'b'
(dp6
S'name'
p7
S'O'
sS'lib'
p8
(dp9
sS'unicodes'
p10
(tsS'width'
p11
I1597
sS'contours'
p12
(tsS'components'
p13
(tsg3
(tsssg10
(tsg7
S'O'
sg11
I1604
sg12
(tsg13
(tsg8
(dp14
sS'com.typemytype.robofont.guides'
p15
(ts."
AnchorPoint: "top" 802 1438 basechar 0
LayerCount: 2
Fore
SplineSet
801 159 m 256
 510 159 356 380 356 720 c 256
 356 1058 509 1281 801 1281 c 256
 1092 1281 1245 1058 1245 720 c 256
 1245 380 1091 159 801 159 c 256
801 -22 m 256
 1234 -22 1485 272 1485 720 c 256
 1485 1168 1234 1462 801 1462 c 256
 369 1462 115 1168 115 720 c 256
 115 272 369 -22 801 -22 c 256
EndSplineSet
EndChar

StartChar: OE
Encoding: 338 338 75
Width: 1997
VWidth: 0
GlyphClass: 2
Flags: W
LayerCount: 2
Fore
SplineSet
724 -26 m 256
 847 -26 1063 -1 1082 -1 c 258
 1794 -1 l 258
 1851 -1 1881 42 1881 85 c 256
 1881 129 1851 173 1794 173 c 258
 1274 173 l 257
 1274 649 l 257
 1735 649 l 258
 1793 649 1824 691 1824 734 c 256
 1824 778 1793 821 1735 821 c 258
 1274 821 l 257
 1274 1258 l 257
 1771 1258 l 258
 1829 1258 1858 1302 1858 1346 c 256
 1858 1388 1829 1432 1771 1432 c 258
 1101 1432 l 258
 1080 1432 868 1456 738 1456 c 256
 345 1456 110 1170 110 715 c 256
 110 263 347 -26 724 -26 c 256
735 140 m 256
 458 140 336 407 336 717 c 256
 336 1027 462 1290 735 1290 c 256
 937 1290 1047 1270 1054 1268 c 257
 1054 167 l 257
 1048 163 926 143 735 140 c 256
EndSplineSet
EndChar

StartChar: Omega
Encoding: 8486 8486 83
Width: 1504
VWidth: 0
GlyphClass: 2
Flags: W
LayerCount: 2
Fore
SplineSet
240 0 m 258
 726 0 l 257
 555 270 366 615 366 872 c 256
 366 1093 489 1248 822 1248 c 256
 1156 1248 1279 1093 1279 872 c 256
 1279 615 1090 271 918 0 c 257
 1404 0 l 258
 1447 0 1468 40 1468 80 c 256
 1468 120 1447 159 1404 159 c 258
 1142 159 l 257
 1350 404 1506 699 1506 934 c 256
 1506 1211 1371 1460 822 1460 c 256
 311 1460 138 1208 138 934 c 256
 138 699 289 418 503 159 c 257
 240 159 l 258
 198 159 177 120 177 80 c 256
 177 40 198 0 240 0 c 258
EndSplineSet
EndChar

StartChar: Oslash
Encoding: 216 216 84
Width: 1601
VWidth: 0
GlyphClass: 2
Flags: W
PickledData: "(dp1
S'com.typemytype.robofont.layerData'
p2
(dp3
S'b'
(dp4
S'name'
p5
S'Oslash'
p6
sS'lib'
p7
(dp8
sS'unicodes'
p9
(tsS'width'
p10
I1597
sS'contours'
p11
(tsS'components'
p12
(tsS'anchors'
p13
(tsss."
LayerCount: 2
Fore
SplineSet
1062.28 1198.28 m 257
 469.668 311.618 l 257
 394.6 409.384 356 549.778 356 720 c 256
 356 1058 509 1281 801 1281 c 256
 906.456 1281 993.789 1251.71 1062.28 1198.28 c 257
1157.63 1089.82 m 257
 1215.45 994.868 1245 868.539 1245 720 c 256
 1245 380 1091 159 801 159 c 256
 711.046 159 634.183 180.118 570.913 219.34 c 257
 1157.63 1089.82 l 257
286 -149 m 256
 313 -149 333 -133 355 -101 c 258
 460.006 54.7927 l 257
 555.99 4.88827 670.355 -22 801 -22 c 256
 1234 -22 1485 272 1485 720 c 256
 1485 956.279 1415.18 1149.72 1285.67 1279.79 c 257
 1395 1442 l 258
 1410 1465 1418 1487 1418 1507 c 256
 1418 1545 1386 1571 1351 1571 c 256
 1329 1571 1304 1562 1286 1533 c 258
 1174.87 1366.73 l 257
 1072.79 1428.44 947.283 1462 801 1462 c 256
 369 1462 115 1168 115 720 c 256
 115 464.73 197.466 259.46 348.339 130.088 c 257
 238 -35 l 258
 226 -52 220 -70 220 -86 c 256
 220 -123 251 -149 286 -149 c 256
EndSplineSet
EndChar

StartChar: P
Encoding: 80 80 87
Width: 1260
VWidth: 0
GlyphClass: 2
Flags: W
PickledData: "(dp1
S'b'
(dp2
sS'anchors'
p3
(tsS'lib'
p4
(dp5
sS'unicodes'
p6
(tsS'width'
p7
I1319
sS'contours'
p8
(tsS'components'
p9
(tsS'com.typemytype.robofont.layerData'
p10
(dp11
S'b'
(dp12
S'name'
p13
S'P'
sg4
(dp14
sg6
(tsg7
I1201
sg8
((dp15
S'points'
p16
((dp17
S'segmentType'
p18
S'curve'
p19
sS'x'
I266
sS'smooth'
p20
I1
sS'y'
I0
s(dp21
g18
S'line'
p22
sS'x'
I1035
sg20
I1
sS'y'
I0
s(dp23
S'y'
I0
sS'x'
I1084
sg20
I0
s(dp24
S'y'
I34
sS'x'
I1108
sg20
I0
s(dp25
g18
S'curve'
p26
sS'x'
I1108
sg20
I1
sS'y'
I71
s(dp27
S'y'
I107
sS'x'
I1108
sg20
I0
s(dp28
S'y'
I141
sS'x'
I1084
sg20
I0
s(dp29
g18
S'curve'
p30
sS'x'
I1035
sg20
I1
sS'y'
I141
s(dp31
g18
S'line'
p32
sS'x'
I356
sg20
I0
sS'y'
I141
s(dp33
g18
S'line'
p34
sS'x'
I356
sg20
I0
sS'y'
I665
s(dp35
g18
S'line'
p36
sS'x'
I975
sg20
I1
sS'y'
I665
s(dp37
S'y'
I665
sS'x'
I1024
sg20
I0
s(dp38
S'y'
I698
sS'x'
I1049
sg20
I0
s(dp39
g18
S'curve'
p40
sS'x'
I1049
sg20
I1
sS'y'
I734
s(dp41
S'y'
I770
sS'x'
I1049
sg20
I0
s(dp42
S'y'
I803
sS'x'
I1026
sg20
I0
s(dp43
g18
S'curve'
p44
sS'x'
I975
sg20
I1
sS'y'
I803
s(dp45
g18
S'line'
p46
sS'x'
I356
sg20
I0
sS'y'
I803
s(dp47
g18
S'line'
p48
sS'x'
I356
sg20
I0
sS'y'
I1285
s(dp49
g18
S'line'
p50
sS'x'
I1007
sg20
I1
sS'y'
I1285
s(dp51
S'y'
I1285
sS'x'
I1056
sg20
I0
s(dp52
S'y'
I1319
sS'x'
I1080
sg20
I0
s(dp53
g18
S'curve'
p54
sS'x'
I1080
sg20
I1
sS'y'
I1356
s(dp55
S'y'
I1392
sS'x'
I1080
sg20
I0
s(dp56
S'y'
I1426
sS'x'
I1056
sg20
I0
s(dp57
g18
S'curve'
p58
sS'x'
I1007
sg20
I1
sS'y'
I1426
s(dp59
g18
S'line'
p60
sS'x'
I261
sg20
I1
sS'y'
I1426
s(dp61
S'y'
I1426
sS'x'
I213
sg20
I0
s(dp62
S'y'
I1383
sS'x'
I178
sg20
I0
s(dp63
g18
S'curve'
p64
sS'x'
I178
sg20
I1
sS'y'
I1340
s(dp65
g18
S'line'
p66
sS'x'
I178
sg20
I1
sS'y'
I86
s(dp67
S'y'
I41
sS'x'
I178
sg20
I0
s(dp68
S'y'
I0
sS'x'
I222
sg20
I0
stp69
stp70
sg9
(tsg3
(tsssg13
S'P'
s."
AnchorPoint: "top" 655 1438 basechar 0
LayerCount: 2
Fore
SplineSet
289 -1 m 256
 346 -1 402 35 402 109 c 258
 402 602 l 257
 700 602 l 258
 1016 602 1230 706 1230 1018 c 256
 1230 1323 1035 1433 720 1433 c 258
 290 1433 l 258
 226 1433 175 1382 175 1320 c 258
 175 109 l 258
 175 36 232 -1 289 -1 c 256
402 775 m 257
 402 1253 l 257
 704 1253 l 258
 904 1253 1006 1203 1006 1018 c 256
 1006 830 900 775 695 775 c 258
 402 775 l 257
EndSplineSet
EndChar

StartChar: Q
Encoding: 81 81 88
Width: 1601
VWidth: 0
GlyphClass: 2
Flags: W
PickledData: "(dp1
S'b'
(dp2
sS'anchors'
p3
(tsS'lib'
p4
(dp5
sS'unicodes'
p6
(tsS'width'
p7
I1604
sS'contours'
p8
(tsS'components'
p9
(tsS'com.typemytype.robofont.layerData'
p10
(dp11
S'b'
(dp12
S'name'
p13
S'Q'
sg4
(dp14
sg6
(tsg7
I1597
sg8
(tsg9
(tsg3
(tsssg13
S'Q'
s."
LayerCount: 2
Fore
SplineSet
1277.64 -213.312 m 256
 1321.77 -213.312 1361.64 -174.947 1361.64 -125.9 c 256
 1361.64 -96.8782 1346.08 -67.6846 1310 -50 c 258
 1014 90 l 257
 721 35 l 257
 1241 -205 l 258
 1253.75 -210.75 1266.06 -213.312 1277.64 -213.312 c 256
EndSplineSet
Refer: 74 79 N 1 0 0 1 0 0 2
EndChar

StartChar: R
Encoding: 82 82 89
Width: 1382
VWidth: 0
GlyphClass: 2
Flags: W
PickledData: "(dp1
S'b'
(dp2
sS'anchors'
p3
(tsS'com.typemytype.robofont.layerData'
p4
(dp5
S'b'
(dp6
S'name'
p7
S'R'
sS'lib'
p8
(dp9
sS'unicodes'
p10
(tsS'width'
p11
I1363
sS'contours'
p12
((dp13
S'points'
p14
((dp15
S'segmentType'
p16
S'curve'
p17
sS'x'
I267
sS'smooth'
p18
I1
sS'y'
I0
s(dp19
S'y'
I0
sS'x'
I311
sg18
I0
s(dp20
S'y'
I27
sS'x'
I356
sg18
I0
s(dp21
g16
S'curve'
p22
sS'x'
I356
sg18
I1
sS'y'
I84
s(dp23
g16
S'line'
p24
sS'x'
I356
sg18
I0
sS'y'
I628
s(dp25
g16
S'line'
p26
sS'x'
I669
sg18
I1
sS'y'
I628
s(dp27
S'y'
I628
sS'x'
I962
sg18
I0
s(dp28
S'y'
I722
sS'x'
I1182
sg18
I0
s(dp29
g16
S'curve'
p30
sS'x'
I1182
sg18
I1
sS'y'
I1026
s(dp31
S'y'
I1324
sS'x'
I1182
sg18
I0
s(dp32
S'y'
I1426
sS'x'
I993
sg18
I0
s(dp33
g16
S'curve'
p34
sS'x'
I684
sg18
I1
sS'y'
I1426
s(dp35
g16
S'line'
p36
sS'x'
I268
sg18
I1
sS'y'
I1426
s(dp37
S'y'
I1426
sS'x'
I217
sg18
I0
s(dp38
S'y'
I1387
sS'x'
I178
sg18
I0
s(dp39
g16
S'curve'
p40
sS'x'
I178
sg18
I1
sS'y'
I1339
s(dp41
g16
S'line'
p42
sS'x'
I178
sg18
I1
sS'y'
I84
s(dp43
S'y'
I28
sS'x'
I178
sg18
I0
s(dp44
S'y'
I0
sS'x'
I222
sg18
I0
stp45
s(dp46
g14
((dp47
g16
S'line'
p48
sS'x'
I356
sg18
I0
sS'y'
I764
s(dp49
g16
S'line'
p50
sS'x'
I356
sg18
I0
sS'y'
I1285
s(dp51
g16
S'line'
p52
sS'x'
I684
sg18
I1
sS'y'
I1285
s(dp53
S'y'
I1285
sS'x'
I914
sg18
I0
s(dp54
S'y'
I1210
sS'x'
I1008
sg18
I0
s(dp55
g16
S'curve'
p56
sS'x'
I1008
sg18
I1
sS'y'
I1026
s(dp57
S'y'
I838
sS'x'
I1008
sg18
I0
s(dp58
S'y'
I764
sS'x'
I901
sg18
I0
s(dp59
g16
S'curve'
p60
sS'x'
I670
sg18
I1
sS'y'
I764
stp61
stp62
sS'components'
p63
(tsg3
(tsssg10
(tsg7
S'R'
sg11
I1408
sg12
(tsg63
(tsg8
(dp64
sS'com.typemytype.robofont.guides'
p65
(ts."
AnchorPoint: "bot" 733 0 basechar 0
AnchorPoint: "top" 680 1438 basechar 0
LayerCount: 2
Fore
SplineSet
288 1 m 256
 344 1 402 37 402 109 c 258
 402 643 l 257
 714 643 l 258
 715.636 643.008 717.262 643.012 718.877 643.012 c 256
 918.672 643.012 960.184 581.324 983 374 c 258
 1013 101 l 258
 1020 33 1081 1 1135 1 c 256
 1189.26 1 1241.77 39.5057 1241.77 101.781 c 256
 1241.77 106.076 1241.52 110.484 1241 115 c 258
 1207 412 l 258
 1188 583 1106 702 931 739 c 257
 931 743 l 257
 1145 781 1242 911 1242 1070 c 256
 1242 1367 987 1433 729 1433 c 258
 289 1433 l 258
 226 1433 175 1383 175 1322 c 258
 175 109 l 258
 175 37 232 1 288 1 c 256
402 818 m 257
 402 1253 l 257
 701 1253 l 258
 840 1253 1015 1250 1015 1045 c 256
 1015 839 836 818 664 818 c 258
 402 818 l 257
EndSplineSet
EndChar

StartChar: S
Encoding: 83 83 93
Width: 1298
VWidth: 0
GlyphClass: 2
Flags: W
PickledData: "(dp1
S'b'
(dp2
sS'anchors'
p3
(tsS'lib'
p4
(dp5
sS'unicodes'
p6
(tsS'width'
p7
I1317
sS'contours'
p8
(tsS'components'
p9
(tsS'com.typemytype.robofont.layerData'
p10
(dp11
S'b'
(dp12
S'name'
p13
S'S'
sg4
(dp14
sg6
(tsg7
I1274
sg8
(tsg9
(tsg3
(tsssg13
S'S'
s."
AnchorPoint: "bot" 647 4 basechar 0
AnchorPoint: "top" 657 1438 basechar 0
LayerCount: 2
Fore
SplineSet
643 -22 m 256
 974.793 -22 1192.08 130.603 1192.08 395.631 c 256
 1192.08 622.679 1051.83 718.037 826 792 c 258
 523 890 l 258
 408 927 353 980 353 1079 c 256
 353 1222 492 1281 673 1281 c 256
 827 1281 959 1218 1024 1179 c 256
 1040.05 1168.99 1055.74 1164.67 1070.38 1164.67 c 256
 1118.79 1164.67 1155.64 1211.95 1155.64 1257.03 c 256
 1155.64 1277.3 1148.19 1297.12 1131 1312 c 256
 1045 1387 858 1462 656 1462 c 256
 362 1462 134 1317 134 1071 c 256
 134 870 244 772 450 703 c 258
 754 602 l 258
 899 553 970 505 970 374 c 256
 970 228 828 159 649 159 c 256
 469 159 333 229 250 289 c 256
 242.132 294.546 233.598 297.015 224.809 297.015 c 256
 178.26 297.015 124.542 227.778 124.542 179.839 c 256
 124.542 166.654 128.605 155.079 138 147 c 256
 236 60 396 -22 643 -22 c 256
EndSplineSet
EndChar

StartChar: Sigma
Encoding: 931 931 99
Width: 1392
VWidth: 0
GlyphClass: 2
Flags: W
LayerCount: 2
Fore
SplineSet
295 -148 m 258
 1162 -148 l 258
 1220 -148 1249 -96.75 1249 -45.5 c 256
 1249 5.75 1220 57 1162 57 c 258
 375 57 l 257
 844 519 l 258
 891.458 564.416 916.781 604.885 916.781 646.253 c 256
 916.781 685.952 893.46 726.478 844 773 c 257
 375 1232 l 257
 1162 1232 l 258
 1220 1232 1249 1283.25 1249 1334.5 c 256
 1249 1385.75 1220 1437 1162 1437 c 258
 307 1437 l 258
 212.118 1437 141.566 1376.58 141.566 1294.73 c 256
 141.566 1248.05 164.519 1194.39 219 1141 c 258
 712 648 l 257
 219 139 l 258
 168.874 87.7431 147.157 34.3555 147.157 -12.276 c 256
 147.157 -89.3717 206.518 -148 295 -148 c 258
EndSplineSet
EndChar

StartChar: T
Encoding: 84 84 100
Width: 1181
VWidth: 0
GlyphClass: 2
Flags: W
PickledData: "(dp1
S'b'
(dp2
sS'anchors'
p3
(tsS'lib'
p4
(dp5
sS'unicodes'
p6
(tsS'width'
p7
I1199
sS'contours'
p8
(tsS'components'
p9
(tsS'com.typemytype.robofont.layerData'
p10
(dp11
S'b'
(dp12
S'name'
p13
S'T'
sg4
(dp14
sg6
(tsg7
I1158
sg8
((dp15
S'points'
p16
((dp17
S'segmentType'
p18
S'curve'
p19
sS'x'
I581
sS'smooth'
p20
I1
sS'y'
I0
s(dp21
g18
S'line'
p22
sS'x'
I1350
sg20
I1
sS'y'
I0
s(dp23
S'y'
I0
sS'x'
I1399
sg20
I0
s(dp24
S'y'
I34
sS'x'
I1423
sg20
I0
s(dp25
g18
S'curve'
p26
sS'x'
I1423
sg20
I1
sS'y'
I71
s(dp27
S'y'
I107
sS'x'
I1423
sg20
I0
s(dp28
S'y'
I141
sS'x'
I1399
sg20
I0
s(dp29
g18
S'curve'
p30
sS'x'
I1350
sg20
I1
sS'y'
I141
s(dp31
g18
S'line'
p32
sS'x'
I671
sg20
I0
sS'y'
I141
s(dp33
g18
S'line'
p34
sS'x'
I671
sg20
I0
sS'y'
I665
s(dp35
g18
S'line'
p36
sS'x'
I1290
sg20
I1
sS'y'
I665
s(dp37
S'y'
I665
sS'x'
I1339
sg20
I0
s(dp38
S'y'
I698
sS'x'
I1364
sg20
I0
s(dp39
g18
S'curve'
p40
sS'x'
I1364
sg20
I1
sS'y'
I734
s(dp41
S'y'
I770
sS'x'
I1364
sg20
I0
s(dp42
S'y'
I803
sS'x'
I1341
sg20
I0
s(dp43
g18
S'curve'
p44
sS'x'
I1290
sg20
I1
sS'y'
I803
s(dp45
g18
S'line'
p46
sS'x'
I671
sg20
I0
sS'y'
I803
s(dp47
g18
S'line'
p48
sS'x'
I671
sg20
I0
sS'y'
I1285
s(dp49
g18
S'line'
p50
sS'x'
I1322
sg20
I1
sS'y'
I1285
s(dp51
S'y'
I1285
sS'x'
I1371
sg20
I0
s(dp52
S'y'
I1319
sS'x'
I1395
sg20
I0
s(dp53
g18
S'curve'
p54
sS'x'
I1395
sg20
I1
sS'y'
I1356
s(dp55
S'y'
I1392
sS'x'
I1395
sg20
I0
s(dp56
S'y'
I1426
sS'x'
I1371
sg20
I0
s(dp57
g18
S'curve'
p58
sS'x'
I1322
sg20
I1
sS'y'
I1426
s(dp59
g18
S'line'
p60
sS'x'
I576
sg20
I1
sS'y'
I1426
s(dp61
S'y'
I1426
sS'x'
I528
sg20
I0
s(dp62
S'y'
I1383
sS'x'
I493
sg20
I0
s(dp63
g18
S'curve'
p64
sS'x'
I493
sg20
I1
sS'y'
I1340
s(dp65
g18
S'line'
p66
sS'x'
I493
sg20
I1
sS'y'
I86
s(dp67
S'y'
I41
sS'x'
I493
sg20
I0
s(dp68
S'y'
I0
sS'x'
I537
sg20
I0
stp69
stp70
sg9
(tsg3
(tsssg13
S'T'
s."
AnchorPoint: "mid" 597 717 basechar 0
AnchorPoint: "bot" 592 4 basechar 0
AnchorPoint: "top" 606 1438 basechar 0
LayerCount: 2
Fore
SplineSet
592 -1 m 256
 649 -1 706 37 706 110 c 258
 706 1252 l 257
 1065 1252 l 258
 1125 1252 1155 1298 1155 1343 c 256
 1155 1387 1125 1433 1065 1433 c 258
 116 1433 l 258
 56 1433 26 1387 26 1342 c 256
 26 1298 56 1252 116 1252 c 258
 478 1252 l 257
 478 110 l 258
 478 37 535 -1 592 -1 c 256
EndSplineSet
EndChar

StartChar: Thorn
Encoding: 222 222 105
Width: 1308
VWidth: 0
GlyphClass: 2
Flags: W
LayerCount: 2
Fore
SplineSet
298 -1 m 256
 355 -1 413 35 413 108 c 258
 413 383 l 257
 667 383 l 258
 970 383 1246 484 1246 804 c 256
 1246 1118 976 1223 684 1223 c 258
 413 1223 l 257
 413 1334 l 258
 413 1406 355 1443 298 1443 c 256
 241 1443 184 1407 184 1334 c 258
 184 108 l 258
 184 35 241 -1 298 -1 c 256
413 547 m 257
 413 1059 l 257
 681 1059 l 258
 864 1059 1013 1001 1013 804 c 256
 1013 606 862 547 674 547 c 258
 413 547 l 257
EndSplineSet
EndChar

StartChar: U
Encoding: 85 85 106
Width: 1503
VWidth: 0
GlyphClass: 2
Flags: W
PickledData: "(dp1
S'b'
(dp2
sS'anchors'
p3
(tsS'lib'
p4
(dp5
sS'unicodes'
p6
(tsS'width'
p7
I1513
sS'contours'
p8
(tsS'components'
p9
(tsS'com.typemytype.robofont.layerData'
p10
(dp11
S'b'
(dp12
S'name'
p13
S'U'
sg4
(dp14
sg6
(tsg7
I1490
sg8
(tsg9
(tsg3
(tsssg13
S'U'
s."
AnchorPoint: "ogonek" 881 9 basechar 0
AnchorPoint: "top" 768 1438 basechar 0
LayerCount: 2
Fore
SplineSet
751 -22 m 256
 1059 -22 1327 147 1327 498 c 258
 1327 1328 l 258
 1327 1401 1271 1437 1214 1437 c 256
 1156 1437 1099 1400 1099 1328 c 258
 1099 504 l 258
 1099 264 925 159 751 159 c 256
 578 159 405 264 405 504 c 258
 405 1328 l 258
 405 1401 348 1437 291 1437 c 256
 233 1437 177 1400 177 1328 c 258
 177 498 l 258
 177 147 444 -22 751 -22 c 256
EndSplineSet
EndChar

StartChar: V
Encoding: 86 86 117
Width: 1332
VWidth: 0
GlyphClass: 2
Flags: W
PickledData: "(dp1
S'b'
(dp2
sS'anchors'
p3
(tsS'com.typemytype.robofont.layerData'
p4
(dp5
S'b'
(dp6
S'name'
p7
S'V'
sS'lib'
p8
(dp9
sS'unicodes'
p10
(tsS'width'
p11
I1289
sS'contours'
p12
((dp13
S'points'
p14
((dp15
S'segmentType'
p16
S'curve'
p17
sS'x'
I644
sS'smooth'
p18
I1
sS'y'
S'-5'
p19
s(dp20
S'y'
S'-5'
p21
sS'x'
I712
sg18
I0
s(dp22
S'y'
I38
sS'x'
I764
sg18
I0
s(dp23
g16
S'curve'
p24
sS'x'
I793
sg18
I1
sS'y'
I117
s(dp25
g16
S'line'
p26
sS'x'
I1243
sg18
I1
sS'y'
I1324
s(dp27
S'y'
I1335
sS'x'
I1247
sg18
I0
s(dp28
S'y'
I1342
sS'x'
I1248
sg18
I0
s(dp29
g16
S'curve'
p30
sS'x'
I1248
sg18
I1
sS'y'
I1351
s(dp31
S'y'
I1395
sS'x'
I1248
sg18
I0
s(dp32
S'y'
I1427
sS'x'
I1203
sg18
I0
s(dp33
g16
S'curve'
p34
sS'x'
I1160
sg18
I1
sS'y'
I1427
s(dp35
S'y'
I1427
sS'x'
I1125
sg18
I0
s(dp36
S'y'
I1408
sS'x'
I1090
sg18
I0
s(dp37
g16
S'curve'
p38
sS'x'
I1076
sg18
I1
sS'y'
I1369
s(dp39
g16
S'line'
p40
sS'x'
I651
sg18
I0
sS'y'
I192
s(dp41
g16
S'line'
p42
sS'x'
I650
sg18
I0
sS'y'
I190
s(dp43
g16
S'line'
p44
sS'x'
I214
sg18
I1
sS'y'
I1370
s(dp45
S'y'
I1407
sS'x'
I200
sg18
I0
s(dp46
S'y'
I1427
sS'x'
I170
sg18
I0
s(dp47
g16
S'curve'
p48
sS'x'
I135
sg18
I1
sS'y'
I1427
s(dp49
S'y'
I1427
sS'x'
I90
sg18
I0
s(dp50
S'y'
I1392
sS'x'
I43
sg18
I0
s(dp51
g16
S'curve'
p52
sS'x'
I43
sg18
I1
sS'y'
I1344
s(dp53
S'y'
I1336
sS'x'
I43
sg18
I0
s(dp54
S'y'
I1326
sS'x'
I44
sg18
I0
s(dp55
g16
S'curve'
p56
sS'x'
I48
sg18
I0
sS'y'
I1318
s(dp57
g16
S'line'
p58
sS'x'
I501
sg18
I1
sS'y'
I117
s(dp59
S'y'
I35
sS'x'
I532
sg18
I0
s(dp60
S'y'
S'-5'
p61
sS'x'
I581
sg18
I0
stp62
stp63
sS'components'
p64
(tsg3
(tsssg10
(tsg7
S'V'
sg11
I1365
sg12
(tsg64
(tsg8
(dp65
sS'com.typemytype.robofont.guides'
p66
(ts."
LayerCount: 2
Fore
SplineSet
671 -11 m 256
 760 -11 821 28 864 148 c 258
 1277 1305 l 258
 1281.27 1317.16 1283.23 1328.75 1283.23 1339.66 c 256
 1283.23 1399.3 1224.76 1438.51 1167.24 1438.51 c 256
 1124.53 1438.51 1082.35 1416.9 1065 1366 c 258
 671 232 l 257
 277 1366 l 258
 259.648 1416.9 217.467 1438.51 174.821 1438.51 c 256
 117.583 1438.51 59.5087 1399.58 59.5087 1340.31 c 256
 59.5087 1329.21 61.5436 1317.4 66 1305 c 258
 479 148 l 258
 521 28 582 -11 671 -11 c 256
EndSplineSet
EndChar

StartChar: W
Encoding: 87 87 118
Width: 2095
VWidth: 0
GlyphClass: 2
Flags: W
PickledData: "(dp1
S'b'
(dp2
sS'anchors'
p3
(tsS'lib'
p4
(dp5
sS'unicodes'
p6
(tsS'width'
p7
I2070
sS'contours'
p8
(tsS'components'
p9
(tsS'com.typemytype.robofont.layerData'
p10
(dp11
S'b'
(dp12
S'name'
p13
S'W'
sg4
(dp14
sg6
(tsg7
I2126
sg8
(tsg9
(tsg3
(tsssg13
S'W'
s."
AnchorPoint: "top" 1044 1438 basechar 0
LayerCount: 2
Fore
SplineSet
1714 123 m 258
 2033 1302 l 258
 2036.05 1313.33 2037.47 1324.02 2037.47 1334.02 c 256
 2037.47 1397.17 1981.17 1433.18 1925.75 1433.18 c 256
 1880.69 1433.18 1836.2 1409.37 1823 1357 c 258
 1535 222 l 257
 1194 1312 l 258
 1162 1414 1111 1433 1044 1433 c 256
 977 1433 925 1411 894 1312 c 258
 553 222 l 257
 265 1357 l 258
 251.803 1409.37 207.314 1433.18 162.251 1433.18 c 256
 106.825 1433.18 50.5325 1397.17 50.5325 1334.02 c 256
 50.5325 1324.02 51.9458 1313.33 55 1302 c 258
 374 123 l 258
 396.398 38.8829 466.858 -2.12755 538.275 -2.12755 c 256
 610.342 -2.12755 683.384 39.633 709 121 c 258
 1044 1175 l 257
 1379 121 l 258
 1404.84 39 1476.62 -1.75455 1547.82 -1.75455 c 256
 1619.89 -1.75455 1691.36 40 1714 123 c 258
EndSplineSet
EndChar

StartChar: X
Encoding: 88 88 123
Width: 1301
VWidth: 0
GlyphClass: 2
Flags: W
PickledData: "(dp1
S'b'
(dp2
sS'anchors'
p3
(tsS'lib'
p4
(dp5
sS'unicodes'
p6
(tsS'width'
p7
I1322
sS'contours'
p8
(tsS'components'
p9
(tsS'com.typemytype.robofont.layerData'
p10
(dp11
S'b'
(dp12
S'name'
p13
S'X'
sg4
(dp14
sg6
(tsg7
I1274
sg8
((dp15
S'points'
p16
((dp17
S'segmentType'
p18
S'curve'
p19
sS'x'
I151
sS'smooth'
p20
I1
sS'y'
I0
s(dp21
S'y'
I0
sS'x'
I176
sg20
I0
s(dp22
S'y'
I12
sS'x'
I201
sg20
I0
s(dp23
g18
S'curve'
p24
sS'x'
I222
sg20
I1
sS'y'
I41
s(dp25
g18
S'line'
p26
sS'x'
I641
sg20
I0
sS'y'
I616
s(dp27
g18
S'line'
p28
sS'x'
I746
sg20
I0
sS'y'
I734
s(dp29
g18
S'line'
p30
sS'x'
I1175
sg20
I1
sS'y'
I1310
s(dp31
S'y'
I1325
sS'x'
I1186
sg20
I0
s(dp32
S'y'
I1338
sS'x'
I1190
sg20
I0
s(dp33
g18
S'curve'
p34
sS'x'
I1190
sg20
I1
sS'y'
I1353
s(dp35
S'y'
I1393
sS'x'
I1190
sg20
I0
s(dp36
S'y'
I1426
sS'x'
I1153
sg20
I0
s(dp37
g18
S'curve'
p38
sS'x'
I1110
sg20
I1
sS'y'
I1426
s(dp39
S'y'
I1426
sS'x'
I1083
sg20
I0
s(dp40
S'y'
I1414
sS'x'
I1058
sg20
I0
s(dp41
g18
S'curve'
p42
sS'x'
I1037
sg20
I1
sS'y'
I1385
s(dp43
g18
S'line'
p44
sS'x'
I648
sg20
I0
sS'y'
I844
s(dp45
g18
S'line'
p46
sS'x'
I542
sg20
I0
sS'y'
I732
s(dp47
g18
S'line'
p48
sS'x'
I84
sg20
I1
sS'y'
I121
s(dp49
S'y'
I106
sS'x'
I73
sg20
I0
s(dp50
S'y'
I91
sS'x'
I68
sg20
I0
s(dp51
g18
S'curve'
p52
sS'x'
I68
sg20
I1
sS'y'
I76
s(dp53
S'y'
I35
sS'x'
I68
sg20
I0
s(dp54
S'y'
I0
sS'x'
I108
sg20
I0
stp55
s(dp56
g16
((dp57
g18
S'curve'
p58
sS'x'
I1104
sg20
I1
sS'y'
I0
s(dp59
S'y'
I0
sS'x'
I1151
sg20
I0
s(dp60
S'y'
I40
sS'x'
I1200
sg20
I0
s(dp61
g18
S'curve'
p62
sS'x'
I1200
sg20
I1
sS'y'
I85
s(dp63
S'y'
I98
sS'x'
I1200
sg20
I0
s(dp64
S'y'
I113
sS'x'
I1195
sg20
I0
s(dp65
g18
S'curve'
p66
sS'x'
I1186
sg20
I0
sS'y'
I126
s(dp67
g18
S'line'
p68
sS'x'
I272
sg20
I0
sS'y'
I1385
s(dp69
S'y'
I1414
sS'x'
I252
sg20
I0
s(dp70
S'y'
I1426
sS'x'
I225
sg20
I0
s(dp71
g18
S'curve'
p72
sS'x'
I197
sg20
I1
sS'y'
I1426
s(dp73
S'y'
I1426
sS'x'
I149
sg20
I0
s(dp74
S'y'
I1388
sS'x'
I100
sg20
I0
s(dp75
g18
S'curve'
p76
sS'x'
I100
sg20
I1
sS'y'
I1343
s(dp77
S'y'
I1328
sS'x'
I100
sg20
I0
s(dp78
S'y'
I1315
sS'x'
I105
sg20
I0
s(dp79
g18
S'curve'
p80
sS'x'
I114
sg20
I0
sS'y'
I1303
s(dp81
g18
S'line'
p82
sS'x'
I1033
sg20
I0
sS'y'
I40
s(dp83
S'y'
I13
sS'x'
I1052
sg20
I0
s(dp84
S'y'
I0
sS'x'
I1076
sg20
I0
stp85
stp86
sg9
(tsg3
(tsssg13
S'X'
s."
LayerCount: 2
Fore
SplineSet
1032 39 m 258
 1054.78 7.86184 1086.2 -5.15479 1117.35 -5.15479 c 256
 1174.64 -5.15479 1231.02 38.8737 1231.02 95.1736 c 256
 1231.02 114.436 1224.42 135.136 1209 156 c 258
 789.53 723.275 l 257
 1219 1293 l 258
 1233.92 1312.57 1240.36 1332.59 1240.36 1351.27 c 256
 1240.36 1399.08 1198.18 1438.07 1148.27 1438.07 c 256
 1117.07 1438.07 1082.84 1422.83 1054 1385 c 258
 671.606 882.751 l 257
 298 1388 l 258
 272.507 1421.9 241.127 1435.63 210.809 1435.63 c 256
 151.94 1435.63 97.0729 1383.87 97.0729 1327.51 c 256
 97.0729 1309.29 102.809 1290.59 116 1273 c 258
 527.487 718.66 l 257
 89 152 l 258
 72.1491 130.193 64.9663 108.229 64.9663 87.9303 c 256
 64.9663 36.2555 111.517 -4.62214 163.611 -4.62214 c 256
 194.274 -4.62214 226.858 9.54044 253 44 c 258
 644.19 561.442 l 257
 1032 39 l 258
EndSplineSet
EndChar

StartChar: Y
Encoding: 89 89 124
Width: 1291
VWidth: 0
GlyphClass: 2
Flags: W
PickledData: "(dp1
S'b'
(dp2
sS'anchors'
p3
(tsS'com.typemytype.robofont.layerData'
p4
(dp5
S'b'
(dp6
S'name'
p7
S'Y'
sS'lib'
p8
(dp9
sS'unicodes'
p10
(tsS'width'
p11
I1278
sS'contours'
p12
((dp13
S'points'
p14
((dp15
S'segmentType'
p16
S'curve'
p17
sS'x'
I641
sS'smooth'
p18
I1
sS'y'
I0
s(dp19
S'y'
I0
sS'x'
I685
sg18
I0
s(dp20
S'y'
I29
sS'x'
I730
sg18
I0
s(dp21
g16
S'curve'
p22
sS'x'
I730
sg18
I1
sS'y'
I85
s(dp23
g16
S'line'
p24
sS'x'
I730
sg18
I0
sS'y'
I1285
s(dp25
g16
S'line'
p26
sS'x'
I1115
sg18
I1
sS'y'
I1285
s(dp27
S'y'
I1285
sS'x'
I1164
sg18
I0
s(dp28
S'y'
I1319
sS'x'
I1190
sg18
I0
s(dp29
g16
S'curve'
p30
sS'x'
I1190
sg18
I1
sS'y'
I1355
s(dp31
S'y'
I1392
sS'x'
I1190
sg18
I0
s(dp32
S'y'
I1426
sS'x'
I1166
sg18
I0
s(dp33
g16
S'curve'
p34
sS'x'
I1115
sg18
I1
sS'y'
I1426
s(dp35
g16
S'line'
p36
sS'x'
I160
sg18
I1
sS'y'
I1426
s(dp37
S'y'
I1426
sS'x'
I111
sg18
I0
s(dp38
S'y'
I1392
sS'x'
I86
sg18
I0
s(dp39
g16
S'curve'
p40
sS'x'
I86
sg18
I1
sS'y'
I1355
s(dp41
S'y'
I1319
sS'x'
I86
sg18
I0
s(dp42
S'y'
I1285
sS'x'
I111
sg18
I0
s(dp43
g16
S'curve'
p44
sS'x'
I160
sg18
I1
sS'y'
I1285
s(dp45
g16
S'line'
p46
sS'x'
I552
sg18
I0
sS'y'
I1285
s(dp47
g16
S'line'
p48
sS'x'
I552
sg18
I1
sS'y'
I85
s(dp49
S'y'
I29
sS'x'
I552
sg18
I0
s(dp50
S'y'
I0
sS'x'
I596
sg18
I0
stp51
stp52
sS'components'
p53
(tsg3
(tsssg10
(tsg7
S'Y'
sg11
I1321
sg12
(tsg53
(tsg8
(dp54
sS'com.typemytype.robofont.guides'
p55
(ts."
AnchorPoint: "top" 663 1438 basechar 0
LayerCount: 2
Fore
SplineSet
531 110 m 258
 531 37.1254 587.555 0.874678 644.207 0.874678 c 256
 701.055 0.874678 758 37.3754 758 110 c 258
 758 599 l 257
 1204 1295 l 258
 1215.68 1313.52 1220.73 1331.37 1220.73 1347.74 c 256
 1220.73 1397.56 1173.98 1433.76 1124.62 1433.76 c 256
 1092.92 1433.76 1060.15 1418.84 1038 1383 c 258
 657 768 l 257
 282 1374 l 258
 257.183 1414.21 221.906 1430.44 187.36 1430.44 c 256
 128.875 1430.44 72.4843 1383.92 72.4843 1328.5 c 256
 72.4843 1312.44 77.2162 1295.64 88 1279 c 258
 531 591 l 257
 531 110 l 258
EndSplineSet
EndChar

StartChar: Z
Encoding: 90 90 129
Width: 1182
VWidth: 0
GlyphClass: 2
Flags: W
PickledData: "(dp1
S'b'
(dp2
sS'anchors'
p3
(tsS'lib'
p4
(dp5
sS'unicodes'
p6
(tsS'width'
p7
I1222
sS'contours'
p8
(tsS'components'
p9
(tsS'com.typemytype.robofont.layerData'
p10
(dp11
S'b'
(dp12
S'name'
p13
S'Z'
sg4
(dp14
sg6
(tsg7
I1165
sg8
((dp15
S'points'
p16
((dp17
S'segmentType'
p18
S'curve'
p19
sS'x'
I266
sS'smooth'
p20
I1
sS'y'
I0
s(dp21
g18
S'line'
p22
sS'x'
I1035
sg20
I1
sS'y'
I0
s(dp23
S'y'
I0
sS'x'
I1084
sg20
I0
s(dp24
S'y'
I34
sS'x'
I1108
sg20
I0
s(dp25
g18
S'curve'
p26
sS'x'
I1108
sg20
I1
sS'y'
I71
s(dp27
S'y'
I107
sS'x'
I1108
sg20
I0
s(dp28
S'y'
I141
sS'x'
I1084
sg20
I0
s(dp29
g18
S'curve'
p30
sS'x'
I1035
sg20
I1
sS'y'
I141
s(dp31
g18
S'line'
p32
sS'x'
I356
sg20
I0
sS'y'
I141
s(dp33
g18
S'line'
p34
sS'x'
I356
sg20
I0
sS'y'
I665
s(dp35
g18
S'line'
p36
sS'x'
I975
sg20
I1
sS'y'
I665
s(dp37
S'y'
I665
sS'x'
I1024
sg20
I0
s(dp38
S'y'
I698
sS'x'
I1049
sg20
I0
s(dp39
g18
S'curve'
p40
sS'x'
I1049
sg20
I1
sS'y'
I734
s(dp41
S'y'
I770
sS'x'
I1049
sg20
I0
s(dp42
S'y'
I803
sS'x'
I1026
sg20
I0
s(dp43
g18
S'curve'
p44
sS'x'
I975
sg20
I1
sS'y'
I803
s(dp45
g18
S'line'
p46
sS'x'
I356
sg20
I0
sS'y'
I803
s(dp47
g18
S'line'
p48
sS'x'
I356
sg20
I0
sS'y'
I1285
s(dp49
g18
S'line'
p50
sS'x'
I1007
sg20
I1
sS'y'
I1285
s(dp51
S'y'
I1285
sS'x'
I1056
sg20
I0
s(dp52
S'y'
I1319
sS'x'
I1080
sg20
I0
s(dp53
g18
S'curve'
p54
sS'x'
I1080
sg20
I1
sS'y'
I1356
s(dp55
S'y'
I1392
sS'x'
I1080
sg20
I0
s(dp56
S'y'
I1426
sS'x'
I1056
sg20
I0
s(dp57
g18
S'curve'
p58
sS'x'
I1007
sg20
I1
sS'y'
I1426
s(dp59
g18
S'line'
p60
sS'x'
I261
sg20
I1
sS'y'
I1426
s(dp61
S'y'
I1426
sS'x'
I213
sg20
I0
s(dp62
S'y'
I1383
sS'x'
I178
sg20
I0
s(dp63
g18
S'curve'
p64
sS'x'
I178
sg20
I1
sS'y'
I1340
s(dp65
g18
S'line'
p66
sS'x'
I178
sg20
I1
sS'y'
I86
s(dp67
S'y'
I41
sS'x'
I178
sg20
I0
s(dp68
S'y'
I0
sS'x'
I222
sg20
I0
stp69
stp70
sg9
(tsg3
(tsssg13
S'Z'
s."
AnchorPoint: "top" 642 1438 basechar 0
LayerCount: 2
Fore
SplineSet
208 0 m 258
 1038 0 l 258
 1097 0 1126 47 1126 91 c 256
 1126 134 1097 180 1038 180 c 258
 356 180 l 257
 1108 1261 l 258
 1126 1287 1133 1312 1133 1337 c 256
 1133 1391 1093 1433 1029 1433 c 258
 187 1433 l 258
 128 1433 100 1387 100 1343 c 256
 100 1299 129 1252 187 1252 c 258
 862 1252 l 257
 112 172 l 258
 97 150 89 126 89 101 c 256
 89 48 125 0 208 0 c 258
EndSplineSet
EndChar

StartChar: a
Encoding: 97 97 133
Width: 1056
VWidth: 0
GlyphClass: 2
Flags: W
PickledData: "(dp1
S'b'
(dp2
sS'anchors'
p3
(tsS'lib'
p4
(dp5
sS'unicodes'
p6
(tsS'width'
p7
I1101
sS'contours'
p8
(tsS'components'
p9
(tsS'com.typemytype.robofont.layerData'
p10
(dp11
S'b'
(dp12
S'name'
p13
S'a'
sg4
(dp14
sg6
(tsg7
I1040
sg8
(tsg9
(tsg3
(tsssg13
S'a'
s."
AnchorPoint: "ogonek" 803 20 basechar 0
AnchorPoint: "top" 534 997 basechar 0
LayerCount: 2
Fore
SplineSet
421 -16 m 256
 598 -16 678 81 720 167 c 257
 720 93 l 258
 720 30.5 768.717 -0.505952 817.822 -0.505952 c 256
 867.711 -0.505952 918 31.5 918 95 c 258
 918 659 l 258
 918 912 754 1013 522 1013 c 256
 358 1013 241 976 154 929 c 256
 130.617 916.992 120.913 897.097 120.913 876.475 c 256
 120.913 839.331 152.396 799.832 192.131 799.832 c 256
 200.148 799.832 208.502 801.44 217 805 c 256
 288 835 388 878 515 878 c 256
 640 878 717 819 717 676 c 258
 717 578 l 257
 253 578 69 546 69 272 c 256
 69 81 222 -16 421 -16 c 256
441 116 m 256
 337.66 116 259.99 162.406 259.99 279.744 c 256
 259.99 438.309 353.739 463 716 463 c 257
 716 435 l 258
 716 243 580 116 441 116 c 256
EndSplineSet
EndChar

StartChar: acute
Encoding: 180 180 137
Width: 569
VWidth: 0
GlyphClass: 4
Flags: W
AnchorPoint: "top" 116 1040 mark 0
LayerCount: 2
Fore
SplineSet
101 1202 m 256
 116 1202 130 1208 145 1220 c 258
 459 1468 l 258
 479 1484 488 1504 488 1524 c 256
 488 1575 435 1623 385 1623 c 256
 359 1623 338 1608 319 1584 c 258
 69 1286 l 258
 59 1273 54 1260 54 1248 c 256
 54 1221 74 1202 101 1202 c 256
EndSplineSet
EndChar

StartChar: ae
Encoding: 230 230 139
Width: 1719
VWidth: 0
GlyphClass: 2
Flags: W
PickledData: "(dp1
S'com.typemytype.robofont.layerData'
p2
(dp3
S'b'
(dp4
S'name'
p5
S'ae'
p6
sS'lib'
p7
(dp8
sS'unicodes'
p9
(tsS'width'
p10
I1734
sS'contours'
p11
(tsS'components'
p12
(tsS'anchors'
p13
(tsss."
AnchorPoint: "top" 865 1003 basechar 0
LayerCount: 2
Fore
SplineSet
423 -26 m 256
 581 -26 746 36 821 188 c 257
 890 60 1005 -26 1170 -26 c 256
 1370 -26 1576 65 1576 166 c 256
 1576 198 1554 226 1521 226 c 256
 1510 226 1498 223 1484 214 c 256
 1415 172 1320 124 1215 124 c 256
 1010 124 936 270 933 460 c 257
 1550 460 l 258
 1596 460 1617 494 1617 528 c 256
 1611 810 1479 1024 1186 1024 c 256
 1039 1024 927 956 852 853 c 257
 798 971 689 1023 530 1023 c 256
 354 1023 219 978 148 888 c 256
 137 875 132 862 132 848 c 256
 132 814 160 783 196 783 c 256
 207 783 217 786 228 792 c 256
 308 836 385 873 521 873 c 256
 648 873 732 827 732 684 c 258
 732 610 l 257
 699 611 656 612 625 612 c 256
 287 612 66 521 66 275 c 256
 66 85 214 -26 423 -26 c 256
461 107 m 257
 349 110 259 166 259 285 c 256
 259 497 549 481 731 485 c 257
 731 399 l 257
 724 207 610 110 461 107 c 257
934 584 m 257
 946 750 1031 887 1188 887 c 256
 1345 887 1420 764 1432 584 c 257
 934 584 l 257
EndSplineSet
EndChar

StartChar: ampersand
Encoding: 38 38 144
Width: 1532
VWidth: 0
GlyphClass: 2
Flags: W
LayerCount: 2
Fore
SplineSet
647 -28 m 256
 849 -28 985 51 1099 176 c 257
 1247 17 l 258
 1266 -3 1286 -12 1307 -12 c 256
 1358 -12 1416 42 1416 94 c 256
 1416 113 1408 128 1392 147 c 257
 1240 309 l 257
 1355.84 498.738 1399.02 744.975 1399.02 854.661 c 256
 1399.02 905.66 1353.52 936 1309 936 c 256
 1269 936 1228 918 1221 870 c 257
 1216 726 1173 569 1110 440 c 257
 735 838 l 257
 877 941 998 1061 998 1231 c 256
 998 1418 861 1505 654 1506 c 256
 451 1506 261 1412 261 1223 c 256
 261 1079 354 967 454 862 c 257
 263 759 93 633 93 403 c 256
 93 128 320 -28 647 -28 c 256
648 137 m 256
 474 137 307 240 307 429 c 256
 307 549 420 648 576 730 c 257
 984 291 l 257
 903 201 792 137 648 137 c 256
614 958 m 257
 545 1027 461 1132 461 1225 c 256
 461 1323 547 1363 636 1363 c 256
 720 1363 806 1317 806 1225 c 256
 806 1113 696 1034 614 958 c 257
EndSplineSet
EndChar

StartChar: uni02BC
Encoding: 700 700 146
Width: 600
VWidth: 0
GlyphClass: 4
Flags: W
AnchorPoint: "top.2" 246 27 mark 0
LayerCount: 2
Fore
SplineSet
180 102 m 258
 245 102 l 258
 246.104 101.962 247.188 101.943 248.252 101.943 c 256
 275.138 101.943 289.457 114.218 301 145 c 258
 467 625 l 258
 468.488 629.167 469.799 635.549 469.799 642.537 c 256
 469.799 659.027 462.499 678.893 433 681 c 257
 313 681 l 257
 281 680 248 672 240 625 c 258
 156 145 l 258
 155.484 141.902 154.967 137.603 154.967 132.914 c 256
 154.967 119.441 159.23 102.742 180 102 c 258
EndSplineSet
EndChar

StartChar: approxequal
Encoding: 8776 8776 147
Width: 1190
VWidth: 0
GlyphClass: 2
Flags: W
LayerCount: 2
Fore
SplineSet
804 289 m 256
 900 289 981 355 981 480 c 256
 981 519 944 546 911 546 c 256
 822 546 848 451 796 451 c 256
 735 451 465 546 350 546 c 256
 278 546 168 494 168 355 c 256
 168 319 197 292 234 292 c 256
 249 292 265 293 277 303 c 256
 331 343 320 385 370 385 c 256
 437 380 699 289 804 289 c 256
804 672 m 256
 900 672 981 737 981 863 c 256
 981 902 944 929 911 929 c 256
 822 929 848 833 796 833 c 256
 735 833 465 929 350 929 c 256
 278 929 168 876 168 737 c 256
 168 702 197 675 234 675 c 256
 249 675 265 676 277 685 c 256
 331 726 320 768 370 768 c 256
 437 764 699 672 804 672 c 256
EndSplineSet
EndChar

StartChar: asciicircum
Encoding: 94 94 149
Width: 1325
VWidth: 0
GlyphClass: 2
Flags: W
LayerCount: 2
Fore
SplineSet
258 504 m 256
 290 504 318 525 336 565 c 257
 666 1230 l 257
 995 565 l 258
 1014 527 1039 505 1072 505 c 256
 1114 505 1152 536 1152 579 c 256
 1152 592 1146 609 1139 624 c 258
 772 1343 l 258
 746 1393 711 1420 666 1420 c 256
 620 1420 584 1389 561 1343 c 258
 192 624 l 258
 185 609 179 592 179 579 c 256
 179 533 217 504 258 504 c 256
EndSplineSet
EndChar

StartChar: asciitilde
Encoding: 126 126 150
Width: 1326
VWidth: 0
GlyphClass: 2
Flags: W
LayerCount: 2
Fore
SplineSet
773 1168 m 256
 870 1168 923 1219 948 1307 c 256
 949.142 1311.98 949.678 1316.83 949.678 1321.52 c 256
 949.678 1353.39 924.843 1377.36 896.877 1377.36 c 256
 878.561 1377.36 858.903 1367.08 844 1342 c 256
 828 1316 807 1301 781 1301 c 256
 716 1301 624 1378 521 1378 c 256
 431 1378 376 1331 345 1244 c 256
 342.262 1236.24 341.021 1229.02 341.021 1222.38 c 256
 341.021 1191.82 367.367 1173.78 395.089 1173.78 c 256
 414.095 1173.78 433.748 1182.26 446 1201 c 256
 467 1233 492 1246 522 1246 c 256
 591 1246 684 1168 773 1168 c 256
EndSplineSet
EndChar

StartChar: asterisk
Encoding: 42 42 151
Width: 1064
VWidth: 0
GlyphClass: 2
Flags: W
LayerCount: 2
Fore
SplineSet
425 790 m 258
 530 981 l 257
 637 790 l 258
 651.52 763.17 672.616 752.082 693.18 752.082 c 256
 726.654 752.082 758.718 781.46 758.718 820.142 c 256
 758.718 832.981 755.186 846.845 747 861 c 258
 637 1038 l 257
 864 1031 l 257
 908.5 1031 930.75 1063 930.75 1095 c 256
 930.75 1127 908.5 1159 864 1159 c 257
 639 1151 l 257
 752 1335 l 258
 759.167 1347.17 762.306 1359.56 762.306 1371.34 c 256
 762.306 1407.97 731.962 1438.74 697.991 1438.74 c 256
 677.333 1438.74 655.333 1427.36 638 1399 c 257
 530 1204 l 257
 422 1402 l 258
 407.694 1427.5 386.907 1438.01 366.498 1438.01 c 256
 332.4 1438.01 299.358 1408.68 299.358 1370.9 c 256
 299.358 1358.59 302.87 1345.38 311 1332 c 258
 422 1151 l 257
 200 1159 l 257
 155.626 1159 133.624 1127.18 133.624 1095.27 c 256
 133.624 1063.18 155.876 1031 200 1031 c 257
 425 1038 l 257
 311 855 l 258
 303.381 842.743 300.069 830.377 300.069 818.669 c 256
 300.069 781.898 332.736 751.619 367.245 751.619 c 256
 388.089 751.619 409.605 762.665 425 790 c 258
EndSplineSet
EndChar

StartChar: at
Encoding: 64 64 152
Width: 1638
VWidth: 0
GlyphClass: 2
Flags: W
LayerCount: 2
Fore
SplineSet
808 -26 m 256
 911 -26 1018 -10 1128 23 c 256
 1155 31 1168 54 1168 77 c 256
 1168 106 1147 135 1109 135 c 256
 1100 135 1091 134 1083 131 c 256
 996 104 909 92 825 92 c 256
 489 92 199 302 199 724 c 256
 199 1148 564 1389 895 1389 c 256
 1166 1389 1413 1226 1413 866 c 256
 1413 639 1273 422 1128 422 c 256
 1089 422 1075 441 1075 473 c 256
 1075 501 1085 538 1099 584 c 258
 1244 1057 l 258
 1246 1066 1247 1074 1247 1082 c 256
 1247 1121 1215 1141 1181 1141 c 256
 1147 1141 1116 1123 1104 1086 c 258
 1095 1057 l 257
 1050 1145 959 1188 863 1188 c 256
 571 1188 381 886 381 618 c 256
 381 444 491 299 676 299 c 256
 784 299 872 344 935 426 c 257
 946 340 1026 301 1097 301 c 256
 1305 301 1555 549 1555 874 c 256
 1555 1309 1235 1511 892 1511 c 256
 490 1511 54 1235 54 735 c 256
 54 257 378 -26 808 -26 c 256
715 430 m 256
 600.222 430 552.948 514.891 552.948 634.479 c 256
 552.948 819.5 679.199 1053 867 1053 c 256
 1001 1053 1056 927 1056 927 c 257
 964 610 l 257
 932 506 824 430 715 430 c 256
EndSplineSet
EndChar

StartChar: b
Encoding: 98 98 154
Width: 1199
VWidth: 0
GlyphClass: 2
Flags: W
PickledData: "(dp1
S'b'
(dp2
sS'anchors'
p3
(tsS'lib'
p4
(dp5
sS'unicodes'
p6
(tsS'width'
p7
I1203
sS'contours'
p8
(tsS'components'
p9
(tsS'com.typemytype.robofont.layerData'
p10
(dp11
S'b'
(dp12
S'name'
p13
S'b'
sg4
(dp14
sg6
(tsg7
I1181
sg8
((dp15
S'points'
p16
((dp17
S'segmentType'
p18
S'curve'
p19
sS'x'
I238
sS'smooth'
p20
I1
sS'y'
I1425
s(dp21
S'y'
I1425
sS'x'
I198
sg20
I0
s(dp22
S'y'
I1400
sS'x'
I158
sg20
I0
s(dp23
g18
S'curve'
p24
sS'x'
I158
sg20
I1
sS'y'
I1351
s(dp25
g18
S'line'
p26
sS'x'
I158
sg20
I1
sS'y'
I76
s(dp27
S'y'
I27
sS'x'
I158
sg20
I0
s(dp28
S'y'
I3
sS'x'
I197
sg20
I0
s(dp29
g18
S'curve'
p30
sS'x'
I237
sg20
I1
sS'y'
I3
s(dp31
S'y'
I3
sS'x'
I297
sg20
I0
s(dp32
S'y'
I38
sS'x'
I318
sg20
I0
s(dp33
g18
S'curve'
p34
sS'x'
I318
sg20
I1
sS'y'
I76
s(dp35
g18
S'line'
p36
sS'x'
I318
sg20
I0
sS'y'
I183
s(dp37
S'y'
I46
sS'x'
I384
sg20
I0
s(dp38
S'y'
S'-20'
p39
sS'x'
I516
sg20
I0
s(dp40
g18
S'curve'
p41
sS'x'
I666
sg20
I1
sS'y'
S'-20'
p42
s(dp43
S'y'
S'-20'
p44
sS'x'
I957
sg20
I0
s(dp45
S'y'
I225
sS'x'
I1095
sg20
I0
s(dp46
g18
S'curve'
p47
sS'x'
I1095
sg20
I1
sS'y'
I502
s(dp48
S'y'
I777
sS'x'
I1095
sg20
I0
s(dp49
S'y'
I1013
sS'x'
I939
sg20
I0
s(dp50
g18
S'curve'
p51
sS'x'
I650
sg20
I1
sS'y'
I1013
s(dp52
S'y'
I1013
sS'x'
I503
sg20
I0
s(dp53
S'y'
I942
sS'x'
I376
sg20
I0
s(dp54
g18
S'curve'
p55
sS'x'
I318
sg20
I0
sS'y'
I814
s(dp56
g18
S'line'
p57
sS'x'
I318
sg20
I1
sS'y'
I1351
s(dp58
S'y'
I1400
sS'x'
I318
sg20
I0
s(dp59
S'y'
I1425
sS'x'
I278
sg20
I0
stp60
s(dp61
g16
((dp62
g18
S'curve'
p63
sS'x'
I632
sg20
I1
sS'y'
I903
s(dp64
S'y'
I903
sS'x'
I859
sg20
I0
s(dp65
S'y'
I685
sS'x'
I935
sg20
I0
s(dp66
g18
S'curve'
p67
sS'x'
I935
sg20
I1
sS'y'
I496
s(dp68
S'y'
I316
sS'x'
I935
sg20
I0
s(dp69
S'y'
I93
sS'x'
I869
sg20
I0
s(dp70
g18
S'curve'
p71
sS'x'
I645
sg20
I0
sS'y'
I90
s(dp72
S'y'
I90
sS'x'
I395
sg20
I0
s(dp73
S'y'
I279
sS'x'
I319
sg20
I0
s(dp74
g18
S'curve'
p75
sS'x'
I319
sg20
I1
sS'y'
I501
s(dp76
S'y'
I701
sS'x'
I319
sg20
I0
s(dp77
S'y'
I903
sS'x'
I407
sg20
I0
stp78
stp79
sg9
(tsg3
(tsssg13
S'b'
s."
LayerCount: 2
Fore
SplineSet
685 -16 m 256
 970 -16 1116 229 1116 505 c 256
 1116 797 951 1013 670 1013 c 256
 524 1013 411 953 347 838 c 257
 347 1338 l 258
 347 1401 297 1432 246 1432 c 256
 196 1432 146 1401 146 1338 c 258
 146 97 l 258
 146 34 197 1 247 1 c 256
 310 1 347 34 347 97 c 258
 347 168 l 257
 415 42 536 -16 685 -16 c 256
644 121 m 256
 418 121 348 278 348 502 c 256
 348 689 427 876 637 876 c 256
 848 876 915 675 915 502 c 256
 915 338 854 123 644 121 c 256
EndSplineSet
EndChar

StartChar: backslash
Encoding: 92 92 155
Width: 609
VWidth: 0
GlyphClass: 2
Flags: W
LayerCount: 2
Fore
SplineSet
545 -96 m 256
 585 -96 623 -69 623 -24 c 256
 623 -15 622 -5 619 6 c 258
 141 1446 l 258
 128 1484 96 1501 64 1501 c 256
 25 1501 -15 1474 -15 1428 c 256
 -15 1419 -13 1409 -9 1397 c 258
 471 -42 l 258
 484 -80 514 -96 545 -96 c 256
EndSplineSet
EndChar

StartChar: bar
Encoding: 124 124 156
Width: 455
VWidth: 0
GlyphClass: 2
Flags: W
LayerCount: 2
Fore
SplineSet
227 -396 m 256
 266 -396 305 -370 305 -318 c 258
 305 1405 l 258
 305 1457 267 1482 228 1482 c 256
 189 1482 150 1457 150 1405 c 258
 150 -318 l 258
 150 -370 188 -396 227 -396 c 256
EndSplineSet
EndChar

StartChar: braceleft
Encoding: 123 123 157
Width: 661
VWidth: 0
GlyphClass: 2
Flags: W
LayerCount: 2
Fore
SplineSet
442 -218 m 258
 569 -218 l 258
 618 -218 639 -184 641 -145 c 256
 641 -99 617 -65 570 -65 c 258
 517 -65 l 258
 448 -65 430 -4 430 101 c 258
 430 361 l 258
 430 545 309 615 276 628 c 257
 313 643 430 688 430 904 c 258
 430 1157 l 258
 430 1265 449 1325 516 1325 c 258
 566 1325 l 258
 615 1325 640 1359 640 1402 c 256
 640 1451 610 1479 566 1479 c 258
 442 1479 l 258
 324 1479 231 1375 231 1245 c 258
 231 942 l 258
 231 799 207 721 93 709 c 256
 38 707 12 671 12 628 c 256
 12 581 43 548 93 547 c 257
 210 535 231 454 231 317 c 258
 231 13 l 258
 231 -129 337 -218 442 -218 c 258
EndSplineSet
EndChar

StartChar: braceright
Encoding: 125 125 158
Width: 661
VWidth: 0
GlyphClass: 2
Flags: W
LayerCount: 2
Fore
SplineSet
90 -218 m 258
 218 -218 l 258
 331 -218 427 -119 427 16 c 258
 427 317 l 258
 427 458 451 536 570 547 c 257
 620 547 647 587 647 628 c 256
 647 676 614 708 566 709 c 256
 449 721 427 802 427 942 c 258
 427 1248 l 258
 427 1389 321 1479 218 1479 c 258
 90 1479 l 258
 41 1479 18 1443 18 1403 c 256
 18 1356 47 1325 93 1325 c 258
 143 1325 l 258
 210 1325 228 1261 228 1160 c 258
 228 898 l 258
 228 715 358 653 382 628 c 257
 345 612 228 542 228 361 c 258
 228 95 l 258
 228 -8 208 -65 145 -65 c 258
 90 -65 l 258
 40 -65 18 -102 18 -142 c 256
 18 -186 44 -218 90 -218 c 258
EndSplineSet
EndChar

StartChar: bracketleft
Encoding: 91 91 159
Width: 657
VWidth: 0
GlyphClass: 2
Flags: W
LayerCount: 2
Fore
SplineSet
271 -212 m 258
 477 -212 l 257
 527 -210 552 -173 552 -135 c 256
 552 -98 527 -61 477 -61 c 258
 368 -61 l 257
 368 1283 l 257
 477 1283 l 258
 526 1283 552 1321 552 1358 c 256
 552 1397 527 1433 477 1433 c 258
 271 1433 l 258
 214 1433 172 1388 172 1335 c 258
 172 -115 l 258
 172 -168 214 -212 271 -212 c 258
EndSplineSet
EndChar

StartChar: bracketright
Encoding: 93 93 160
Width: 657
VWidth: 0
GlyphClass: 2
Flags: W
LayerCount: 2
Fore
SplineSet
179 -212 m 257
 386 -212 l 258
 441 -212 485 -168 485 -115 c 258
 485 1335 l 258
 485 1388 441 1433 386 1433 c 258
 179 1433 l 258
 129 1433 105 1397 105 1358 c 256
 105 1321 130 1283 179 1283 c 258
 288 1283 l 257
 288 -61 l 257
 179 -61 l 258
 130 -61 105 -98 105 -135 c 256
 105 -173 129 -210 179 -212 c 257
EndSplineSet
EndChar

StartChar: breve
Encoding: 728 728 161
Width: 569
VWidth: 0
GlyphClass: 4
Flags: W
AnchorPoint: "top" 285 1040 mark 0
LayerCount: 2
Fore
SplineSet
285 1231 m 256
 418 1231 520 1290 565 1393 c 256
 571 1405 572 1415 573 1425 c 256
 573 1460 544 1481 513 1481 c 256
 489 1481 468 1470 453 1447 c 256
 411 1387 370 1365 285 1365 c 256
 199 1365 158 1387 117 1447 c 256
 103 1470 80 1481 57 1481 c 256
 26 1481 -3 1460 -3 1425 c 256
 -3 1415 0 1404 5 1393 c 256
 50 1290 152 1231 285 1231 c 256
EndSplineSet
EndChar

StartChar: uni0311
Encoding: 785 785 162
Width: 569
VWidth: 0
GlyphClass: 4
Flags: W
AnchorPoint: "top" 286 1040 mark 0
LayerCount: 2
Fore
SplineSet
47 1259 m 256
 68 1259 85 1268 99 1288 c 256
 145 1353 190 1377 285 1377 c 256
 380 1377 423 1353 471 1288 c 256
 485 1268 502 1259 523 1259 c 256
 552 1259 576 1277 576 1307 c 256
 576 1315 574 1324 570 1334 c 256
 524 1437 422 1498 285 1498 c 256
 148 1498 46 1437 0 1334 c 256
 -4 1324 -6 1315 -6 1307 c 256
 -6 1277 18 1259 47 1259 c 256
EndSplineSet
EndChar

StartChar: brokenbar
Encoding: 166 166 163
Width: 455
VWidth: 0
GlyphClass: 2
Flags: W
LayerCount: 2
Fore
SplineSet
221 -74 m 256
 268 -74 299 -39 299 11 c 258
 299 563 l 258
 299 618 267 649 222 649 c 256
 181 649 145 620 145 572 c 258
 145 11 l 258
 145 -43 177 -74 221 -74 c 256
223 827 m 256
 269 827 300 861 300 912 c 258
 300 1451 l 258
 300 1504 268 1536 224 1536 c 256
 182 1536 146 1509 146 1458 c 258
 146 912 l 258
 146 857 178 827 223 827 c 256
EndSplineSet
EndChar

StartChar: bullet
Encoding: 8226 8226 164
Width: 1024
VWidth: 0
GlyphClass: 2
Flags: W
LayerCount: 2
Fore
SplineSet
511 358 m 256
 716 358 882 521 882 715 c 256
 882 913 716 1073 511 1073 c 256
 308 1073 142 913 142 715 c 256
 142 521 308 358 511 358 c 256
EndSplineSet
EndChar

StartChar: c
Encoding: 99 99 165
Width: 962
VWidth: 0
GlyphClass: 2
Flags: W
PickledData: "(dp1
S'b'
(dp2
sS'anchors'
p3
(tsS'lib'
p4
(dp5
sS'unicodes'
p6
(tsS'width'
p7
I992
sS'contours'
p8
(tsS'components'
p9
(tsS'com.typemytype.robofont.layerData'
p10
(dp11
S'b'
(dp12
S'name'
p13
S'c'
sg4
(dp14
sg6
(tsg7
F956.14099999999996
sg8
(tsg9
(tsg3
(tsssg13
S'c'
s."
AnchorPoint: "bot" 529 4 basechar 0
AnchorPoint: "top" 571 1008 basechar 0
LayerCount: 2
Fore
SplineSet
565 -16 m 256
 716 -16 816 27 870 72 c 256
 894.971 93.0118 905.197 116.249 905.197 136.94 c 256
 905.197 170.373 878.497 197.156 844.158 197.156 c 256
 829.962 197.156 814.46 192.578 799 182 c 256
 745 144 670 121 580 121 c 256
 383 121 284 292 284 498 c 256
 284 727 404 877 590 877 c 256
 657 877 727 858 783 824 c 256
 797.857 815.349 812.609 811.579 826.196 811.579 c 256
 862.19 811.579 890.017 838.035 890.017 870.298 c 256
 890.017 890.615 878.981 913.235 852 933 c 256
 801 972 704 1013 577 1013 c 256
 276 1013 83 782 83 499 c 256
 83 214 265 -16 565 -16 c 256
EndSplineSet
EndChar

StartChar: caron
Encoding: 711 711 167
Width: 569
VWidth: 0
GlyphClass: 4
Flags: W
AnchorPoint: "top" 288 1040 mark 0
LayerCount: 2
Fore
SplineSet
284 1117 m 256
 317 1117 351 1134 378 1171 c 258
 568 1432 l 258
 580 1449 586 1465 586 1481 c 256
 586 1517 557 1543 522 1543 c 256
 498 1543 473 1531 451 1502 c 258
 284 1278 l 257
 117 1502 l 258
 95 1532 68 1543 44 1543 c 256
 8 1543 -21 1518 -21 1483 c 256
 -21 1467 -15 1451 -1 1433 c 258
 189 1171 l 257
 216 1136 250 1117 284 1117 c 256
EndSplineSet
EndChar

StartChar: caron.alt
Encoding: 65536 -1 168
Width: 617
VWidth: 0
GlyphClass: 4
Flags: W
AnchorPoint: "caron.alt" -23 306 mark 0
LayerCount: 2
Fore
SplineSet
272 301 m 258
 327 301 l 258
 328.104 300.962 329.189 300.943 330.256 300.943 c 256
 357.211 300.943 372.419 313.218 383 344 c 258
 528 758 l 258
 529.488 762.167 530.799 768.549 530.799 775.537 c 256
 530.799 792.027 523.499 811.893 494 814 c 257
 391 814 l 257
 359 813 326 805 318 758 c 258
 248 344 l 258
 247.484 340.902 246.967 336.603 246.967 331.914 c 256
 246.967 318.441 251.23 301.742 272 301 c 258
EndSplineSet
EndChar

StartChar: cedilla
Encoding: 184 184 173
Width: 569
VWidth: 0
GlyphClass: 4
Flags: W
AnchorPoint: "bot" 281 0 mark 0
LayerCount: 2
Fore
SplineSet
291 -408 m 256
 393 -408 496 -359 497 -254 c 256
 497 -140 411 -106 316 -105 c 256
 305 -105 293 -106 279 -106 c 257
 317 6 l 257
 244 6 l 257
 196 -125 l 258
 193 -133 191 -140 191 -146 c 256
 191 -166 205 -179 233 -179 c 256
 239 -179 245 -178 251 -177 c 256
 303 -177 358 -196 358 -249 c 256
 358 -300 333 -330 260 -330 c 256
 203 -330 150 -313 101 -296 c 256
 96 -294 92 -293 89 -293 c 256
 69 -293 57 -312 57 -331 c 256
 57 -380 180 -408 291 -408 c 256
EndSplineSet
EndChar

StartChar: cent
Encoding: 162 162 174
Width: 1039
VWidth: 0
GlyphClass: 2
Flags: W
PickledData: "(dp1
S'com.typemytype.robofont.layerData'
p2
(dp3
S'b'
(dp4
S'name'
p5
S'cent'
p6
sS'lib'
p7
(dp8
sS'unicodes'
p9
(tsS'width'
p10
I1046
sS'contours'
p11
(tsS'components'
p12
(tsS'anchors'
p13
(tsss."
LayerCount: 2
Fore
SplineSet
563 -267 m 256
 593 -267 622 -247 622 -207 c 258
 622 56 l 257
 503 56 l 257
 503 -207 l 258
 503 -246 533 -267 563 -267 c 256
503 953 m 257
 622 953 l 257
 622 1216 l 258
 622 1256 593 1276 563 1276 c 256
 533 1276 503 1255 503 1216 c 258
 503 953 l 257
EndSplineSet
Refer: 165 99 N 1 0 0 1 0 0 2
EndChar

StartChar: circumflex
Encoding: 710 710 175
Width: 569
VWidth: 0
GlyphClass: 4
Flags: W
AnchorPoint: "top" 294 1040 mark 0
LayerCount: 2
Fore
SplineSet
44 1142 m 256
 67 1142 95 1154 118 1183 c 257
 286 1407 l 257
 452 1183 l 258
 474 1154 501 1143 525 1143 c 256
 560 1143 588 1169 588 1203 c 256
 588 1219 582 1234 569 1253 c 258
 380 1514 l 257
 350 1551 318 1568 285 1568 c 256
 250 1568 218 1550 190 1514 c 257
 0 1252 l 258
 -13.0051 1235.28 -19.1068 1220.28 -19.1068 1204.61 c 256
 -19.1068 1168.14 5.80479 1142 44 1142 c 256
EndSplineSet
EndChar

StartChar: colon
Encoding: 58 58 176
Width: 602
VWidth: 0
GlyphClass: 2
Flags: W
LayerCount: 2
Fore
SplineSet
301 -2 m 256
 377 -2 425 53 425 114 c 256
 425 176 375 230 301 230 c 256
 224 230 176 173 176 114 c 256
 176 52 226 -2 301 -2 c 256
301 783 m 256
 378 783 425 837 425 898 c 256
 425 961 375 1015 301 1015 c 256
 224 1015 176 959 176 898 c 256
 176 834 226 783 301 783 c 256
EndSplineSet
EndChar

StartChar: comma
Encoding: 44 44 177
Width: 602
VWidth: 0
GlyphClass: 2
Flags: W
PickledData: "(dp1
S'b'
(dp2
sS'anchors'
p3
(tsS'lib'
p4
(dp5
sS'unicodes'
p6
(tsS'width'
p7
I615
sS'contours'
p8
(tsS'components'
p9
(tsS'com.typemytype.robofont.layerData'
p10
(dp11
S'b'
(dp12
S'name'
p13
S'comma'
p14
sg4
(dp15
sg6
(tsg7
I584
sg8
(tsg9
(tsg3
(tsssg13
S'comma'
p16
s."
LayerCount: 2
Fore
SplineSet
151 -330 m 258
 216 -330 l 258
 217.104 -330.038 218.189 -330.057 219.256 -330.057 c 256
 246.211 -330.057 261.419 -317.782 272 -287 c 258
 438 193 l 258
 439.488 197.167 440.799 203.549 440.799 210.537 c 256
 440.799 227.027 433.499 246.893 404 249 c 257
 284 249 l 257
 252 248 219 240 211 193 c 258
 127 -287 l 258
 126.484 -290.098 125.967 -294.397 125.967 -299.086 c 256
 125.967 -312.559 130.23 -329.258 151 -330 c 258
EndSplineSet
EndChar

StartChar: uni0326
Encoding: 806 806 178
Width: 602
VWidth: 0
GlyphClass: 4
Flags: W
PickledData: "(dp1
S'b'
(dp2
sS'anchors'
p3
(tsS'lib'
p4
(dp5
sS'unicodes'
p6
(tsS'width'
p7
I615
sS'contours'
p8
(tsS'components'
p9
(tsS'com.typemytype.robofont.layerData'
p10
(dp11
S'b'
(dp12
S'name'
p13
S'uni0326'
p14
sg4
(dp15
sg6
(tsg7
I584
sg8
(tsg9
(tsg3
(tsssg13
S'uni0326'
p16
s."
AnchorPoint: "bot" 323 0 mark 0
LayerCount: 2
Fore
SplineSet
152 -617 m 258
 207 -617 l 258
 208.104 -617.038 209.189 -617.057 210.256 -617.057 c 256
 237.211 -617.057 252.419 -604.782 263 -574 c 258
 408 -160 l 258
 409.488 -155.833 410.799 -149.451 410.799 -142.463 c 256
 410.799 -125.973 403.499 -106.107 374 -104 c 257
 271 -104 l 257
 239 -105 206 -113 198 -160 c 258
 128 -574 l 258
 127.484 -577.098 126.967 -581.397 126.967 -586.086 c 256
 126.967 -599.559 131.23 -616.258 152 -617 c 258
EndSplineSet
EndChar

StartChar: uni0312
Encoding: 786 786 179
Width: 600
VWidth: 0
GlyphClass: 4
Flags: W
AnchorPoint: "top" 281 991 mark 0
LayerCount: 2
Fore
SplineSet
218 1206 m 257
 338 1206 l 257
 370 1207 403 1215 411 1262 c 258
 495 1741 l 258
 495.516 1744.1 496.033 1748.4 496.033 1753.09 c 256
 496.033 1766.56 491.77 1783.26 471 1784 c 258
 406 1784 l 258
 404.896 1784.04 403.812 1784.06 402.748 1784.06 c 256
 375.862 1784.06 361.543 1771.78 350 1741 c 258
 184 1262 l 258
 182.512 1257.83 181.201 1251.45 181.201 1244.46 c 256
 181.201 1227.97 188.501 1208.11 218 1206 c 257
EndSplineSet
EndChar

StartChar: copyright
Encoding: 169 169 180
Width: 1676
VWidth: 0
GlyphClass: 2
Flags: W
LayerCount: 2
Fore
SplineSet
856 392 m 256
 938 392 1116 428 1116 503 c 256
 1116 529 1097 551 1073 551 c 256
 1066 551 1059 549 1053 546 c 256
 994 516 937 499 877 499 c 256
 731 499 603 599 603 791 c 256
 603 988 724 1071 868 1071 c 256
 929 1071 997 1055 1057 1024 c 256
 1065 1021 1072 1019 1077 1019 c 256
 1106 1019 1125 1047 1125 1075 c 256
 1125 1145 931 1179 855 1179 c 256
 651 1179 469 1049 469 789 c 256
 469 527 656 392 856 392 c 256
847 231 m 256
 516 231 274 465 274 784 c 256
 274 1101 516 1336 847 1336 c 256
 1174 1336 1416 1101 1416 784 c 256
 1416 465 1174 231 847 231 c 256
847 111 m 256
 1233 111 1547 413 1547 784 c 256
 1547 1154 1233 1457 847 1457 c 256
 458 1457 143 1154 143 784 c 256
 143 413 458 111 847 111 c 256
EndSplineSet
EndChar

StartChar: currency
Encoding: 164 164 181
Width: 1187
VWidth: 0
GlyphClass: 2
Flags: W
LayerCount: 2
Fore
SplineSet
214 158 m 256
 227 158 240 163 252 176 c 258
 339 263 l 257
 407 215 493 187 599 187 c 256
 706 187 792 215 860 264 c 257
 947 176 l 258
 959 164 971 158 984 158 c 256
 1015 158 1042 184 1042 215 c 256
 1042 229 1037 242 1025 254 c 258
 940 338 l 257
 1000 414 1030 508 1030 604 c 256
 1030 698 1002 791 942 867 c 257
 1025 948 l 258
 1037 960 1042 975 1042 987 c 256
 1042 1017 1016 1043 986 1043 c 256
 972 1043 959 1038 946 1026 c 258
 864 943 l 257
 796 993 708 1023 599 1023 c 256
 489 1023 402 992 334 943 c 257
 252 1026 l 258
 240 1038 227 1043 213 1043 c 256
 184 1043 158 1017 158 987 c 256
 158 973 163 960 175 948 c 258
 256 867 l 257
 198 791 169 699 169 604 c 256
 169 508 198 414 259 338 c 257
 175 254 l 258
 163 242 158 229 158 215 c 256
 158 185 184 158 214 158 c 256
599 295 m 256
 399 295 299 450 299 604 c 256
 299 759 399 915 599 915 c 256
 799 915 899 759 899 604 c 256
 899 450 799 295 599 295 c 256
EndSplineSet
EndChar

StartChar: d
Encoding: 100 100 182
Width: 1199
VWidth: 0
GlyphClass: 2
Flags: W
PickledData: "(dp1
S'b'
(dp2
sS'anchors'
p3
(tsS'lib'
p4
(dp5
sS'unicodes'
p6
(tsS'width'
p7
I1207
sS'contours'
p8
(tsS'components'
p9
(tsS'com.typemytype.robofont.layerData'
p10
(dp11
S'b'
(dp12
S'name'
p13
S'd'
sg4
(dp14
sg6
(tsg7
I1181
sg8
(tsg9
(tsg3
(tsssg13
S'd'
s."
AnchorPoint: "mid" 897 1184 basechar 0
AnchorPoint: "caron.alt" 938 1018 basechar 0
LayerCount: 2
Fore
SplineSet
514 -16 m 256
 663 -16 784 42 852 168 c 257
 852 97 l 258
 852 34 889 1 952 1 c 256
 1002 1 1053 34 1053 97 c 258
 1053 1338 l 258
 1053 1401 1003 1432 953 1432 c 256
 902 1432 852 1401 852 1338 c 258
 852 838 l 257
 788 953 675 1013 529 1013 c 256
 248 1013 83 797 83 505 c 256
 83 229 229 -16 514 -16 c 256
555 121 m 256
 344 123 284 338 284 502 c 256
 284 675 351 876 562 876 c 256
 772 876 851 689 851 502 c 256
 851 278 781 121 555 121 c 256
EndSplineSet
EndChar

StartChar: dagger
Encoding: 8224 8224 183
Width: 1203
VWidth: 0
GlyphClass: 2
Flags: W
LayerCount: 2
Fore
SplineSet
601 1 m 256
 648 1 695 31 695 91 c 258
 695 965 l 257
 963 965 l 258
 1015 965 1040 1004 1040 1046 c 256
 1040 1085 1015 1125 963 1125 c 258
 695 1125 l 257
 695 1386 l 258
 695 1446 648 1477 601 1477 c 256
 555 1477 509 1447 509 1386 c 258
 509 1125 l 257
 235 1125 l 258
 186 1125 160 1085 160 1044 c 256
 160 1003 186 965 235 965 c 258
 509 965 l 257
 509 91 l 258
 509 31 555 1 601 1 c 256
EndSplineSet
EndChar

StartChar: daggerdbl
Encoding: 8225 8225 184
Width: 1203
VWidth: 0
GlyphClass: 2
Flags: W
LayerCount: 2
Fore
SplineSet
601 0 m 256
 647 0 692 30 692 90 c 258
 692 336 l 257
 961 336 l 258
 1013 336 1040 375 1040 414 c 256
 1040 453 1013 491 961 491 c 258
 692 491 l 257
 692 982 l 257
 961 982 l 258
 1013 982 1040 1021 1040 1060 c 256
 1040 1099 1013 1138 961 1138 c 258
 692 1138 l 257
 692 1386 l 258
 692 1447 647 1477 601 1477 c 256
 556 1477 511 1447 511 1386 c 258
 511 1138 l 257
 238 1138 l 258
 187 1138 161 1098 161 1059 c 256
 161 1021 186 982 238 982 c 258
 511 982 l 257
 511 491 l 257
 238 491 l 258
 187 491 161 452 161 413 c 256
 161 375 186 336 238 336 c 258
 511 336 l 257
 511 90 l 258
 511 30 556 0 601 0 c 256
EndSplineSet
EndChar

StartChar: uni030F
Encoding: 783 783 185
Width: 569
VWidth: 0
GlyphClass: 4
Flags: W
AnchorPoint: "top" 487 1057 mark 0
LayerCount: 2
Fore
SplineSet
289 1168 m 256
 315 1168 335 1188 335 1213 c 256
 334 1227 330 1239 320 1252 c 258
 70 1548 l 258
 49 1574 29 1587 3 1587 c 256
 -46 1587 -101 1540 -101 1489 c 256
 -101 1470 -93 1451 -75 1437 c 258
 238 1189 l 258
 255 1175 274 1168 289 1168 c 256
639 1168 m 256
 666 1168 684 1187 685 1211 c 256
 684 1226 680 1238 670 1251 c 258
 422 1547 l 258
 399 1573 379 1587 353 1587 c 256
 302 1587 249 1538 249 1489 c 256
 249 1470 257 1451 275 1437 c 258
 585 1192 l 258
 603 1177 623 1168 639 1168 c 256
EndSplineSet
EndChar

StartChar: degree
Encoding: 176 176 188
Width: 819
VWidth: 0
GlyphClass: 2
Flags: W
LayerCount: 2
Fore
SplineSet
410 936 m 256
 298 936 217 1014 217 1123 c 256
 217 1228 297 1310 409 1310 c 256
 519 1310 603 1228 603 1123 c 256
 603 1014 519 936 410 936 c 256
410 829 m 256
 576 829 714 960 714 1123 c 256
 714 1285 576 1417 410 1417 c 256
 240 1417 106 1285 106 1123 c 256
 106 960 242 829 410 829 c 256
EndSplineSet
EndChar

StartChar: dieresis
Encoding: 168 168 189
Width: 569
VWidth: 0
GlyphClass: 4
Flags: W
AnchorPoint: "top" 287 1040 mark 0
LayerCount: 2
Fore
SplineSet
85 1198 m 256
 155 1198 201 1249 201 1306 c 256
 201 1363 155 1413 85 1413 c 256
 14 1413 -31 1362 -31 1306 c 256
 -31 1248 16 1198 85 1198 c 256
485 1198 m 256
 555 1198 601 1249 601 1306 c 256
 601 1363 554 1413 485 1413 c 256
 413 1413 369 1361 369 1306 c 256
 369 1248 416 1198 485 1198 c 256
EndSplineSet
EndChar

StartChar: divide
Encoding: 247 247 190
Width: 1326
VWidth: 0
GlyphClass: 2
Flags: W
LayerCount: 2
Fore
SplineSet
211 438 m 258
 1124 438 l 258
 1172 438 1196 475 1196 515 c 256
 1196 555 1172 593 1124 593 c 258
 211 593 l 258
 162 593 138 555 138 515 c 256
 138 475 162 438 211 438 c 258
664 -20 m 256
 735 -20 776 30 776 85 c 256
 776 138 735 189 664 189 c 256
 593 189 551 138 551 85 c 256
 551 30 592 -20 664 -20 c 256
664 842 m 256
 735 842 776 892 776 946 c 256
 776 1000 735 1050 664 1050 c 256
 593 1050 551 1000 551 946 c 256
 551 892 592 842 664 842 c 256
EndSplineSet
EndChar

StartChar: dollar
Encoding: 36 36 191
Width: 1217
VWidth: 0
GlyphClass: 2
Flags: W
PickledData: "(dp1
S'com.typemytype.robofont.layerData'
p2
(dp3
S'b'
(dp4
S'name'
p5
S'dollar'
p6
sS'lib'
p7
(dp8
sS'unicodes'
p9
(tsS'width'
p10
I1274
sS'contours'
p11
(tsS'components'
p12
(tsS'anchors'
p13
(tsss."
LayerCount: 2
Fore
SplineSet
554 0 m 258
 554 -43.2243 584.882 -63.7698 616.308 -63.7698 c 256
 648.862 -63.7698 682 -41.7229 682 0 c 258
 682 203.126 l 257
 872.851 221.589 1011.26 320.568 1011.26 509.76 c 256
 1011.26 654.567 928.682 744.818 722 797 c 257
 554 838 l 258
 423 870 390 890 390 968 c 256
 390 1062.47 489.589 1099.08 611.175 1099.08 c 256
 727.946 1099.08 822.896 1056.41 870 1039 c 256
 881.853 1034.71 892.816 1032.79 902.764 1032.79 c 256
 942.032 1032.79 965.489 1062.68 965.489 1094.7 c 256
 965.489 1118.91 952.092 1144.33 922 1159 c 256
 872.475 1184.62 785.035 1219.71 674 1230.67 c 257
 674 1438 l 258
 674 1479.72 640.862 1501.77 608.308 1501.77 c 256
 576.882 1501.77 546 1481.22 546 1438 c 258
 546 1232.66 l 257
 355.132 1220.54 202.984 1136.87 202.984 959.122 c 256
 202.984 774.281 318.785 731.308 513 682 c 258
 683 639 l 258
 793.521 611.37 839.164 567.553 839.164 495.27 c 256
 839.164 382.966 733.235 334.985 604.898 334.985 c 256
 481.477 334.985 386.076 378.954 319 420 c 256
 302.07 429.86 286.075 434.079 271.716 434.079 c 256
 232.127 434.079 204.977 402.009 204.977 367.697 c 256
 204.977 347.561 214.327 326.653 236 311 c 256
 302.068 263.681 417.557 213.971 554 202.434 c 257
 554 0 l 258
EndSplineSet
EndChar

StartChar: dotaccent
Encoding: 729 729 192
Width: 601
VWidth: 0
GlyphClass: 4
Flags: W
AnchorPoint: "top" 291 1035 mark 0
LayerCount: 2
Fore
SplineSet
294 1211 m 256
 372 1211 419 1265 419 1327 c 256
 419 1385 372 1441 294 1441 c 256
 217 1441 171 1385 171 1327 c 256
 171 1265 217 1211 294 1211 c 256
EndSplineSet
EndChar

StartChar: dotlessi
Encoding: 305 305 193
Width: 495
VWidth: 0
GlyphClass: 2
Flags: W
AnchorPoint: "top" 249 991 basechar 0
LayerCount: 2
Fore
SplineSet
246 0 m 256
 296 0 348 35 348 101 c 258
 348 896 l 258
 348 963 298 997 248 997 c 256
 197 997 146 963 146 896 c 258
 146 101 l 258
 146 32 195 0 246 0 c 256
EndSplineSet
EndChar

StartChar: uni0237
Encoding: 567 567 194
Width: 502
VWidth: 0
GlyphClass: 2
Flags: W
AnchorPoint: "top" 255 991 basechar 0
LayerCount: 2
Fore
SplineSet
-3 -381 m 256
 329 -381 356 -275 356 -23 c 258
 356 886 l 258
 356 959 317 995 255 995 c 256
 194 995 151 958 151 884 c 258
 151 -45 l 258
 151 -209 127 -227 -5 -228 c 256
 -52.3719 -228 -75.6373 -265.255 -75.6373 -302.998 c 256
 -75.6373 -341.742 -51.1216 -381 -3 -381 c 256
EndSplineSet
EndChar

StartChar: e
Encoding: 101 101 195
Width: 1106
VWidth: 0
GlyphClass: 2
Flags: W
PickledData: "(dp1
S'b'
(dp2
sS'anchors'
p3
(tsS'lib'
p4
(dp5
sS'unicodes'
p6
(tsS'width'
p7
I1132
sS'contours'
p8
(tsS'components'
p9
(tsS'com.typemytype.robofont.layerData'
p10
(dp11
S'b'
(dp12
S'name'
p13
S'e'
sg4
(dp14
sg6
(tsg7
I1132
sg8
(tsg9
(tsg3
(tsssg13
S'e'
s."
AnchorPoint: "ogonek" 761 37 basechar 0
AnchorPoint: "top" 576 1001 basechar 0
LayerCount: 2
Fore
SplineSet
587 -16 m 256
 760 -16 875 45 961 121 c 256
 982.649 139.723 991.545 161.87 991.545 182.558 c 256
 991.545 219.406 963.32 251.626 928.66 251.626 c 256
 916.265 251.626 903.045 247.505 890 238 c 256
 814 182 722 125 601 125 c 256
 427 127 295 224 289 455 c 257
 959 455 l 258
 1005 455 1023 490 1023 530 c 256
 1017 787 887 1013 569 1013 c 256
 260 1013 86 774 86 505 c 256
 86 179 297 -14 587 -16 c 256
291 577 m 257
 303 724 394 876 578 876 c 256
 761 876 838 734 849 577 c 257
 291 577 l 257
EndSplineSet
EndChar

StartChar: eight
Encoding: 56 56 203
Width: 1190
VWidth: 0
GlyphClass: 2
Flags: W
PickledData: "(dp1
S'com.typemytype.robofont.layerData'
p2
(dp3
S'b'
(dp4
S'name'
p5
S'eight'
p6
sS'lib'
p7
(dp8
sS'unicodes'
p9
(tsS'width'
p10
I1160
sS'contours'
p11
(tsS'components'
p12
(tsS'anchors'
p13
(tsss."
LayerCount: 2
Fore
SplineSet
595 -22 m 256
 889 -22 1104 128 1104 388 c 256
 1104 568 1012 696 825 746 c 257
 988 784 1079 908 1079 1072 c 256
 1079 1326 868 1462 595 1462 c 256
 322 1462 112 1325 112 1072 c 256
 112 908 199 788 367 746 c 257
 183 707 86 563 86 388 c 256
 86 128 301 -22 595 -22 c 256
595 148 m 256
 442 148 313 213 313 388 c 256
 313 565 441 649 595 649 c 256
 749 649 877 565 877 388 c 256
 877 213 749 148 595 148 c 256
595 847 m 256
 433 847 327 924 327 1079 c 256
 327 1244 457 1299 595 1299 c 256
 735 1299 864 1244 864 1079 c 256
 864 924 760 847 595 847 c 256
EndSplineSet
EndChar

StartChar: ellipsis
Encoding: 8230 8230 204
Width: 1808
VWidth: 0
GlyphClass: 2
Flags: W
LayerCount: 2
Fore
SplineSet
301 -2 m 256
 377 -2 425 53 425 114 c 256
 425 176 375 230 301 230 c 256
 224 230 176 173 176 114 c 256
 176 52 226 -2 301 -2 c 256
903 -2 m 256
 980 -2 1028 53 1028 114 c 256
 1028 177 977 230 903 230 c 256
 826 230 778 173 778 114 c 256
 778 52 828 -2 903 -2 c 256
1506 -2 m 256
 1582 -2 1630 53 1630 114 c 256
 1630 176 1580 230 1506 230 c 256
 1428 230 1381 173 1381 114 c 256
 1381 52 1429 -2 1506 -2 c 256
EndSplineSet
EndChar

StartChar: emdash
Encoding: 8212 8212 206
Width: 2048
VWidth: 0
GlyphClass: 2
Flags: W
LayerCount: 2
Fore
SplineSet
81 446 m 258
 1967 446 l 258
 2020 446 2046 488 2046 529 c 256
 2046 571 2020 613 1967 613 c 258
 81 613 l 258
 27 613 1 571 1 530 c 256
 1 488 27 446 81 446 c 258
EndSplineSet
EndChar

StartChar: emptyset
Encoding: 8709 8709 207
Width: 1745
VWidth: 0
GlyphClass: 2
Flags: W
LayerCount: 2
Fore
SplineSet
654.07 279.124 m 257
 1217.31 1026.41 l 257
 1300.16 941.848 1349 825.814 1349 698 c 256
 1349 423 1132 230 874 230 c 256
 792.992 230 718.693 247.661 654.07 279.124 c 257
553.558 345.655 m 257
 455.573 431.19 397 556.942 397 698 c 256
 397 964 604 1166 874 1166 c 256
 966.987 1166 1051.23 1142.16 1122.07 1100.69 c 257
 553.558 345.655 l 257
368.747 84.4146 m 256
 368.747 54.6359 392.997 19.8243 427.753 19.8243 c 256
 458.119 19.8243 483.944 54.2194 507 84 c 258
 586.76 189.822 l 257
 673.321 145.666 771.614 121 874 121 c 256
 1206 121 1478 381 1478 698 c 256
 1478 868.442 1403.52 1016.49 1288.32 1120.61 c 257
 1367 1225 l 257
 1384.47 1250.11 1407.45 1275.03 1407.45 1303.28 c 256
 1407.45 1334.87 1382.97 1363.6 1348.71 1363.6 c 256
 1330.52 1363.6 1312.63 1354.71 1297 1333 c 258
 1191.1 1192.36 l 257
 1097.22 1248.32 987.654 1280 874 1280 c 256
 526 1280 267 1006 267 698 c 256
 267 515.757 353.31 358.827 485.171 254.833 c 257
 410 155 l 257
 391.827 134.688 368.747 104.432 368.747 84.4146 c 256
EndSplineSet
EndChar

StartChar: endash
Encoding: 8211 8211 208
Width: 1024
VWidth: 0
GlyphClass: 2
Flags: W
LayerCount: 2
Fore
SplineSet
82 446 m 258
 941 446 l 258
 995 446 1021 488 1021 529 c 256
 1021 571 995 613 941 613 c 258
 82 613 l 258
 28 613 1 571 1 530 c 256
 1 488 28 446 82 446 c 258
EndSplineSet
EndChar

StartChar: eng
Encoding: 331 331 209
Width: 1179
VWidth: 0
GlyphClass: 2
Flags: HW
PickledData: "(dp1
S'com.typemytype.robofont.layerData'
p2
(dp3
S'b'
(dp4
S'name'
p5
S'eng'
p6
sS'lib'
p7
(dp8
sS'unicodes'
p9
(tsS'width'
p10
I1158
sS'contours'
p11
(tsS'components'
p12
(tsS'anchors'
p13
(tsss."
LayerCount: 2
Fore
SplineSet
398 -304 m 0
 497.732421875 -335.283203125 589.671875 -352.483398438 670.856445312 -352.483398438 c 0
 892.267822396 -352.483398438 1033.69018938 -224.551128405 1035 94.5175777569 c 2
 1035 628 l 2
 1035 898 873 1013 672 1013 c 0
 522 1013 401 951 347 834 c 1
 347 905 l 2
 347 966 298 996 247 996 c 0
 196 996 146 965 146 902 c 2
 146 96 l 2
 146 32 195 0 246 0 c 0
 297 0 347 33 347 96 c 2
 347 571 l 1
 353 764 476 876 618 876 c 0
 747 876 833 794 833 630 c 2
 833 85 l 2
 833 -109.833007812 781.426757812 -196.462890625 642.688476562 -196.462890625 c 0
 586.313476562 -196.462890625 515.545898438 -182.16015625 428 -155 c 0
 419.309570312 -152.375 411.063476562 -151.166992188 403.330078125 -151.166992188 c 0
 361.094726562 -151.166992188 334.1796875 -187.182617188 334.1796875 -225.028320312 c 0
 334.1796875 -256.810546875 353.1640625 -289.884765625 398 -304 c 0
EndSplineSet
EndChar

StartChar: equal
Encoding: 61 61 211
Width: 1325
VWidth: 0
GlyphClass: 2
Flags: W
LayerCount: 2
Fore
SplineSet
228 219 m 258
 1086 219 l 258
 1134 219 1175 247 1175 295 c 256
 1175 346 1134 373 1091 373 c 258
 239 373 l 258
 191 373 149 345 149 295 c 256
 149 252 185 219 228 219 c 258
228 626 m 258
 1086 626 l 258
 1134 626 1175 655 1175 702 c 256
 1175 754 1132 780 1086 780 c 258
 239 780 l 258
 191 780 149 752 149 702 c 256
 149 660 185 626 228 626 c 258
EndSplineSet
EndChar

StartChar: estimated
Encoding: 8494 8494 212
Width: 1132
VWidth: 0
GlyphClass: 2
Flags: W
LayerCount: 2
Fore
SplineSet
600 -12 m 256
 782 -12 888 35 982 115 c 256
 1008 137 1019 159 1019 177 c 256
 1019 199 1003 214 980 214 c 256
 955.463 214 938.222 201.452 921 183 c 256
 826 85 712 39 604 39 c 256
 428 39 327 159 315 491 c 257
 963 491 l 258
 1011 491 1028 541 1028 577 c 256
 1028 786 927 1013 577 1013 c 256
 231 1013 93 759 93 512 c 256
 93 183 268 -12 600 -12 c 256
317 562 m 257
 328 796 421 968 591 968 c 256
 764 968 825 817 836 562 c 257
 317 562 l 257
EndSplineSet
EndChar

StartChar: eth
Encoding: 240 240 213
Width: 1203
VWidth: 0
GlyphClass: 2
Flags: W
PickledData: "(dp1
S'com.typemytype.robofont.layerData'
p2
(dp3
S'b'
(dp4
S'name'
p5
S'eth'
p6
sS'lib'
p7
(dp8
sS'unicodes'
p9
(tsS'width'
p10
I1230
sS'contours'
p11
(tsS'components'
p12
(tsS'anchors'
p13
(tsss."
LayerCount: 2
Fore
SplineSet
575 -34 m 256
 982 -34 1119 274 1119 629 c 256
 1119 761 1103 910 1067 1056 c 257
 1199 1056 l 258
 1244 1056 1266 1089 1266 1122 c 256
 1266 1156 1245 1188 1199 1188 c 258
 1023 1188 l 257
 951 1364 849 1542 749 1542 c 256
 696.078 1542 652.091 1500.48 652.091 1451.73 c 256
 652.091 1433.24 658.423 1413.7 673 1395 c 256
 719 1336 772 1256 800 1188 c 257
 621 1188 l 258
 576 1188 554 1155 554 1121 c 256
 554 1088 576 1056 621 1056 c 258
 846 1056 l 257
 877.975 960.94 892.026 828.538 892.026 737.534 c 256
 892.026 723.231 891.679 709.952 891 698 c 257
 824 834 686 897 531 897 c 256
 256 897 85 716 85 445 c 256
 85 169 271 -34 575 -34 c 256
587 131 m 256
 405 131 303 254 303 435 c 256
 303 606 382 751 566 751 c 256
 762 751 869 616 869 428 c 256
 869 264 752 131 587 131 c 256
EndSplineSet
EndChar

StartChar: exclam
Encoding: 33 33 214
Width: 788
VWidth: 0
GlyphClass: 2
Flags: W
LayerCount: 2
Fore
SplineSet
351 477 m 258
 354.018 435.253 381.828 413.998 409.746 413.998 c 256
 437.332 413.998 465.024 434.753 469 477 c 257
 530 1383 l 258
 530.311 1386.59 530.463 1390.1 530.463 1393.52 c 256
 530.463 1461.51 470.482 1495.5 410.5 1495.5 c 256
 350.518 1495.5 290.537 1461.51 290.537 1393.52 c 256
 290.537 1390.1 290.689 1386.59 291 1383 c 258
 351 477 l 258
EndSplineSet
Refer: 313 46 N 1 0 0 1 113 -2 2
EndChar

StartChar: f
Encoding: 102 102 216
Width: 711
VWidth: 0
GlyphClass: 2
Flags: W
PickledData: "(dp1
S'b'
(dp2
sS'anchors'
p3
(tsS'lib'
p4
(dp5
sS'unicodes'
p6
(tsS'width'
p7
I723
sS'contours'
p8
(tsS'components'
p9
(tsS'com.typemytype.robofont.layerData'
p10
(dp11
S'b'
(dp12
S'name'
p13
S'f'
sg4
(dp14
sg6
(tsg7
I696
sg8
(tsg9
(tsg3
(tsssg13
S'f'
s."
LayerCount: 2
Fore
SplineSet
331 0 m 256
 382 0 432 33 432 99 c 258
 432 856 l 257
 591 856 l 258
 641 856 662 885 662 921 c 256
 662 954 641 987 591 987 c 258
 432 987 l 257
 432 1070 l 258
 432 1267 470 1290 569 1290 c 258
 654 1290 l 258
 700.726 1290 723.018 1327.5 723.018 1365.61 c 256
 723.018 1404.98 699.225 1445 654 1445 c 258
 531 1445 l 258
 359 1445 230 1361 230 1109 c 258
 230 987 l 257
 109 987 l 258
 58 987 36 954 36 921 c 256
 36 886 58 856 109 856 c 258
 230 856 l 257
 230 99 l 258
 230 33 280 0 331 0 c 256
EndSplineSet
EndChar

StartChar: uniFB01
Encoding: 64257 64257 217
Width: 1201
VWidth: 0
GlyphClass: 2
Flags: W
LayerCount: 2
Fore
SplineSet
323 1 m 256
 374 1 424 34 424 100 c 258
 424 855 l 257
 852 855 l 257
 852 101 l 258
 852 32 901 0 952 0 c 256
 1002 0 1054 35 1054 101 c 258
 1054 895 l 258
 1054 964 1001 995 950 995 c 258
 424 995 l 257
 424 1026 l 258
 424 1245 431 1298 545 1298 c 256
 580 1298 610 1288 646 1288 c 256
 687 1288 710 1325 710 1362 c 256
 710 1392 694 1422 659 1432 c 256
 604 1447 550 1454 496 1454 c 256
 324 1454 222 1361 222 1095 c 258
 222 995 l 257
 99 995 l 258
 49 995 24 961 24 926 c 256
 24 890 49 855 99 855 c 258
 222 855 l 257
 222 100 l 258
 222 34 272 1 323 1 c 256
953 1231 m 256
 1028 1231 1078 1276 1078 1334 c 256
 1078 1392 1028 1438 953 1438 c 256
 878 1438 827 1392 827 1334 c 256
 827 1277 878 1231 953 1231 c 256
EndSplineSet
EndChar

StartChar: five
Encoding: 53 53 218
Width: 1190
VWidth: 0
GlyphClass: 2
Flags: W
PickledData: "(dp1
S'com.typemytype.robofont.layerData'
p2
(dp3
S'b'
(dp4
S'name'
p5
S'five'
p6
sS'lib'
p7
(dp8
sS'unicodes'
p9
(tsS'width'
p10
I1160
sS'contours'
p11
(tsS'components'
p12
(tsS'anchors'
p13
(tsss."
LayerCount: 2
Fore
SplineSet
610 -22 m 256
 892 -22 1104 161 1104 446 c 256
 1104 716 926 905 660 905 c 256
 449 905 356 802 356 802 c 257
 357 1257 l 257
 942 1257 l 258
 996 1257 1022 1299 1022 1341 c 256
 1022 1382 996 1426 942 1426 c 258
 288 1426 l 258
 214 1426 178 1392 178 1325 c 258
 178 685 l 258
 178 634.983 266.818 601.545 320.522 601.545 c 256
 336.609 601.545 349.546 604.546 356 611 c 256
 416 673 520 730 628 730 c 256
 783 730 888 622 888 453 c 256
 888 271 793 159 602 159 c 256
 470 159 367 209 288 272 c 256
 275.98 281.683 263.124 285.875 250.353 285.875 c 256
 203.969 285.875 158.709 230.573 158.709 182.162 c 256
 158.709 164.061 165.037 146.923 180 134 c 256
 290 40 418 -22 610 -22 c 256
EndSplineSet
EndChar

StartChar: uniFB02
Encoding: 64258 64258 220
Width: 1201
VWidth: 0
GlyphClass: 2
Flags: W
LayerCount: 2
Fore
SplineSet
323 1 m 256
 374 1 424 34 424 100 c 258
 424 855 l 257
 571 855 l 258
 621 855 645 892 645 926 c 256
 645 961 621 995 571 995 c 258
 424 995 l 257
 424 1033 l 258
 424 1248 444 1318 551 1318 c 258
 789 1318 l 257
 789 101 l 258
 789 32 838 0 888 0 c 256
 939 0 991 35 991 101 c 258
 991 1332 l 258
 991 1399 942 1431 891 1431 c 256
 845 1431 800 1404 792 1349 c 257
 778 1371 692 1451 489 1451 c 256
 339 1449 222 1357 222 1095 c 258
 222 995 l 257
 99 995 l 258
 49 995 24 961 24 926 c 256
 24 890 49 855 99 855 c 258
 222 855 l 257
 222 100 l 258
 222 34 272 1 323 1 c 256
EndSplineSet
EndChar

StartChar: florin
Encoding: 402 402 221
Width: 1203
VWidth: 0
GlyphClass: 2
Flags: W
LayerCount: 2
Fore
SplineSet
65 -538 m 256
 228 -538 403 -440 507 -4 c 256
 567 247 620 525 673 773 c 257
 875 773 l 258
 930 773 958 814 958 856 c 256
 958 898 930 940 875 940 c 258
 706 940 l 257
 777 1290 863 1429 997 1429 c 256
 1069 1429 1106 1466 1106 1502 c 256
 1106 1534 1076 1566 1015 1566 c 256
 794 1566 617 1390 536 940 c 257
 358 940 l 258
 303 940 274 898 274 857 c 256
 274 815 303 773 358 773 c 258
 504 773 l 257
 451 525 399 248 339 -2 c 256
 260 -337 153 -391 75 -392 c 256
 9 -394 -30 -435 -30 -474 c 256
 -30 -507 -2 -538 65 -538 c 256
EndSplineSet
EndChar

StartChar: foundryicon
Encoding: 65538 -1 222
Width: 1347
VWidth: 0
GlyphClass: 2
Flags: W
LayerCount: 2
Fore
SplineSet
485 405 m 257
 485 672 l 257
 591 672 l 257
 761 523 l 257
 761 672 l 257
 867 672 l 257
 867 405 l 257
 761 405 l 257
 591 552 l 257
 591 405 l 257
 485 405 l 257
280 2 m 257
 669 278 l 257
 1066 2 l 257
 922 461 l 257
 1313 755 l 257
 828 755 l 257
 669 1215 l 257
 519 755 l 257
 34 755 l 257
 423 461 l 257
 280 2 l 257
EndSplineSet
EndChar

StartChar: four
Encoding: 52 52 223
Width: 1190
VWidth: 0
GlyphClass: 2
Flags: W
PickledData: "(dp1
S'com.typemytype.robofont.layerData'
p2
(dp3
S'b'
(dp4
S'name'
p5
S'four'
p6
sS'lib'
p7
(dp8
sS'unicodes'
p9
(tsS'width'
p10
I1160
sS'contours'
p11
(tsS'components'
p12
(tsS'anchors'
p13
(tsss."
LayerCount: 2
Fore
SplineSet
847 -2 m 256
 899 -2 954 32 954 98 c 258
 954 303 l 257
 1091 303 l 258
 1144 303 1171 344 1171 384 c 256
 1171 425 1144 465 1091 465 c 258
 955 465 l 257
 955 1278 l 258
 955 1387 881 1432 799 1432 c 256
 724 1432 664 1402 615 1323 c 258
 83 477 l 258
 71.996 459.708 66.8268 439.533 66.8268 419.173 c 256
 66.8268 361.822 107.842 303 175 303 c 258
 738 303 l 257
 738 98 l 258
 738 32 795 -2 847 -2 c 256
285 465 m 257
 738 1204 l 257
 738 465 l 257
 285 465 l 257
EndSplineSet
EndChar

StartChar: uni2074
Encoding: 8308 8308 224
Width: 739
VWidth: 0
GlyphClass: 2
Flags: W
LayerCount: 2
Fore
SplineSet
495 581 m 256
 523 581 551 600 551 639 c 258
 551 766 l 257
 633 766 l 258
 665 766 680 786 680 807 c 256
 680 829 664 849 633 849 c 258
 551 849 l 257
 551 1326 l 258
 551 1388 517 1419 470 1419 c 256
 428 1419 394 1402 365 1352 c 257
 49 862 l 257
 40 850 36 837 36 823 c 256
 36 790 62 766 102 766 c 258
 438 766 l 257
 438 639 l 258
 438 600 466 581 495 581 c 256
146 848 m 257
 438 1310 l 257
 438 848 l 257
 146 848 l 257
EndSplineSet
EndChar

StartChar: fraction
Encoding: 8260 8260 225
Width: 609
VWidth: 0
GlyphClass: 2
Flags: W
LayerCount: 2
Fore
SplineSet
64 -70 m 256
 95 -70 124 -53 138 -14 c 258
 619 1425 l 258
 622 1436 624 1446 624 1455 c 256
 624 1501 585 1528 545 1528 c 256
 512 1528 481 1512 468 1473 c 258
 -9 34 l 258
 -13 23 -14 13 -14 4 c 256
 -14 -42 25 -70 64 -70 c 256
EndSplineSet
EndChar

StartChar: g
Encoding: 103 103 226
Width: 1189
VWidth: 0
GlyphClass: 2
Flags: W
PickledData: "(dp1
S'b'
(dp2
sS'anchors'
p3
(tsS'lib'
p4
(dp5
sS'unicodes'
p6
(tsS'width'
p7
I1207
sS'contours'
p8
(tsS'components'
p9
(tsS'com.typemytype.robofont.layerData'
p10
(dp11
S'b'
(dp12
S'name'
p13
S'g'
sg4
(dp14
sg6
(tsg7
I1167
sg8
(tsg9
(tsg3
(tsssg13
S'g'
s."
AnchorPoint: "top" 566 997 basechar 0
LayerCount: 2
Fore
SplineSet
566 -430 m 256
 854 -430 1053 -294 1053 11 c 258
 1053 902 l 258
 1053 965 1006 997 958 997 c 256
 914 997 871 970 865 917 c 257
 865 835 l 257
 805 939 717 1013 540 1013 c 256
 249 1013 83 786 83 493 c 256
 83 207 255 0 546 0 c 256
 694 0 803 68 859 181 c 257
 859 0 l 258
 859 -186 750 -293 552 -293 c 256
 424 -293 341 -252 271 -228 c 256
 261.911 -224.459 253.143 -222.854 244.874 -222.854 c 256
 207.219 -222.854 179.928 -256.127 179.928 -291.3 c 256
 179.928 -313.838 191.134 -337.156 218 -353 c 256
 283 -391 409 -430 566 -430 c 256
577.955 132.943 m 256
 422.034 132.943 284 244.996 284 499 c 256
 284 701 371 876 578 876 c 256
 789.463 876 858.011 701.546 858.011 500.391 c 256
 858.011 251.326 734.766 132.943 577.955 132.943 c 256
EndSplineSet
EndChar

StartChar: germandbls
Encoding: 223 223 232
Width: 1315
VWidth: 0
GlyphClass: 2
Flags: W
LayerCount: 2
Fore
SplineSet
866 -26 m 256
 1068 -26 1245 96 1245 313 c 256
 1245 627 820 620 820 795 c 256
 820 890 1056 982 1056 1146 c 256
 1056 1352 856 1464 643 1464 c 256
 307 1464 156 1281 156 982 c 258
 156 97 l 258
 156 32 206 0 256 0 c 256
 307 0 358 33 358 97 c 258
 358 965 l 257
 361 1144 421 1325 623 1325 c 256
 735 1325 850 1269 850 1150 c 256
 850 1015 611 958 611 781 c 256
 611 523 1046 516 1046 303 c 256
 1046 176 971 117 858 117 c 256
 777 117 724 156 684 218 c 256
 668 242 646 252 624 252 c 256
 584 252 543 219 543 175 c 256
 543 162 546 150 553 137 c 256
 608 27 723 -26 866 -26 c 256
EndSplineSet
EndChar

StartChar: grave
Encoding: 96 96 233
Width: 569
VWidth: 0
GlyphClass: 4
Flags: W
AnchorPoint: "top" 446 1040 mark 0
LayerCount: 2
Fore
SplineSet
458 1194 m 256
 484 1194 503 1216 503 1242 c 256
 503 1254 497 1266 488 1279 c 257
 240 1574 l 258
 219 1600 197 1615 172 1615 c 256
 120 1615 67 1565 67 1516 c 256
 67 1497 76 1479 93 1465 c 258
 407 1216 l 258
 423 1203 443 1194 458 1194 c 256
EndSplineSet
EndChar

StartChar: greater
Encoding: 62 62 234
Width: 1325
VWidth: 0
GlyphClass: 2
Flags: W
PickledData: "(dp1
S'com.typemytype.robofont.layerData'
p2
(dp3
S'b'
(dp4
S'name'
p5
S'less'
p6
sS'lib'
p7
(dp8
sS'unicodes'
p9
(tsS'width'
p10
I1340
sS'contours'
p11
(tsS'components'
p12
(tsS'anchors'
p13
(tsss."
LayerCount: 2
Fore
SplineSet
228 30 m 258
 1093 410 l 258
 1130.15 426.285 1152.02 461.994 1152.02 498.543 c 256
 1152.02 533.813 1131.65 569.865 1085 590 c 258
 231 950 l 258
 225.066 952.543 219.016 953.711 212.997 953.711 c 256
 175.493 953.711 139.157 908.374 139.157 867.824 c 256
 139.157 845.787 149.89 825.163 177 814 c 258
 933 498 l 257
 174 166 l 258
 153.569 157.381 145.062 137.551 145.062 115.458 c 256
 145.062 74.7042 174.011 26.2475 210.468 26.2475 c 256
 216.156 26.2475 222.028 27.4272 228 30 c 258
EndSplineSet
EndChar

StartChar: greaterequal
Encoding: 8805 8805 235
Width: 1190
VWidth: 0
GlyphClass: 2
Flags: W
LayerCount: 2
Fore
SplineSet
169 251 m 256
 179 251 189 253 199 258 c 258
 1073 628 l 258
 1121 648 1142 681 1142 715 c 256
 1142 751 1121 783 1075 802 c 257
 197 1188 l 258
 186 1193 176 1195 166 1195 c 256
 124 1195 95 1157 95 1120 c 256
 95 1095 109 1072 139 1059 c 258
 920 716 l 257
 141 391 l 258
 109 377 96 352 96 327 c 256
 96 289 126 251 169 251 c 256
173 6 m 258
 1020 6 l 258
 1061 6 1082 37 1082 69 c 256
 1082 101 1061 133 1020 133 c 258
 173 133 l 258
 132 133 111 102 111 70 c 256
 111 38 132 6 173 6 c 258
EndSplineSet
EndChar

StartChar: guillemotleft
Encoding: 171 171 236
Width: 1180
VWidth: 0
GlyphClass: 2
Flags: W
LayerCount: 2
Fore
SplineSet
475 84 m 256
 518 84 549 113 549 154 c 256
 548 165 545 176 541 185 c 258
 376 540 l 257
 538 889 l 258
 544 901 548 915 548 926 c 256
 548 965 516 994 477 994 c 256
 446 994 416 978 393 938 c 258
 168 540 l 257
 388 149 l 258
 413 104 442 84 475 84 c 256
893 84 m 256
 936 84 968 113 968 154 c 256
 967 165 964 176 960 185 c 258
 795 540 l 257
 958 889 l 258
 963 900 968 914 968 926 c 256
 968 965 934 994 895 994 c 256
 866 994 834 978 811 938 c 258
 586 540 l 257
 806 149 l 258
 831 104 862 84 893 84 c 256
EndSplineSet
EndChar

StartChar: guillemotright
Encoding: 187 187 237
Width: 1180
VWidth: 0
GlyphClass: 2
Flags: W
LayerCount: 2
Fore
SplineSet
282 84 m 256
 314 84 343 103 369 149 c 258
 590 540 l 257
 369 930 l 258
 344 974 312 994 281 994 c 256
 241 994 208 966 208 926 c 256
 208 914 213 901 219 889 c 258
 381 540 l 257
 219 189 l 258
 213 176 208 163 208 151 c 256
 208 110 243 84 282 84 c 256
701 84 m 256
 733 84 762 103 788 149 c 258
 1009 540 l 257
 788 930 l 258
 762 974 732 994 700 994 c 256
 661 994 627 966 627 927 c 256
 627 914 632 901 638 889 c 258
 800 540 l 257
 638 190 l 258
 632 177 627 163 627 152 c 256
 627 111 661 84 701 84 c 256
EndSplineSet
EndChar

StartChar: guilsinglleft
Encoding: 8249 8249 238
Width: 601
VWidth: 0
GlyphClass: 2
Flags: W
LayerCount: 2
Fore
SplineSet
404 86 m 256
 442 86 476 115 476 152 c 256
 476 162 474 173 470 181 c 258
 303 540 l 257
 470 898 l 258
 474 907 476 917 476 926 c 256
 476 964 442 993 404 993 c 256
 375 993 345 977 322 937 c 258
 97 540 l 257
 322 142 l 257
 344 101 376 86 404 86 c 256
EndSplineSet
EndChar

StartChar: guilsinglright
Encoding: 8250 8250 239
Width: 601
VWidth: 0
GlyphClass: 2
Flags: W
LayerCount: 2
Fore
SplineSet
199 86 m 256
 227 86 259 101 282 142 c 258
 507 540 l 257
 282 937 l 258
 259 977 226 993 199 993 c 256
 161 993 127 964 127 926 c 256
 127 917 129 907 133 898 c 258
 300 540 l 257
 133 181 l 258
 129 172 127 162 127 153 c 256
 127 115 161 86 199 86 c 256
EndSplineSet
EndChar

StartChar: h
Encoding: 104 104 240
Width: 1169
VWidth: 0
GlyphClass: 2
Flags: W
PickledData: "(dp1
S'b'
(dp2
sS'anchors'
p3
(tsS'lib'
p4
(dp5
sS'unicodes'
p6
(tsS'y'
I113
sS'width'
p7
I1195
sS'points'
p8
(dp9
sS'contours'
p10
(dp11
sS'components'
p12
(tsS'segmentType'
p13
S'curve'
p14
sS'x'
I137
sS'com.typemytype.robofont.layerData'
p15
(dp16
S'b'
(dp17
S'name'
p18
S'h'
sg4
(dp19
sg6
(tsg7
I1148
sg10
(tsg12
(tsg3
(tsssg18
S'h'
s."
LayerCount: 2
Fore
SplineSet
246 0 m 256
 297 0 348 32 348 97 c 258
 348 567 l 258
 348 763 480 870 626 870 c 256
 747 870 833 798 833 638 c 258
 833 97 l 258
 833 32 883 0 933 0 c 256
 984 0 1035 32 1035 97 c 258
 1035 632 l 258
 1035 903 864 1013 676 1013 c 256
 528 1013 405 951 348 850 c 257
 348 1338 l 258
 348 1400 298 1432 247 1432 c 256
 196 1432 146 1400 146 1338 c 258
 146 97 l 258
 146 32 195 0 246 0 c 256
EndSplineSet
EndChar

StartChar: hungarumlaut
Encoding: 733 733 243
Width: 569
VWidth: 0
GlyphClass: 4
Flags: W
AnchorPoint: "top" 174 1040 mark 0
LayerCount: 2
Fore
SplineSet
1 1107 m 256
 15 1107 29 1112 45 1125 c 258
 363 1377 l 258
 382 1391 389 1410 389 1428 c 256
 389 1476 336 1526 286 1526 c 256
 263 1526 243 1517 225 1495 c 258
 -34 1186 l 258
 -44 1175 -46 1164 -47 1153 c 256
 -47 1128 -27 1107 1 1107 c 256
348 1107 m 256
 363 1107 376 1112 392 1125 c 258
 711 1377 l 258
 729 1391 736 1411 736 1428 c 256
 736 1476 684 1526 633 1526 c 256
 611 1526 590 1517 573 1495 c 257
 313 1186 l 258
 304 1175 302 1164 302 1153 c 256
 302 1128 321 1107 348 1107 c 256
EndSplineSet
EndChar

StartChar: hyphen
Encoding: 45 45 244
Width: 670
VWidth: 0
GlyphClass: 2
Flags: W
LayerCount: 2
Fore
SplineSet
125 451 m 258
 545 451 l 258
 595 451 631 484 631 529 c 256
 631 575 596 609 545 609 c 258
 125 609 l 258
 74 609 38 575 38 529 c 256
 38 484 75 451 125 451 c 258
EndSplineSet
EndChar

StartChar: i
Encoding: 105 105 245
Width: 493
VWidth: 0
GlyphClass: 2
Flags: W
LayerCount: 2
Fore
SplineSet
253 0 m 256
 303 0 355 35 355 101 c 258
 355 896 l 258
 355 962 305 997 255 997 c 256
 204 997 153 962 153 896 c 258
 153 101 l 258
 153 32 202 0 253 0 c 256
254 1216 m 256
 329 1216 379 1263 379 1334 c 256
 379 1405 330 1453 255 1453 c 256
 179 1453 128 1405 128 1334 c 256
 128 1263 179 1216 254 1216 c 256
EndSplineSet
EndChar

StartChar: infinity
Encoding: 8734 8734 254
Width: 1625
VWidth: 0
GlyphClass: 2
Flags: W
LayerCount: 2
Fore
SplineSet
422 257 m 256
 592 257 704 374 815 500 c 257
 958 330 1069 257 1196 257 c 256
 1363 257 1521 386 1521 598 c 258
 1521 600 l 258
 1521 796 1388 926 1206 926 c 256
 1027 926 922 795 823 683 c 257
 712 815 595 926 438 926 c 256
 246 926 102 785 102 588 c 256
 102 398 252 257 422 257 c 256
437 369 m 258
 307 369 224 470 224 590 c 256
 224 714 299 817 426 817 c 256
 571 817 661 698 751 585 c 257
 668 494 568 369 440 369 c 258
 437 369 l 258
1203 369 m 256
 1094 369 1016 441 882 595 c 257
 954 671 1059 817 1196 817 c 258
 1199 817 l 258
 1314 817 1402 729 1402 590 c 256
 1402 484 1330 369 1203 369 c 256
EndSplineSet
EndChar

StartChar: integral
Encoding: 8747 8747 255
Width: 770
VWidth: 0
GlyphClass: 2
Flags: W
LayerCount: 2
Fore
SplineSet
173 -340 m 256
 336 -340 489 -243 489 194 c 256
 489 537 459 892 459 1217 c 256
 459 1511 508 1630 634 1630 c 256
 694 1630 729 1663 729 1698 c 256
 729 1732 696 1767 620 1767 c 256
 413 1767 288 1616 288 1236 c 256
 288 906 319 543 319 196 c 256
 319 -134 237 -194 154 -194 c 256
 85 -194 53 -228 53 -264 c 256
 53 -302 90 -340 173 -340 c 256
EndSplineSet
EndChar

StartChar: j
Encoding: 106 106 258
Width: 509
VWidth: 0
GlyphClass: 2
Flags: W
LayerCount: 2
Fore
SplineSet
18 -379 m 256
 331 -379 363 -276 363 -22 c 258
 363 896 l 258
 363 962 313 997 263 997 c 256
 211 997 161 962 161 896 c 258
 161 -55 l 258
 161 -212 144 -229 14 -229 c 256
 -29.8798 -229 -52.6255 -266.295 -52.6255 -303.693 c 256
 -52.6255 -341.295 -29.6298 -379 18 -379 c 256
255 1216 m 256
 331 1216 381 1263 381 1334 c 256
 381 1405 332 1453 256 1453 c 256
 181 1453 130 1405 130 1334 c 256
 130 1263 180 1216 255 1216 c 256
EndSplineSet
EndChar

StartChar: k
Encoding: 107 107 260
Width: 1015
VWidth: 0
GlyphClass: 2
Flags: W
PickledData: "(dp1
S'com.typemytype.robofont.layerData'
p2
(dp3
S'b'
(dp4
S'name'
p5
S'k'
sS'lib'
p6
(dp7
sS'unicodes'
p8
(tsS'width'
p9
I984
sS'contours'
p10
((dp11
S'points'
p12
((dp13
S'segmentType'
p14
S'line'
p15
sS'x'
I318
sS'smooth'
p16
I0
sS'y'
I536
s(dp17
g14
S'line'
p18
sS'x'
I793
sg16
I1
sS'y'
I27
s(dp19
S'y'
I9
sS'x'
I809
sg16
I0
s(dp20
S'y'
I1
sS'x'
I828
sg16
I0
s(dp21
g14
S'curve'
p22
sS'x'
I845
sg16
I1
sS'y'
I1
s(dp23
S'y'
I1
sS'x'
I883
sg16
I0
s(dp24
S'y'
I33
sS'x'
I922
sg16
I0
s(dp25
g14
S'curve'
p26
sS'x'
I922
sg16
I1
sS'y'
I71
s(dp27
S'y'
I84
sS'x'
I922
sg16
I0
s(dp28
S'y'
I99
sS'x'
I918
sg16
I0
s(dp29
g14
S'curve'
p30
sS'x'
I906
sg16
I1
sS'y'
I112
s(dp31
g14
S'line'
p32
sS'x'
I492
sg16
I0
sS'y'
I554
s(dp33
g14
S'line'
p34
sS'x'
I873
sg16
I1
sS'y'
I889
s(dp35
S'y'
I902
sS'x'
I888
sg16
I0
s(dp36
S'y'
I918
sS'x'
I894
sg16
I0
s(dp37
g14
S'curve'
p38
sS'x'
I894
sg16
I1
sS'y'
I933
s(dp39
S'y'
I968
sS'x'
I894
sg16
I0
s(dp40
S'y'
I1002
sS'x'
I858
sg16
I0
s(dp41
g14
S'curve'
p42
sS'x'
I821
sg16
I1
sS'y'
I1002
s(dp43
S'y'
I1002
sS'x'
I802
sg16
I0
s(dp44
S'y'
I994
sS'x'
I785
sg16
I0
s(dp45
g14
S'curve'
p46
sS'x'
I770
sg16
I0
sS'y'
I979
s(dp47
g14
S'line'
p48
sS'x'
I318
sg16
I0
sS'y'
I574
stp49
stp50
sS'components'
p51
(tsS'anchors'
p52
(tsss."
AnchorPoint: "bot" 543 0 basechar 0
LayerCount: 2
Fore
SplineSet
246 0 m 256
 297 0 348 35 348 101 c 258
 348 518 l 257
 812 28 l 258
 832.274 6.24223 855.727 -2.80023 878.324 -2.80023 c 256
 927.211 -2.80023 972.087 39.5245 972.087 86.9809 c 256
 972.087 106.307 964.645 126.484 947 145 c 258
 565 547 l 257
 909 864 l 258
 926.9 880.505 934.424 900.037 934.424 919.366 c 256
 934.424 965.464 891.628 1010.41 844.719 1010.41 c 256
 826.688 1010.41 808.049 1003.77 791 988 c 258
 348 571 l 257
 348 1332 l 258
 348 1397 298 1432 249 1432 c 256
 197 1432 147 1397 147 1332 c 258
 147 101 l 258
 147 33 196 0 246 0 c 256
EndSplineSet
EndChar

StartChar: kgreenlandic
Encoding: 312 312 262
Width: 1019
VWidth: 0
GlyphClass: 2
Flags: W
PickledData: "(dp1
S'com.typemytype.robofont.layerData'
p2
(dp3
S'b'
(dp4
S'name'
p5
S'kgreenlandic'
p6
sS'lib'
p7
(dp8
sS'unicodes'
p9
(tsS'width'
p10
I1047
sS'contours'
p11
(tsS'components'
p12
(tsS'anchors'
p13
(tsss."
LayerCount: 2
Fore
SplineSet
250 0 m 256
 301 0 353 35 353 101 c 258
 353 494 l 257
 816 28 l 258
 836.633 7.12418 860.153 -1.55443 882.756 -1.55443 c 256
 932.667 -1.55443 978.105 40.762 978.105 87.5106 c 256
 978.105 106.807 970.363 126.858 952 145 c 258
 569 524 l 257
 914 864 l 258
 930.769 880.542 937.832 899.908 937.832 919.074 c 256
 937.832 966.053 895.387 1011.82 849.404 1011.82 c 256
 831.364 1011.82 812.78 1004.78 796 988 c 258
 353 548 l 257
 353 908 l 258
 353 974 303 1008 253 1008 c 256
 202 1008 151 974 151 908 c 258
 151 101 l 258
 151 33 200 0 250 0 c 256
EndSplineSet
EndChar

StartChar: l
Encoding: 108 108 263
Width: 503
VWidth: 0
GlyphClass: 2
Flags: W
PickledData: "(dp1
S'com.typemytype.robofont.layerData'
p2
(dp3
S'b'
(dp4
S'name'
p5
S'l'
sS'lib'
p6
(dp7
sS'unicodes'
p8
(tsS'width'
p9
I511
sS'contours'
p10
(tsS'components'
p11
(tsS'anchors'
p12
(tsss."
AnchorPoint: "bot" 253 0 basechar 0
AnchorPoint: "caron.alt" 264 1018 basechar 0
AnchorPoint: "top" 257 1433 basechar 0
LayerCount: 2
Fore
SplineSet
254 0 m 256
 305 0 357 35 357 101 c 258
 357 1332 l 258
 357 1397 307 1432 256 1432 c 256
 205 1432 155 1397 155 1332 c 258
 155 101 l 258
 155 32 203 0 254 0 c 256
EndSplineSet
EndChar

StartChar: less
Encoding: 60 60 268
Width: 1325
VWidth: 0
GlyphClass: 2
Flags: W
PickledData: "(dp1
S'com.typemytype.robofont.layerData'
p2
(dp3
S'b'
(dp4
S'name'
p5
S'less'
p6
sS'lib'
p7
(dp8
sS'unicodes'
p9
(tsS'width'
p10
I1340
sS'contours'
p11
(tsS'components'
p12
(tsS'anchors'
p13
(tsss."
LayerCount: 2
Fore
SplineSet
1063 30 m 258
 1068.97 27.4272 1074.84 26.2475 1080.53 26.2475 c 256
 1116.99 26.2475 1145.94 74.7042 1145.94 115.458 c 256
 1145.94 137.551 1137.43 157.381 1117 166 c 258
 358 498 l 257
 1114 814 l 258
 1141.07 825.146 1151.81 845.725 1151.81 867.725 c 256
 1151.81 908.3 1115.28 953.711 1077.26 953.711 c 256
 1071.16 953.711 1065.03 952.543 1059 950 c 258
 206 590 l 258
 159.201 569.803 138.611 533.589 138.611 498.215 c 256
 138.611 461.78 160.454 426.236 198 410 c 258
 1063 30 l 258
EndSplineSet
EndChar

StartChar: lessequal
Encoding: 8804 8804 269
Width: 1190
VWidth: 0
GlyphClass: 2
Flags: W
LayerCount: 2
Fore
SplineSet
1033 242 m 256
 1074 242 1102 279 1102 316 c 256
 1102 342 1090 366 1059 379 c 258
 277 721 l 257
 1057 1046 l 258
 1089 1059 1102 1085 1102 1109 c 256
 1102 1147 1071 1186 1029 1186 c 256
 1019 1186 1009 1184 999 1179 c 258
 124 810 l 257
 77 789 55 755 55 722 c 256
 55 687 76 654 122 635 c 257
 1001 249 l 258
 1011 244 1022 242 1033 242 c 256
162 6 m 258
 1009 6 l 258
 1050 6 1071 38 1071 69 c 256
 1071 101 1050 133 1009 133 c 258
 162 133 l 258
 120 133 100 102 100 70 c 256
 100 38 121 6 162 6 c 258
EndSplineSet
EndChar

StartChar: logicalnot
Encoding: 172 172 270
Width: 1326
VWidth: 0
GlyphClass: 2
Flags: W
LayerCount: 2
Fore
SplineSet
1098 232 m 256
 1137 232 1177 257 1177 308 c 258
 1177 723 l 258
 1177 763 1137 802 1097 802 c 258
 223 802 l 258
 174 802 151 763 151 724 c 256
 151 684 174 646 223 646 c 258
 1020 646 l 257
 1020 308 l 258
 1020 257 1058 232 1098 232 c 256
EndSplineSet
EndChar

StartChar: lozenge
Encoding: 9674 9674 271
Width: 1240
VWidth: 0
GlyphClass: 2
Flags: W
LayerCount: 2
Fore
SplineSet
617 -93 m 256
 646 -93 676 -76 696 -40 c 258
 1121 718 l 257
 713 1461 l 258
 689 1505 659 1538 621 1538 c 256
 587 1538 559 1514 536 1472 c 258
 121 718 l 257
 528 -18 l 257
 550 -60 579 -93 617 -93 c 256
618 113 m 257
 287 724 l 257
 615 1326 l 257
 622 1326 l 257
 951 715 l 257
 624 113 l 257
 618 113 l 257
EndSplineSet
EndChar

StartChar: lslash
Encoding: 322 322 272
Width: 602
VWidth: 0
GlyphClass: 2
Flags: HW
LayerCount: 2
Fore
SplineSet
531 826 m 6
 550.698242188 839.0703125 558.885742188 858.791015625 558.885742188 879.202148438 c 4
 558.885742188 919.431640625 527.083007812 962.34765625 488.909179688 962.34765625 c 4
 478.572265625 962.34765625 467.766601562 959.200195312 457 952 c 6
 412 921.696289062 l 5
 412 1332 l 6
 412 1397 362 1432 311 1432 c 4
 260 1432 210 1397 210 1332 c 6
 210 785.66796875 l 5
 111 719 l 6
 89.4091796875 704.560546875 80.3779296875 682.62890625 80.3779296875 660.455078125 c 4
 80.3779296875 620.934570312 109.068359375 580.646484375 146.467773438 580.646484375 c 4
 157.400390625 580.646484375 169.078125 584.088867188 181 592 c 6
 210 611.388671875 l 5
 210 101 l 6
 210 32 258 0 309 0 c 4
 360 0 412 35 412 101 c 6
 412 746.440429688 l 5
 531 826 l 6
EndSplineSet
EndChar

StartChar: m
Encoding: 109 109 273
Width: 1853
VWidth: 0
GlyphClass: 2
Flags: W
PickledData: "(dp1
S'b'
(dp2
sS'anchors'
p3
(tsS'lib'
p4
(dp5
sS'unicodes'
p6
(tsS'width'
p7
I1877
sS'contours'
p8
(tsS'components'
p9
(tsS'com.typemytype.robofont.layerData'
p10
(dp11
S'b'
(dp12
S'name'
p13
S'm'
sg4
(dp14
sg6
(tsg7
I1838
sg8
(tsg9
(tsg3
(tsssg13
S'm'
s."
AnchorPoint: "top" 983 1012 basechar 0
LayerCount: 2
Fore
SplineSet
245 0 m 256
 296 0 348 31 348 96 c 258
 348 569 l 258
 348 763 457 877 621 877 c 256
 751 877 830 798 830 621 c 258
 830 97 l 258
 830 32 880 0 930 0 c 256
 981 0 1032 32 1032 97 c 258
 1032 556 l 258
 1032 769 1153 877 1306 877 c 256
 1438 877 1515 799 1515 637 c 258
 1515 96 l 258
 1515 31 1565 0 1615 0 c 256
 1666 0 1717 31 1717 96 c 258
 1717 632 l 258
 1717 901 1553 1013 1352 1013 c 256
 1185 1013 1057 940 998 785 c 257
 957 923 838 1013 669 1013 c 256
 531 1013 412 956 348 828 c 257
 348 908 l 258
 348 967 296 997 247 997 c 256
 196 997 146 965 146 903 c 258
 146 96 l 258
 146 31 195 0 245 0 c 256
EndSplineSet
EndChar

StartChar: macron
Encoding: 175 175 274
Width: 569
VWidth: 0
GlyphClass: 4
Flags: W
AnchorPoint: "mid" 292 1339 mark 0
AnchorPoint: "top" 291 1040 mark 0
LayerCount: 2
Fore
SplineSet
28 1272 m 258
 547 1272 l 258
 594 1272 617 1305 617 1342 c 256
 617 1379 594 1413 547 1413 c 258
 28 1413 l 258
 -21 1413 -45 1379 -45 1342 c 256
 -45 1305 -21 1272 28 1272 c 258
EndSplineSet
EndChar

StartChar: minus
Encoding: 8722 8722 276
Width: 734
VWidth: 0
GlyphClass: 2
Flags: W
LayerCount: 2
Fore
SplineSet
120 446 m 258
 609 446 l 258
 664 446 692 488 692 529 c 256
 692 571 664 613 609 613 c 258
 120 613 l 258
 64 613 36 572 36 530 c 256
 36 489 65 446 120 446 c 258
EndSplineSet
EndChar

StartChar: mu
Encoding: 181 181 277
Width: 1179
VWidth: 0
GlyphClass: 2
Flags: W
LayerCount: 2
Fore
SplineSet
244 -270 m 256
 295 -270 347 -236 347 -170 c 258
 347 40 l 257
 396 9 454 -5 517 -5 c 256
 645 -5 778 57 832 174 c 257
 832 94 l 258
 832 32 882 0 932 0 c 256
 983 0 1034 32 1034 96 c 258
 1034 900 l 258
 1034 964 984 995 934 995 c 256
 883 995 832 963 832 900 c 258
 832 383 l 257
 820 202 701 113 558 113 c 256
 447 113 347 189 347 351 c 258
 347 899 l 258
 347 963 297 995 246 995 c 256
 195 995 145 963 145 899 c 258
 145 -170 l 258
 145 -238 194 -270 244 -270 c 256
EndSplineSet
EndChar

StartChar: multiply
Encoding: 215 215 278
Width: 1326
VWidth: 0
GlyphClass: 2
Flags: W
LayerCount: 2
Fore
SplineSet
358 115 m 256
 376 115 394 121 410 138 c 258
 662 390 l 257
 906 148 l 257
 920 132 936 124 956 125 c 256
 998 125 1037 165 1037 207 c 256
 1037 224 1031 243 1016 258 c 258
 773 501 l 257
 1025 753 l 258
 1042 771 1048 789 1048 807 c 256
 1048 848 1011 884 970 884 c 256
 951 884 933 876 917 860 c 258
 665 608 l 257
 421 852 l 258
 406 868 387 875 369 875 c 256
 327 875 288 835 288 793 c 256
 288 775 295 757 310 742 c 258
 554 498 l 257
 302 246 l 258
 286 229 278 211 278 193 c 256
 278 152 317 115 358 115 c 256
EndSplineSet
EndChar

StartChar: n
Encoding: 110 110 279
Width: 1170
VWidth: 0
GlyphClass: 2
Flags: W
PickledData: "(dp1
S'b'
(dp2
sS'anchors'
p3
(tsS'lib'
p4
(dp5
sS'unicodes'
p6
(tsS'y'
I113
sS'width'
p7
I1195
sS'points'
p8
(dp9
sS'contours'
p10
(dp11
sS'components'
p12
(tsS'segmentType'
p13
S'curve'
p14
sS'x'
I137
sS'com.typemytype.robofont.layerData'
p15
(dp16
S'b'
(dp17
S'name'
p18
S'n'
sg4
(dp19
sg6
(tsg7
I1152
sg10
(tsg12
(tsg3
(tsssg18
S'n'
s."
AnchorPoint: "bot" 593 0 basechar 0
AnchorPoint: "top" 618 991 basechar 0
LayerCount: 2
Fore
SplineSet
246 0 m 256
 297 0 347 33 347 96 c 258
 347 571 l 257
 353 764 476 876 618 876 c 256
 747 876 833 794 833 630 c 258
 833 96 l 258
 833 32 883 0 933 0 c 256
 984 0 1035 32 1035 96 c 258
 1035 628 l 258
 1035 898 873 1013 672 1013 c 256
 522 1013 401 951 347 834 c 257
 347 905 l 258
 347 966 298 996 247 996 c 256
 196 996 146 965 146 902 c 258
 146 96 l 258
 146 32 195 0 246 0 c 256
EndSplineSet
EndChar

StartChar: nine
Encoding: 57 57 284
Width: 1190
VWidth: 0
GlyphClass: 2
Flags: W
PickledData: "(dp1
S'com.typemytype.robofont.layerData'
p2
(dp3
S'b'
(dp4
S'name'
p5
S'nine'
p6
sS'lib'
p7
(dp8
sS'unicodes'
p9
(tsS'width'
p10
I1160
sS'contours'
p11
(tsS'components'
p12
(tsS'anchors'
p13
(tsss."
LayerCount: 2
Fore
SplineSet
511 -22 m 256
 1015 -22 1110 404 1110 806 c 256
 1110 1153 978 1462 571 1462 c 256
 266 1462 76 1263 76 988 c 256
 76 719 261 534 537 534 c 256
 537.974 533.994 538.947 533.991 539.919 533.991 c 256
 709.535 533.991 843.188 620.535 876 714 c 257
 876 400 825 159 516 159 c 256
 442 159 354 179 264 219 c 256
 255.433 222.686 247.074 224.367 239.053 224.367 c 256
 193.307 224.367 158.518 169.691 158.518 120.286 c 256
 158.518 91.3872 170.422 64.2921 199 51 c 256
 292 7 402 -22 511 -22 c 256
562.875 692.975 m 256
 375.342 692.975 295 823.594 295 993 c 256
 295 1174 395 1285 581 1285 c 256
 761 1285 862 1160 862 997 c 256
 862 811.548 756.764 692.975 562.875 692.975 c 256
EndSplineSet
EndChar

StartChar: notequal
Encoding: 8800 8800 285
Width: 1174
VWidth: 0
GlyphClass: 2
Flags: W
LayerCount: 2
Fore
SplineSet
358 -17 m 256
 388 -17 415 -2 431 34 c 258
 544 282 l 257
 1034 282 l 258
 1085 282 1111 320 1111 359 c 256
 1111 397 1085 435 1034 435 c 258
 610 435 l 257
 724 690 l 257
 1034 690 l 258
 1085 690 1110 727 1110 765 c 256
 1110 804 1084 842 1034 842 c 258
 789 842 l 257
 873 1024 l 258
 879 1036 881 1048 881 1060 c 256
 881 1104 842 1132 802 1132 c 256
 771 1132 743 1118 727 1082 c 258
 620 842 l 257
 165 842 l 258
 113 842 89 805 89 766 c 256
 89 728 114 690 165 690 c 258
 555 690 l 257
 439 435 l 257
 165 435 l 258
 114 435 89 398 89 359 c 256
 89 320 115 282 165 282 c 258
 375 282 l 257
 288 93 l 258
 282 79 279 68 280 56 c 256
 280 12 318 -17 358 -17 c 256
EndSplineSet
EndChar

StartChar: numbersign
Encoding: 35 35 287
Width: 1203
VWidth: 0
GlyphClass: 2
Flags: W
PickledData: "(dp1
S'com.typemytype.robofont.layerData'
p2
(dp3
S'b'
(dp4
S'name'
p5
S'numbersign'
p6
sS'lib'
p7
(dp8
sS'unicodes'
p9
(tsS'width'
p10
I1169
sS'contours'
p11
(tsS'components'
p12
(tsS'anchors'
p13
(tsss."
LayerCount: 2
Fore
SplineSet
306 -45 m 256
 340 -45 375 -24 381 21 c 258
 445 451 l 257
 694 451 l 257
 663 229 635 34 635 30 c 256
 634.891 28.1432 634.837 26.3221 634.837 24.5367 c 256
 634.837 -22.7158 672.347 -45 708 -45 c 256
 743 -45 777 -24 784 21 c 258
 847 451 l 257
 985 451 l 258
 1033 451 1057 487 1057 522 c 256
 1057 559 1032 595 985 595 c 258
 868 595 l 257
 906 860 l 257
 1042 860 l 258
 1090 860 1113 896 1113 932 c 256
 1113 968 1089 1005 1042 1005 c 258
 927 1005 l 257
 957 1207 983 1387 983 1390 c 256
 983.109 1391.71 983.163 1393.39 983.163 1395.04 c 256
 983.163 1438.79 945.617 1462 909 1462 c 256
 873 1462 838 1441 831 1395 c 258
 774 1005 l 257
 525 1005 l 257
 555 1207 581 1387 581 1390 c 256
 581.107 1391.71 581.159 1393.38 581.159 1395.03 c 256
 581.159 1439.68 542.684 1462 507 1462 c 256
 471 1462 435 1441 428 1395 c 258
 372 1005 l 257
 217 1005 l 258
 169 1005 145 969 145 933 c 256
 145 897 170 860 217 860 c 258
 351 860 l 257
 313 595 l 257
 161 595 l 258
 113 595 89 560 89 523 c 256
 89 488 113 451 161 451 c 258
 292 451 l 257
 260 229 232 34 232 31 c 256
 231.814 28.5774 231.723 26.2155 231.723 23.914 c 256
 231.723 -23.1842 269.77 -45 306 -45 c 256
466 595 m 257
 504 860 l 257
 753 860 l 257
 715 595 l 257
 466 595 l 257
EndSplineSet
EndChar

StartChar: o
Encoding: 111 111 288
Width: 1173
VWidth: 0
GlyphClass: 2
Flags: W
PickledData: "(dp1
S'b'
(dp2
sS'anchors'
p3
(tsS'com.typemytype.robofont.layerData'
p4
(dp5
S'b'
(dp6
S'name'
p7
S'o'
sS'lib'
p8
(dp9
sS'unicodes'
p10
(tsS'width'
p11
I1144
sS'contours'
p12
(tsS'components'
p13
(tsg3
(tsssg10
(tsg7
S'o'
sg11
I1199
sg12
(tsg13
(tsg8
(dp14
sS'com.typemytype.robofont.guides'
p15
(ts."
AnchorPoint: "top" 585 995 basechar 0
LayerCount: 2
Fore
SplineSet
590 121 m 256
 397 121 282 265 282 498 c 256
 282 732 396 876 590 876 c 256
 783 876 898 731 898 498 c 256
 898 265 785 122 590 121 c 256
590 -16 m 256
 923 -16 1097 223 1097 498 c 256
 1097 782 917 1013 590 1013 c 256
 259 1013 83 777 83 498 c 256
 83 222 257 -16 590 -16 c 256
EndSplineSet
EndChar

StartChar: oe
Encoding: 339 339 293
Width: 1847
VWidth: 0
GlyphClass: 2
Flags: W
LayerCount: 2
Fore
SplineSet
1290 -30 m 256
 1491 -30 1688 61 1688 166 c 256
 1688 198 1666 226 1634 226 c 256
 1622 226 1609 222 1596 214 c 256
 1531 172 1436 124 1336 124 c 256
 1121 124 1044 270 1041 460 c 257
 1678 460 l 258
 1725 460 1745 494 1745 528 c 256
 1739 811 1602 1026 1298 1026 c 256
 1134 1026 1013 940 940 814 c 257
 867 938 745 1023 571 1023 c 256
 239 1023 80 772 80 497 c 256
 80 227 239 -26 571 -26 c 256
 743 -26 863 61 937 188 c 257
 1007 56 1125 -30 1290 -30 c 256
571 115 m 256
 371 115 289 310 289 497 c 256
 289 686 371 881 571 881 c 256
 771 881 845 680 845 491 c 256
 843 306 764 115 571 115 c 256
1041 584 m 257
 1052 750 1137 887 1294 887 c 256
 1459 887 1542 764 1554 584 c 257
 1041 584 l 257
EndSplineSet
EndChar

StartChar: ogonek
Encoding: 731 731 294
Width: 569
VWidth: 0
GlyphClass: 4
Flags: W
AnchorPoint: "ogonek" 243 0 mark 0
LayerCount: 2
Fore
SplineSet
446 -419 m 257
 446 -325 l 257
 350.312 -325 242.385 -297.974 242.385 -183.475 c 256
 242.385 -137.632 259.686 -77.7667 302 0 c 257
 207 0 l 257
 115.753 -106.899 76.5184 -202.265 76.5184 -277.528 c 256
 76.5184 -385.445 157.182 -452.033 280.839 -452.033 c 256
 329.908 -452.033 385.746 -441.548 446 -419 c 257
EndSplineSet
EndChar

StartChar: one
Encoding: 49 49 298
Width: 1190
VWidth: 0
GlyphClass: 2
Flags: W
PickledData: "(dp1
S'com.typemytype.robofont.layerData'
p2
(dp3
S'b'
(dp4
S'name'
p5
S'one'
p6
sS'lib'
p7
(dp8
sS'unicodes'
p9
(tsS'width'
p10
I1160
sS'contours'
p11
(tsS'components'
p12
(tsS'anchors'
p13
(tsss."
LayerCount: 2
Fore
SplineSet
666 0 m 256
 721 0 778 35 778 107 c 258
 778 1322 l 258
 778 1396 725 1432 671 1432 c 256
 651 1431 628 1427 610 1416 c 258
 261 1201 l 258
 233 1183 222 1160 222 1136 c 256
 222 1094 258 1054 303 1054 c 256
 316 1054 332 1058 345 1067 c 258
 554 1201 l 257
 555 107 l 258
 555 35 610 0 666 0 c 256
EndSplineSet
EndChar

StartChar: onehalf
Encoding: 189 189 299
Width: 1613
VWidth: 0
GlyphClass: 2
Flags: W
LayerCount: 2
Fore
SplineSet
1013 -1 m 258
 1449 -1 l 258
 1482 -1 1498 24 1498 49 c 256
 1498 74 1481 100 1449 100 c 258
 1089 100 l 257
 1248 233 1490 455 1490 632 c 256
 1490 766 1373 837 1230 837 c 256
 1135 837 980 782 980 723 c 256
 980 700 998 679 1026 679 c 256
 1036 679 1047 682 1057 687 c 256
 1098 709 1158 734 1217 734 c 256
 1291 734 1361 696 1361 621 c 256
 1361 513 1187 335 1072 226 c 257
 999 151 936 110 936 60 c 256
 936 26 959 -1 1013 -1 c 258
399 582 m 256
 428 582 458 601 458 640 c 258
 458 1333 l 258
 458 1376 432 1396 403 1396 c 256
 391 1396 380 1393 370 1387 c 258
 167 1261 l 258
 152 1251 145 1238 145 1224 c 256
 145 1200 165 1177 191 1177 c 256
 200 1177 208 1179 216 1184 c 258
 340 1263 l 257
 340 640 l 258
 340 601 368 582 399 582 c 256
529 -81 m 256
 556 -81 581 -67 591 -35 c 258
 1064 1355 l 258
 1067 1364 1069 1373 1069 1380 c 256
 1069 1420 1036 1443 1001 1443 c 256
 975 1443 948 1428 937 1396 c 258
 467 7 l 258
 464 -3 462 -11 462 -18 c 256
 462 -57 495 -81 529 -81 c 256
EndSplineSet
EndChar

StartChar: onequarter
Encoding: 188 188 300
Width: 1594
VWidth: 0
GlyphClass: 2
Flags: W
PickledData: "(dp1
S'com.typemytype.robofont.layerData'
p2
(dp3
S'b'
(dp4
S'name'
p5
S'onequarter'
p6
sS'lib'
p7
(dp8
sS'unicodes'
p9
(tsS'width'
p10
I1543
sS'contours'
p11
(tsS'components'
p12
(tsS'anchors'
p13
(tsss."
LayerCount: 2
Fore
SplineSet
1325 1 m 256
 1353 1 1381 20 1381 60 c 258
 1381 186 l 257
 1463 186 l 258
 1495 186 1509 206 1509 228 c 256
 1509 249 1494 269 1463 269 c 258
 1381 269 l 257
 1381 746 l 258
 1381 809 1346 839 1300 839 c 256
 1258 839 1223 823 1195 772 c 257
 879 283 l 258
 870 269 866 255 866 243 c 256
 866 211 891 186 931 186 c 258
 1268 186 l 257
 1268 60 l 258
 1268 20 1296 1 1325 1 c 256
399 582 m 256
 428 582 458 601 458 640 c 258
 458 1333 l 258
 458 1376 432 1396 403 1396 c 256
 391 1396 380 1393 370 1387 c 258
 167 1261 l 258
 152 1251 145 1238 145 1224 c 256
 145 1200 165 1177 191 1177 c 256
 200 1177 208 1179 216 1184 c 258
 340 1263 l 257
 340 640 l 258
 340 601 368 582 399 582 c 256
534 -81 m 256
 559 -81 585 -67 596 -35 c 258
 1069 1355 l 258
 1072 1364 1073 1373 1073 1381 c 256
 1073 1420 1040 1443 1005 1443 c 256
 979 1443 952 1428 942 1396 c 258
 472 7 l 258
 469 -3 467 -12 467 -19 c 256
 467 -57 501 -81 534 -81 c 256
976 268 m 257
 1268 730 l 257
 1268 268 l 257
 976 268 l 257
EndSplineSet
EndChar

StartChar: uni00B9
Encoding: 185 185 301
Width: 695
VWidth: 0
GlyphClass: 2
Flags: W
LayerCount: 2
Fore
SplineSet
425 582 m 256
 454 582 485 601 485 640 c 258
 485 1333 l 258
 485 1376 459 1396 430 1396 c 256
 418 1396 407 1393 397 1387 c 258
 194 1261 l 258
 179 1251 172 1238 172 1224 c 256
 172 1200 192 1177 218 1177 c 256
 227 1177 235 1179 243 1184 c 258
 367 1263 l 257
 367 640 l 258
 367 601 395 582 425 582 c 256
EndSplineSet
EndChar

StartChar: ordfeminine
Encoding: 170 170 302
Width: 1064
VWidth: 0
GlyphClass: 2
Flags: W
LayerCount: 2
Fore
SplineSet
396 711 m 256
 499 711 605 762 646 858 c 257
 647 793 l 258
 647 752 682 731 715 731 c 256
 749 731 784 753 784 797 c 258
 785 1243 l 258
 785 1434 665 1511 487 1511 c 256
 355 1511 253 1477 198 1409 c 256
 189 1399 185 1389 185 1378 c 256
 185 1352 205 1330 233 1330 c 256
 242 1330 250 1332 258 1337 c 256
 320 1370 378 1399 481 1399 c 256
 579 1399 644 1362 644 1254 c 258
 644 1195 l 257
 619 1197 585 1198 562 1198 c 256
 305 1198 136 1127 136 941 c 256
 136 795 248 711 396 711 c 256
435 810 m 257
 349 813 280 855 280 948 c 256
 280 1096 469 1101 644 1101 c 257
 644 1035 l 257
 638 888 550 813 435 810 c 257
EndSplineSet
EndChar

StartChar: ordmasculine
Encoding: 186 186 303
Width: 1094
VWidth: 0
GlyphClass: 2
Flags: W
LayerCount: 2
Fore
SplineSet
531 834 m 256
 369 834 302 984 302 1118 c 256
 302 1253 369 1403 531 1403 c 256
 695 1403 761 1253 761 1120 c 256
 761 984 695 834 531 834 c 256
531 727 m 256
 803 727 925 917 925 1119 c 256
 925 1320 803 1511 531 1511 c 256
 261 1511 138 1320 138 1119 c 256
 138 917 261 727 531 727 c 256
EndSplineSet
EndChar

StartChar: oslash
Encoding: 248 248 304
Width: 1177
VWidth: 0
GlyphClass: 2
Flags: W
AnchorPoint: "top" 573 991 basechar 0
LayerCount: 2
Fore
SplineSet
337 -179 m 256
 362 -179 384 -167 397 -137 c 258
 455.454 -1.65079 l 257
 496.942 -11.0148 541.806 -16 590 -16 c 256
 923 -16 1097 223 1097 498 c 256
 1097 688.511 1016 855.173 863.966 944.254 c 257
 920 1074 l 258
 927 1089 934 1106 934 1120 c 256
 934 1159 901 1182 867 1182 c 256
 839 1182 815 1169 803 1140 c 258
 740.61 994.701 l 257
 694.562 1006.63 644.308 1013 590 1013 c 256
 259 1013 83 777 83 498 c 256
 83 305.352 167.773 131.218 332.219 43.6112 c 257
 280 -78 l 258
 274 -91 270 -103 270 -116 c 256
 270 -154 302 -179 337 -179 c 256
799.029 793.892 m 257
 862.933 728.494 898 626.664 898 498 c 256
 898 265 785 122 590 121 c 256
 562.426 121 536.444 123.939 512.163 129.658 c 257
 799.029 793.892 l 257
684.041 862.96 m 257
 394.864 189.503 l 257
 322.167 253.681 282 360.297 282 498 c 256
 282 732 396 876 590 876 c 256
 623.806 876 655.22 871.551 684.041 862.96 c 257
EndSplineSet
EndChar

StartChar: p
Encoding: 112 112 307
Width: 1199
VWidth: 0
GlyphClass: 2
Flags: W
PickledData: "(dp1
S'b'
(dp2
sS'anchors'
p3
(tsS'lib'
p4
(dp5
sS'unicodes'
p6
(tsS'width'
p7
I1207
sS'contours'
p8
(tsS'components'
p9
(tsS'com.typemytype.robofont.layerData'
p10
(dp11
S'b'
(dp12
S'name'
p13
S'p'
sg4
(dp14
sg6
(tsg7
I1181
sg8
(tsg9
(tsg3
(tsssg13
S'p'
s."
LayerCount: 2
Fore
SplineSet
246 -381 m 256
 297 -381 347 -349 347 -287 c 258
 347 160 l 257
 411 44 524 -16 670 -16 c 256
 951 -16 1116 201 1116 493 c 256
 1116 768 970 1013 685 1013 c 256
 536 1013 415 956 347 830 c 257
 347 901 l 258
 347 963 310 996 247 996 c 256
 197 996 146 963 146 900 c 258
 146 -287 l 258
 146 -349 196 -381 246 -381 c 256
637 121 m 256
 427 121 348 308 348 495 c 256
 348 719 418 876 644 876 c 256
 854 875 915 659 915 495 c 256
 915 321 848 121 637 121 c 256
EndSplineSet
EndChar

StartChar: paragraph
Encoding: 182 182 308
Width: 1318
VWidth: 0
GlyphClass: 2
Flags: W
LayerCount: 2
Fore
SplineSet
603 -236 m 256
 644 -236 685 -209 685 -157 c 258
 685 1296 l 257
 904 1296 l 257
 904 -157 l 258
 904 -210 944 -236 985 -236 c 256
 1026 -236 1067 -210 1067 -157 c 258
 1068 1301 l 258
 1068 1368 1060 1433 943 1433 c 258
 568 1433 l 258
 283 1433 120 1288 120 1057 c 256
 120 858 295 689 521 689 c 257
 521 -157 l 258
 521 -210 562 -236 603 -236 c 256
EndSplineSet
EndChar

StartChar: parenleft
Encoding: 40 40 309
Width: 619
VWidth: 0
GlyphClass: 2
Flags: W
LayerCount: 2
Fore
SplineSet
435 -231 m 256
 477 -231 513 -200 513 -153 c 256
 513 -138 509 -123 504 -108 c 256
 414 141 363 387 363 626 c 256
 363 868 416 1119 506 1369 c 256
 511 1384 515 1400 515 1413 c 256
 515 1461 478 1492 436 1492 c 256
 399 1492 365 1462 346 1412 c 256
 242 1155 153 891 153 624 c 256
 153 353 244 87 355 -173 c 256
 373 -216 405 -231 435 -231 c 256
EndSplineSet
EndChar

StartChar: parenright
Encoding: 41 41 310
Width: 619
VWidth: 0
GlyphClass: 2
Flags: W
LayerCount: 2
Fore
SplineSet
186 -231 m 256
 215 -231 249 -216 268 -173 c 256
 378 86 470 352 470 624 c 256
 470 890 381 1154 276 1412 c 256
 255 1462 224 1491 187 1491 c 256
 145 1491 107 1458 107 1414 c 256
 107 1398 111 1384 117 1369 c 256
 207 1118 260 867 260 626 c 256
 260 386 208 138 119 -109 c 256
 113 -125 109 -140 109 -154 c 256
 109 -200 144 -231 186 -231 c 256
EndSplineSet
EndChar

StartChar: partialdiff
Encoding: 8706 8706 311
Width: 1189
VWidth: 0
GlyphClass: 2
Flags: W
LayerCount: 2
Fore
SplineSet
528 -25 m 256
 885 -25 1085 337 1085 825 c 256
 1085 1361 845 1614 519 1614 c 256
 382 1614 263 1575 162 1530 c 256
 127 1514 115 1489 115 1463 c 256
 115 1422 148 1381 190 1381 c 256
 200 1381 209 1383 217 1386 c 256
 305 1422 404 1453 507 1453 c 256
 742 1453 893 1268 893 855 c 256
 893 818 893 802 891 791 c 257
 882 803 737 988 542 988 c 256
 291 988 84 782 84 457 c 256
 84 228 225 -25 528 -25 c 256
545 133 m 258
 387 133 279 269 279 457 c 256
 279 665 413 834 580 834 c 256
 736 834 842 704 869 617 c 257
 844 367 726 133 547 133 c 258
 545 133 l 258
EndSplineSet
EndChar

StartChar: percent
Encoding: 37 37 312
Width: 2074
VWidth: 0
GlyphClass: 2
Flags: W
LayerCount: 2
Fore
SplineSet
618 -68 m 256
 643 -68 662 -49 678 -22 c 258
 1444 1337 l 257
 1452 1354 1460 1372 1460 1388 c 256
 1460 1422 1433 1450 1401 1450 c 256
 1380 1450 1357 1438 1342 1409 c 257
 569 34 l 258
 561 20 552 3 552 -9 c 256
 552 -42 583 -68 618 -68 c 256
546 746 m 256
 411 746 363 873 363 1021 c 256
 363 1169 413 1296 546 1296 c 256
 680 1296 729 1169 729 1021 c 256
 729 872 680 746 546 746 c 256
546 624 m 256
 760 624 893 799 893 1021 c 256
 893 1213 793 1418 546 1418 c 256
 329 1418 200 1242 200 1021 c 256
 200 789 328 624 546 624 c 256
1527 90 m 256
 1391 90 1345 217 1345 366 c 256
 1345 514 1392 640 1527 640 c 256
 1663 640 1709 512 1709 366 c 256
 1709 214 1660 90 1527 90 c 256
1527 -32 m 256
 1745 -32 1874 146 1874 366 c 256
 1874 556 1775 762 1527 762 c 256
 1311 762 1181 586 1181 366 c 256
 1181 135 1308 -32 1527 -32 c 256
EndSplineSet
EndChar

StartChar: period
Encoding: 46 46 313
Width: 602
VWidth: 0
GlyphClass: 2
Flags: W
LayerCount: 2
Fore
SplineSet
301 -2 m 256
 377 -2 425 53 425 114 c 256
 425 176 375 230 301 230 c 256
 224 230 176 173 176 114 c 256
 176 52 226 -2 301 -2 c 256
EndSplineSet
EndChar

StartChar: periodcentered
Encoding: 183 183 314
Width: 601
VWidth: 0
GlyphClass: 2
Flags: W
LayerCount: 2
Fore
SplineSet
292 401 m 256
 369 401 417 457 417 519 c 256
 417 580 369 636 292 636 c 256
 214 636 166 580 166 519 c 256
 166 457 214 401 292 401 c 256
EndSplineSet
EndChar

StartChar: perthousand
Encoding: 8240 8240 315
Width: 2314
VWidth: 0
GlyphClass: 2
Flags: W
LayerCount: 2
Fore
SplineSet
370 -68 m 256
 394 -68 414 -49 429 -22 c 258
 1196 1337 l 258
 1205 1354 1213 1373 1213 1388 c 256
 1213 1423 1185 1450 1153 1450 c 256
 1131 1450 1110 1438 1094 1409 c 258
 321 34 l 258
 313 20 305 4 305 -9 c 256
 305 -41 336 -68 370 -68 c 256
370 753 m 256
 234 753 188 884 188 1028 c 256
 188 1168 233 1302 370 1302 c 256
 506 1302 551 1169 551 1028 c 256
 551 878 502 753 370 753 c 256
367 636 m 256
 587 636 700 816 700 1032 c 256
 700 1246 577 1418 373 1418 c 256
 153 1418 40 1238 40 1024 c 256
 40 806 163 636 367 636 c 256
1168 85 m 256
 1031 85 987 216 987 359 c 256
 987 500 1032 633 1168 633 c 256
 1304 633 1350 502 1350 359 c 256
 1350 211 1301 85 1168 85 c 256
1165 -32 m 256
 1384 -32 1499 148 1499 362 c 256
 1499 580 1374 750 1172 750 c 256
 952 750 837 570 837 355 c 256
 837 138 961 -32 1165 -32 c 256
1916 85 m 256
 1779 85 1734 216 1734 359 c 256
 1734 506 1783 633 1916 633 c 256
 2052 633 2098 501 2098 359 c 256
 2098 210 2049 85 1916 85 c 256
1913 -32 m 256
 2132 -32 2246 148 2246 362 c 256
 2246 578 2124 750 1920 750 c 256
 1700 750 1585 570 1585 355 c 256
 1585 137 1710 -32 1913 -32 c 256
EndSplineSet
EndChar

StartChar: pi
Encoding: 960 960 316
Width: 1247
VWidth: 0
GlyphClass: 2
Flags: W
PickledData: "(dp1
S'com.typemytype.robofont.layerData'
p2
(dp3
S'b'
(dp4
S'name'
p5
S'pi'
p6
sS'lib'
p7
(dp8
sS'unicodes'
p9
(tsS'width'
p10
I1285
sS'contours'
p11
(tsS'components'
p12
(tsS'anchors'
p13
(tsss."
LayerCount: 2
Fore
SplineSet
969 -18 m 256
 1042.31 -7.02306 1064.6 17.9397 1064.6 61.9494 c 256
 1064.6 130.2 1011 244.258 1011 423 c 258
 1011 914 l 257
 1093 914 l 258
 1146 914 1173 953 1173 994 c 256
 1173 1033 1146 1073 1093 1073 c 258
 210 1073 l 258
 146 1073 114 1033 114 994 c 256
 114 953 146 914 210 914 c 258
 287 914 l 257
 287 624 209 325 127 97 c 256
 121.84 83.5221 119.497 70.9756 119.497 59.4713 c 256
 119.497 8.15649 166.12 -22.4221 217.406 -22.4221 c 256
 263.818 -22.4221 314.048 2.62044 337 60 c 256
 411 246 464 648 474 914 c 257
 818 914 l 257
 818 382 l 258
 818 74.0173 844.569 -20.586 939.315 -20.586 c 256
 948.55 -20.586 958.432 -19.6874 969 -18 c 256
EndSplineSet
EndChar

StartChar: plus
Encoding: 43 43 317
Width: 1325
VWidth: 0
GlyphClass: 2
Flags: W
LayerCount: 2
Fore
SplineSet
662 3 m 256
 713 3 741 46 741 89 c 258
 741 422 l 257
 1089 422 l 258
 1136 422 1176 453 1176 499 c 256
 1176 550 1132 576 1089 576 c 258
 741 576 l 257
 741 912 l 258
 741 959 710 998 662 998 c 256
 610 998 583 955 583 912 c 258
 583 576 l 257
 237 576 l 258
 188 576 149 546 149 499 c 256
 149 450 192 422 237 422 c 258
 583 422 l 257
 583 89 l 258
 583 39 613 3 662 3 c 256
EndSplineSet
EndChar

StartChar: plusminus
Encoding: 177 177 318
Width: 1326
VWidth: 0
GlyphClass: 2
Flags: W
LayerCount: 2
Fore
SplineSet
661 227 m 256
 701 227 741 252 741 301 c 258
 741 534 l 257
 1098 534 l 258
 1148 534 1175 572 1175 610 c 256
 1175 649 1149 686 1098 686 c 258
 741 686 l 257
 741 921 l 258
 741 970 703 995 663 995 c 256
 624 995 584 970 584 921 c 258
 584 686 l 257
 228 686 l 258
 177 686 152 649 152 610 c 256
 152 572 177 534 228 534 c 258
 584 534 l 257
 584 301 l 258
 584 251 622 227 661 227 c 256
228 0 m 258
 1098 0 l 258
 1148 0 1175 38 1175 76 c 256
 1175 115 1150 152 1098 152 c 258
 228 152 l 258
 177 152 152 115 152 76 c 256
 152 38 177 0 228 0 c 258
EndSplineSet
EndChar

StartChar: product
Encoding: 8719 8719 319
Width: 1508
VWidth: 0
GlyphClass: 2
Flags: W
LayerCount: 2
Fore
SplineSet
385 0 m 256
 433 0 482 31 482 96 c 258
 482 1267 l 257
 1030 1267 l 257
 1030 95 l 258
 1030 31 1078 0 1127 0 c 256
 1176 0 1225 31 1225 95 c 258
 1226 1267 l 257
 1359 1267 l 258
 1410 1267 1434 1310 1434 1353 c 256
 1434 1396 1410 1439 1360 1439 c 258
 147 1439 l 258
 92 1439 65 1396 65 1353 c 256
 65 1310 92 1267 145 1267 c 258
 287 1267 l 257
 287 96 l 258
 287 32 335 0 385 0 c 256
EndSplineSet
EndChar

StartChar: q
Encoding: 113 113 320
Width: 1199
VWidth: 0
GlyphClass: 2
Flags: W
PickledData: "(dp1
S'b'
(dp2
sS'anchors'
p3
(tsS'lib'
p4
(dp5
sS'unicodes'
p6
(tsS'width'
p7
I1207
sS'contours'
p8
(tsS'components'
p9
(tsS'com.typemytype.robofont.layerData'
p10
(dp11
S'b'
(dp12
S'name'
p13
S'p'
sg4
(dp14
sg6
(tsg7
I1181
sg8
(tsg9
(tsg3
(tsssg13
S'p'
s."
LayerCount: 2
Fore
SplineSet
953 -381 m 256
 1003 -381 1053 -349 1053 -287 c 258
 1053 900 l 258
 1053 963 1002 996 952 996 c 256
 889 996 852 963 852 901 c 258
 852 830 l 257
 784 956 663 1013 514 1013 c 256
 229 1013 83 768 83 493 c 256
 83 201 248 -16 529 -16 c 256
 675 -16 788 44 852 160 c 257
 852 -287 l 258
 852 -349 902 -381 953 -381 c 256
562 121 m 256
 351 121 284 321 284 495 c 256
 284 659 344 875 555 876 c 256
 781 876 851 719 851 495 c 256
 851 308 772 121 562 121 c 256
EndSplineSet
EndChar

StartChar: question
Encoding: 63 63 321
Width: 1041
VWidth: 0
GlyphClass: 2
Flags: W
LayerCount: 2
Fore
SplineSet
325 455 m 257
 326.507 397.243 375.434 368.998 423.643 368.998 c 256
 471.423 368.998 518.498 396.743 518 451 c 258
 517 542 l 258
 516 700 911 780 911 1087 c 256
 911 1348 718 1451 489 1451 c 256
 394 1451 291 1437 195 1411 c 256
 144 1397 122 1359 122 1323 c 256
 122 1275 153 1234 201 1234 c 256
 245 1234 378 1266 438 1266 c 256
 560 1266 679 1232 679 1070 c 256
 679 839 328 768 325 564 c 257
 325 455 l 257
425 -24 m 256
 502 -24 550 31 550 93 c 256
 550 155 500 208 425 208 c 256
 347 208 301 152 301 93 c 256
 301 31 349 -24 425 -24 c 256
EndSplineSet
EndChar

StartChar: quotedbl
Encoding: 34 34 323
Width: 705
VWidth: 0
GlyphClass: 2
Flags: W
LayerCount: 2
Fore
SplineSet
201 976 m 256
 230 976 260 998 265 1049 c 258
 294 1404 l 257
 295 1454 249 1479 202 1479 c 256
 155 1479 107 1454 109 1401 c 256
 109 1400 121 1244 138 1049 c 256
 142 997 172 976 201 976 c 256
496 976 m 256
 525 976 555 997 560 1049 c 258
 588 1404 l 257
 590 1453 543 1479 497 1479 c 256
 451 1479 403 1453 404 1404 c 256
 404 1402 416 1244 433 1049 c 256
 438 998 466 976 496 976 c 256
EndSplineSet
EndChar

StartChar: quotedblbase
Encoding: 8222 8222 324
Width: 1154
VWidth: 0
GlyphClass: 2
Flags: W
PickledData: "(dp1
S'b'
(dp2
sS'anchors'
p3
(tsS'lib'
p4
(dp5
sS'unicodes'
p6
(tsS'width'
p7
I1161
sS'contours'
p8
(tsS'components'
p9
(tsS'com.typemytype.robofont.layerData'
p10
(dp11
S'b'
(dp12
S'name'
p13
S'quotedblbase'
p14
sg4
(dp15
sg6
(tsg7
I1146
sg8
(tsg9
(tsg3
(tsssg13
S'quotedblbase'
p16
s."
LayerCount: 2
Fore
SplineSet
256 -254 m 258
 321 -254 l 258
 322.104 -254.038 323.188 -254.057 324.252 -254.057 c 256
 351.138 -254.057 365.457 -241.782 377 -211 c 258
 537 196 l 258
 538.8 200.2 540.24 206.65 540.24 213.703 c 256
 540.24 230.16 532.4 249.9 503 252 c 257
 378 252 l 257
 346 251 313 243 305 196 c 258
 232 -211 l 258
 231.484 -214.098 230.967 -218.397 230.967 -223.086 c 256
 230.967 -236.559 235.23 -253.258 256 -254 c 258
668 -254 m 258
 732 -254 l 258
 733.104 -254.038 734.189 -254.057 735.256 -254.057 c 256
 762.211 -254.057 777.419 -241.782 788 -211 c 257
 949 196 l 258
 950.8 200.2 952.24 206.65 952.24 213.703 c 256
 952.24 230.16 944.4 249.9 915 252 c 257
 790 252 l 257
 758 251 725 243 717 196 c 258
 644 -211 l 258
 643.484 -214.098 642.967 -218.397 642.967 -223.086 c 256
 642.967 -236.559 647.23 -253.258 668 -254 c 258
EndSplineSet
EndChar

StartChar: quotedblleft
Encoding: 8220 8220 325
Width: 1154
VWidth: 0
GlyphClass: 2
Flags: W
PickledData: "(dp1
S'b'
(dp2
sS'anchors'
p3
(tsS'lib'
p4
(dp5
sS'unicodes'
p6
(tsS'width'
p7
I1161
sS'contours'
p8
(tsS'components'
p9
(tsS'com.typemytype.robofont.layerData'
p10
(dp11
S'b'
(dp12
S'name'
p13
S'quotedblleft'
p14
sg4
(dp15
sg6
(tsg7
I1146
sg8
(tsg9
(tsg3
(tsssg13
S'quotedblleft'
p16
s."
LayerCount: 2
Fore
SplineSet
228 927 m 258
 354 927 l 257
 386 928 419 936 427 983 c 258
 499 1390 l 258
 501 1402 503 1433 475 1433 c 258
 411 1433 l 258
 382 1433 367 1422 355 1390 c 258
 194 983 l 258
 192.512 978.833 191.201 972.185 191.201 964.903 c 256
 191.201 947.719 198.501 927 228 927 c 258
636 927 m 258
 761 927 l 257
 793 928 826 936 834 983 c 258
 907 1390 l 258
 907.516 1393.1 908.033 1397.46 908.033 1402.23 c 256
 908.033 1415.94 903.77 1433 883 1433 c 258
 819 1433 l 258
 790 1433 774 1422 763 1390 c 257
 602 983 l 258
 600.2 978.8 598.76 972.08 598.76 964.73 c 256
 598.76 947.58 606.6 927 636 927 c 258
EndSplineSet
EndChar

StartChar: quotedblright
Encoding: 8221 8221 326
Width: 1154
VWidth: 0
GlyphClass: 2
Flags: W
PickledData: "(dp1
S'b'
(dp2
sS'anchors'
p3
(tsS'lib'
p4
(dp5
sS'unicodes'
p6
(tsS'width'
p7
I1161
sS'contours'
p8
(tsS'components'
p9
(tsS'com.typemytype.robofont.layerData'
p10
(dp11
S'b'
(dp12
S'name'
p13
S'quotedblright'
p14
sg4
(dp15
sg6
(tsg7
I1146
sg8
(tsg9
(tsg3
(tsssg13
S'quotedblright'
p16
s."
LayerCount: 2
Fore
SplineSet
250 927 m 258
 314 927 l 258
 315.104 926.962 316.188 926.943 317.252 926.943 c 256
 344.138 926.943 358.457 939.218 370 970 c 258
 531 1377 l 258
 532.488 1381.17 533.799 1387.64 533.799 1394.72 c 256
 533.799 1411.44 526.499 1431.6 497 1433 c 257
 371 1433 l 257
 339 1432 306 1424 298 1377 c 258
 226 970 l 258
 225.484 966.902 224.967 962.537 224.967 957.766 c 256
 224.967 944.058 229.23 927 250 927 c 258
651 927 m 258
 715 927 l 258
 716.104 926.962 717.188 926.943 718.252 926.943 c 256
 745.138 926.943 759.457 939.218 771 970 c 258
 932 1377 l 258
 933.488 1381.17 934.799 1387.64 934.799 1394.72 c 256
 934.799 1411.44 927.499 1431.6 898 1433 c 257
 772 1433 l 257
 740 1432 707 1424 699 1377 c 258
 627 970 l 258
 626.484 966.902 625.967 962.537 625.967 957.766 c 256
 625.967 944.058 630.23 927 651 927 c 258
EndSplineSet
EndChar

StartChar: quoteleft
Encoding: 8216 8216 327
Width: 601
VWidth: 0
GlyphClass: 2
Flags: W
PickledData: "(dp1
S'b'
(dp2
sS'anchors'
p3
(tsS'lib'
p4
(dp5
sS'unicodes'
p6
(tsS'width'
p7
I615
sS'contours'
p8
(tsS'components'
p9
(tsS'com.typemytype.robofont.layerData'
p10
(dp11
S'b'
(dp12
S'name'
p13
S'quoteleft'
p14
sg4
(dp15
sg6
(tsg7
I584
sg8
(tsg9
(tsg3
(tsssg13
S'quoteleft'
p16
s."
LayerCount: 2
Fore
SplineSet
161 927 m 258
 287 927 l 257
 319 928 352 936 360 983 c 258
 432 1390 l 258
 432.516 1393.1 433.033 1397.46 433.033 1402.23 c 256
 433.033 1415.94 428.77 1433 408 1433 c 258
 344 1433 l 258
 315 1433 300 1422 288 1390 c 258
 127 983 l 258
 125.512 978.833 124.201 972.185 124.201 964.903 c 256
 124.201 947.719 131.501 927 161 927 c 258
EndSplineSet
EndChar

StartChar: quoteright
Encoding: 8217 8217 328
Width: 601
VWidth: 0
GlyphClass: 2
Flags: W
PickledData: "(dp1
S'b'
(dp2
sS'anchors'
p3
(tsS'lib'
p4
(dp5
sS'unicodes'
p6
(tsS'width'
p7
I615
sS'contours'
p8
(tsS'components'
p9
(tsS'com.typemytype.robofont.layerData'
p10
(dp11
S'b'
(dp12
S'name'
p13
S'quoteright'
p14
sg4
(dp15
sg6
(tsg7
I584
sg8
(tsg9
(tsg3
(tsssg13
S'quoteright'
p16
s."
LayerCount: 2
Fore
SplineSet
176 927 m 258
 241 927 l 258
 270 927 285 938 297 970 c 258
 457 1377 l 258
 458.8 1381.2 460.24 1387.92 460.24 1395.27 c 256
 460.24 1412.42 452.4 1433 423 1433 c 258
 298 1433 l 257
 266 1432 233 1424 225 1377 c 258
 152 970 l 258
 151.484 966.902 150.967 962.537 150.967 957.766 c 256
 150.967 944.058 155.23 927 176 927 c 258
EndSplineSet
EndChar

StartChar: quotesinglbase
Encoding: 8218 8218 329
Width: 601
VWidth: 0
GlyphClass: 2
Flags: W
PickledData: "(dp1
S'com.typemytype.robofont.layerData'
p2
(dp3
S'b'
(dp4
S'name'
p5
S'quotesinglbase'
p6
sS'lib'
p7
(dp8
sS'unicodes'
p9
(tsS'width'
p10
I615
sS'contours'
p11
(tsS'components'
p12
(tsS'anchors'
p13
(tsss."
LayerCount: 2
Fore
SplineSet
176 -286 m 258
 241 -286 l 258
 270 -286 285 -275 297 -243 c 258
 457 165 l 258
 458.8 169.2 460.24 175.92 460.24 183.27 c 256
 460.24 200.42 452.4 221 423 221 c 258
 298 221 l 257
 266 220 233 212 225 165 c 258
 152 -243 l 258
 151.484 -246.098 150.967 -250.397 150.967 -255.086 c 256
 150.967 -268.559 155.23 -285.258 176 -286 c 258
EndSplineSet
EndChar

StartChar: quotesingle
Encoding: 39 39 330
Width: 601
VWidth: 0
GlyphClass: 2
Flags: W
LayerCount: 2
Fore
SplineSet
299 976 m 256
 328 976 359 994 363 1042 c 258
 392 1404 l 257
 392 1454 347 1479 301 1479 c 256
 254 1479 207 1453 207 1404 c 256
 207 1402 220 1237 237 1042 c 256
 242 994 270 976 299 976 c 256
EndSplineSet
EndChar

StartChar: r
Encoding: 114 114 331
Width: 742
VWidth: 0
GlyphClass: 2
Flags: W
PickledData: "(dp1
S'b'
(dp2
sS'anchors'
p3
(tsS'lib'
p4
(dp5
sS'unicodes'
p6
(tsS'width'
p7
I763
sS'contours'
p8
(tsS'components'
p9
(tsS'com.typemytype.robofont.layerData'
p10
(dp11
S'b'
(dp12
S'name'
p13
S'r'
sg4
(dp14
sg6
(tsg7
I715
sg8
(tsg9
(tsg3
(tsssg13
S'r'
s."
AnchorPoint: "bot" 247 0 basechar 0
AnchorPoint: "top" 367 1001 basechar 0
LayerCount: 2
Fore
SplineSet
247 0 m 256
 298 0 350 32 350 95 c 258
 350 584 l 258
 350 760 465 835 634 835 c 256
 680.276 835 703.298 875.101 703.298 916.234 c 256
 703.298 959.544 677.776 1004 627 1004 c 256
 488 1004 380 905 348 785 c 257
 350 908 l 258
 350.497 966.136 300.627 995.879 250.32 995.879 c 256
 199.384 995.879 148 965.386 148 903 c 258
 148 95 l 258
 148 30 197 0 247 0 c 256
EndSplineSet
EndChar

StartChar: radical
Encoding: 8730 8730 333
Width: 1332
VWidth: 0
GlyphClass: 2
Flags: W
LayerCount: 2
Fore
SplineSet
243.226 558.632 m 256
 179.721 558.632 124.738 510.438 124.738 453.098 c 256
 124.738 434.355 129.456 419.998 139 405 c 258
 339 55 l 257
 400 -56 439 -102 528 -102 c 256
 621 -102 680 -58 720 53 c 258
 1228 1435 l 258
 1233 1448 1235 1460 1235 1471 c 256
 1235 1529 1181 1569 1125 1569 c 256
 1091 1569 1041 1547 1019 1490 c 257
 529 153 l 257
 525 152 l 257
 337 502 l 258
 314.997 541.775 280.102 558.632 243.226 558.632 c 256
EndSplineSet
EndChar

StartChar: registered
Encoding: 174 174 336
Width: 1679
VWidth: 0
GlyphClass: 2
Flags: W
LayerCount: 2
Fore
SplineSet
644 385 m 256
 675 385 707 405 707 443 c 258
 707 723 l 257
 845 723 l 257
 1041 412 l 258
 1052.55 393.631 1069.55 386.058 1086.74 386.058 c 256
 1118.45 386.058 1150.8 411.834 1150.8 443.131 c 256
 1150.8 452.125 1148.13 461.575 1142 471 c 258
 967 725 l 257
 1097 740 1193 786 1193 931 c 256
 1193 1071 1118 1140 910 1140 c 258
 661 1140 l 258
 607 1140 583 1101 583 1058 c 258
 583 443 l 258
 583 404 613 385 644 385 c 256
707 825 m 257
 707 1037 l 257
 894 1037 l 258
 987 1037 1063 1020 1063 937 c 256
 1063 833 985 825 894 825 c 256
 872.667 825 811.333 825.889 763.037 825.889 c 256
 738.889 825.889 718 825.667 707 825 c 257
844 200 m 256
 511 200 266 438 266 759 c 256
 266 1080 511 1317 844 1317 c 256
 1175 1317 1420 1080 1420 759 c 256
 1420 438 1175 200 844 200 c 256
844 81 m 256
 1235 81 1555 388 1555 759 c 256
 1555 1134 1235 1442 844 1442 c 256
 452 1442 131 1134 131 759 c 256
 131 388 452 81 844 81 c 256
EndSplineSet
EndChar

StartChar: ring
Encoding: 730 730 337
Width: 569
VWidth: 0
GlyphClass: 4
Flags: W
AnchorPoint: "top" 285 1040 mark 0
LayerCount: 2
Fore
SplineSet
285 1274 m 256
 221 1274 178 1315 178 1378 c 256
 178 1440 221 1481 285 1481 c 256
 349 1481 392 1440 392 1378 c 256
 392 1315 349 1274 285 1274 c 256
285 1184 m 256
 404 1184 484 1262 484 1378 c 256
 484 1493 404 1570 285 1570 c 256
 166 1570 85 1493 85 1378 c 256
 85 1262 166 1184 285 1184 c 256
EndSplineSet
EndChar

StartChar: s
Encoding: 115 115 338
Width: 1004
VWidth: 0
GlyphClass: 2
Flags: W
PickledData: "(dp1
S'b'
(dp2
sS'anchors'
p3
(tsS'lib'
p4
(dp5
sS'unicodes'
p6
(tsS'width'
p7
F1006.76
sS'contours'
p8
(tsS'components'
p9
(tsS'com.typemytype.robofont.layerData'
p10
(dp11
S'b'
(dp12
S'name'
p13
S's'
sg4
(dp14
sg6
(tsg7
I1007
sg8
(tsg9
(tsg3
(tsssg13
S's'
s."
AnchorPoint: "bot" 508 0 basechar 0
AnchorPoint: "top" 495 1002 basechar 0
LayerCount: 2
Fore
SplineSet
141 93 m 256
 216.701 38.7815 356.576 -18.0636 518.933 -18.0636 c 256
 744.047 -18.0636 916.257 80.7256 916.257 291.76 c 256
 916.257 436.567 833.682 526.818 627 579 c 257
 459 620 l 258
 328 652 295 672 295 750 c 256
 295 844.467 394.589 881.079 516.175 881.079 c 256
 632.946 881.079 727.896 838.408 775 821 c 256
 786.853 816.713 797.816 814.794 807.764 814.794 c 256
 847.032 814.794 870.489 844.68 870.489 876.705 c 256
 870.489 900.907 857.092 926.33 827 941 c 256
 765.844 972.633 646.134 1016.21 500.959 1016.21 c 256
 287.386 1016.21 107.984 934.139 107.984 741.122 c 256
 107.984 556.281 223.785 513.308 418 464 c 258
 588 421 l 258
 698.521 393.37 744.164 349.553 744.164 277.27 c 256
 744.164 164.966 638.235 116.985 509.898 116.985 c 256
 386.477 116.985 291.076 160.954 224 202 c 256
 207.07 211.86 191.075 216.079 176.716 216.079 c 256
 137.127 216.079 109.977 184.009 109.977 149.697 c 256
 109.977 129.561 119.327 108.653 141 93 c 256
EndSplineSet
EndChar

StartChar: section
Encoding: 167 167 344
Width: 1203
VWidth: 0
GlyphClass: 2
Flags: W
LayerCount: 2
Fore
SplineSet
558 -33 m 256
 783 -33 968 69 968 279 c 256
 968 412 877 485 758 532 c 257
 874 580 977 670 977 793 c 256
 977 1071 474 1040 474 1231 c 256
 474 1339 590 1366 682 1366 c 256
 742 1366 820 1342 862 1334 c 256
 864.929 1333.4 867.963 1333.11 871.061 1333.11 c 256
 903.915 1333.11 944 1365.88 944 1407 c 256
 944 1435 929 1463 891 1473 c 256
 811 1494 728 1511 642 1511 c 256
 421 1511 248 1430 248 1226 c 256
 248 1108 330 1053 437 982 c 257
 323 941 214 846 214 729 c 256
 214 414 745 485 745 286 c 256
 745 160 624 113 514 113 c 256
 421 113 353 125 294 146 c 256
 285.352 148.883 277.037 150.201 269.17 150.201 c 256
 227.919 150.201 199 113.953 199 77 c 256
 199 50 214 25 252 12 c 256
 349 -19 454 -33 558 -33 c 256
611 588 m 257
 530 623 407 664 407 754 c 256
 407 843 483 881 563 931 c 257
 655 888 788 860 788 765 c 256
 788 677 692 633 611 588 c 257
EndSplineSet
EndChar

StartChar: semicolon
Encoding: 59 59 345
Width: 602
VWidth: 0
GlyphClass: 2
Flags: W
LayerCount: 2
Fore
SplineSet
329 800 m 256
 407 800 454 855 454 918 c 256
 454 979 404 1032 329 1032 c 256
 252 1032 205 977 205 918 c 256
 205 853 254 800 329 800 c 256
EndSplineSet
Refer: 177 44 N 1 0 0 1 10 109 2
EndChar

StartChar: seven
Encoding: 55 55 346
Width: 1190
VWidth: 0
GlyphClass: 2
Flags: W
PickledData: "(dp1
S'com.typemytype.robofont.layerData'
p2
(dp3
S'b'
(dp4
S'name'
p5
S'seven'
p6
sS'lib'
p7
(dp8
sS'unicodes'
p9
(tsS'width'
p10
I1160
sS'contours'
p11
(tsS'components'
p12
(tsS'anchors'
p13
(tsss."
LayerCount: 2
Fore
SplineSet
452 0 m 256
 491 0 530 18 550 63 c 258
 1054 1226 l 258
 1068 1258 1075 1295 1075 1323 c 256
 1075 1384 1034 1427 951 1427 c 258
 184 1427 l 258
 125 1427 96 1381 96 1337 c 256
 96 1293 125 1248 184 1248 c 258
 827 1248 l 257
 349 153 l 258
 341 135 336 119 337 104 c 256
 337 42 394 0 452 0 c 256
EndSplineSet
EndChar

StartChar: six
Encoding: 54 54 347
Width: 1190
VWidth: 0
GlyphClass: 2
Flags: W
PickledData: "(dp1
S'com.typemytype.robofont.layerData'
p2
(dp3
S'b'
(dp4
S'name'
p5
S'nine'
p6
sS'lib'
p7
(dp8
sS'unicodes'
p9
(tsS'width'
p10
I1160
sS'contours'
p11
(tsS'components'
p12
(tsS'anchors'
p13
(tsss."
LayerCount: 2
Fore
SplineSet
622 -22 m 256
 927 -22 1117 178 1117 452 c 256
 1117 721 932 906 655 906 c 256
 654.032 906.006 653.064 906.009 652.098 906.009 c 256
 483.465 906.009 349.812 819.465 317 726 c 257
 317 1040 368 1281 676 1281 c 256
 750 1281 838 1261 929 1222 c 256
 937.772 1218.12 946.326 1216.36 954.523 1216.36 c 256
 999.984 1216.36 1034.48 1270.62 1034.48 1319.75 c 256
 1034.48 1348.61 1022.58 1375.71 994 1389 c 256
 901 1433 791 1462 682 1462 c 256
 178 1462 83 1036 83 634 c 256
 83 287 215 -22 622 -22 c 256
630.125 747.025 m 256
 816.663 747.025 898 616.406 898 447 c 256
 898 266 798 155 611 155 c 256
 432 155 331 280 331 443 c 256
 331 628.452 436.236 747.025 630.125 747.025 c 256
EndSplineSet
EndChar

StartChar: slash
Encoding: 47 47 348
Width: 755
VWidth: 0
GlyphClass: 2
Flags: W
LayerCount: 2
Fore
SplineSet
137 -158 m 256
 168 -158 197 -141 210 -103 c 258
 691 1336 l 258
 695 1347 696 1357 696 1367 c 256
 696 1413 657 1441 617 1441 c 256
 585 1441 553 1425 541 1385 c 257
 63 -54 l 258
 60 -65 58 -76 58 -84 c 256
 58 -130 97 -158 137 -158 c 256
EndSplineSet
EndChar

StartChar: slashbar
Encoding: 65541 -1 349
Width: 600
VWidth: 0
GlyphClass: 2
Flags: W
LayerCount: 2
Fore
SplineSet
78 615 m 258
 704 822 l 258
 740.929 834.183 756.552 862.454 756.552 891.087 c 256
 756.552 930.387 727.12 970.37 682.954 970.37 c 256
 674.776 970.37 666.094 968.999 657 966 c 258
 32 762 l 258
 -7.68843 749.032 -24.8325 718.307 -24.8325 687.846 c 256
 -24.8325 648.686 3.50129 609.961 48.6951 609.961 c 256
 57.8091 609.961 67.6088 611.536 78 615 c 258
EndSplineSet
EndChar

StartChar: sterling
Encoding: 163 163 351
Width: 1372
VWidth: 0
GlyphClass: 2
Flags: W
PickledData: "(dp1
S'com.typemytype.robofont.layerData'
p2
(dp3
S'b'
(dp4
S'name'
p5
S'sterling'
p6
sS'lib'
p7
(dp8
sS'unicodes'
p9
(tsS'width'
p10
I1361
sS'contours'
p11
(tsS'components'
p12
(tsS'anchors'
p13
(tsss."
LayerCount: 2
Fore
SplineSet
229 -1 m 258
 1088 -1 l 258
 1120 -1 1136 42 1136 85 c 256
 1136 128 1120 171 1088 171 c 258
 526 171 l 257
 526 735 l 257
 873 735 l 258
 904.779 735 918.938 769.775 918.938 805.838 c 256
 918.938 844.673 902.518 885 874 885 c 258
 526 885 l 257
 526 993 l 258
 526 1211 549 1289 746 1289 c 256
 831 1289 913 1273 990 1259 c 256
 991.776 1258.66 993.517 1258.5 995.221 1258.5 c 256
 1028.48 1258.5 1047.76 1320.28 1047.76 1363.2 c 256
 1047.76 1383.69 1043.37 1399.88 1034 1403 c 256
 952 1427 830 1450 724 1450 c 256
 475 1450 317 1338 317 1075 c 258
 317 885 l 257
 194 885 l 258
 165.067 885 151.947 850.121 151.947 814.001 c 256
 151.947 775.216 167.075 735 194 735 c 258
 317 735 l 257
 317 169 l 257
 227 169 l 258
 197.372 169 182.618 127.547 182.618 85.5804 c 256
 182.618 42.5602 198.122 -1 229 -1 c 258
EndSplineSet
EndChar

StartChar: summation
Encoding: 8721 8721 352
Width: 1191
VWidth: 0
GlyphClass: 2
Flags: W
LayerCount: 2
Fore
SplineSet
113 -199 m 258
 1148 -199 l 258
 1203 -199 1231 -155 1231 -112 c 256
 1231 -67 1203 -24 1148 -24 c 258
 304 -24 l 257
 828 642 l 257
 346 1276 l 257
 1113 1276 l 258
 1165 1276 1191 1317 1191 1357 c 256
 1191 1397 1165 1438 1113 1438 c 258
 143 1438 l 258
 78 1438 55 1403 55 1367 c 256
 55 1344 63 1323 76 1308 c 257
 602 616 l 257
 51 -79 l 258
 39 -93 32 -112 32 -132 c 256
 32 -166 52 -199 113 -199 c 258
EndSplineSet
EndChar

StartChar: t
Encoding: 116 116 353
Width: 754
VWidth: 0
GlyphClass: 2
Flags: W
PickledData: "(dp1
S'b'
(dp2
sS'anchors'
p3
(tsS'lib'
p4
(dp5
sS'unicodes'
p6
(tsS'width'
p7
I768
sS'contours'
p8
(tsS'components'
p9
(tsS'com.typemytype.robofont.layerData'
p10
(dp11
S'b'
(dp12
S'name'
p13
S't'
sg4
(dp14
sg6
(tsg7
I706
sg8
((dp15
S'points'
p16
((dp17
S'segmentType'
p18
S'curve'
p19
sS'x'
I317
sS'smooth'
p20
I1
sS'y'
I0
s(dp21
S'y'
I0
sS'x'
I358
sg20
I0
s(dp22
S'y'
I27
sS'x'
I398
sg20
I0
s(dp23
g18
S'curve'
p24
sS'x'
I398
sg20
I1
sS'y'
I79
s(dp25
g18
S'line'
p26
sS'x'
I398
sg20
I0
sS'y'
I876
s(dp27
g18
S'line'
p28
sS'x'
I578
sg20
I1
sS'y'
I876
s(dp29
S'y'
I876
sS'x'
I621
sg20
I0
s(dp30
S'y'
I897
sS'x'
I634
sg20
I0
s(dp31
g18
S'curve'
p32
sS'x'
I634
sg20
I1
sS'y'
I928
s(dp33
S'y'
I957
sS'x'
I634
sg20
I0
s(dp34
S'y'
I981
sS'x'
I621
sg20
I0
s(dp35
g18
S'curve'
p36
sS'x'
I578
sg20
I1
sS'y'
I981
s(dp37
g18
S'line'
p38
sS'x'
I398
sg20
I0
sS'y'
I981
s(dp39
g18
S'line'
p40
sS'x'
I398
sg20
I1
sS'y'
I1053
s(dp41
S'y'
I1285
sS'x'
I398
sg20
I0
s(dp42
S'y'
I1318
sS'x'
I432
sg20
I0
s(dp43
g18
S'curve'
p44
sS'x'
I544
sg20
I1
sS'y'
I1318
s(dp45
g18
S'line'
p46
sS'x'
I629
sg20
I1
sS'y'
I1318
s(dp47
S'y'
I1318
sS'x'
I706
sg20
I0
s(dp48
S'y'
I1438
sS'x'
I703
sg20
I0
s(dp49
g18
S'curve'
p50
sS'x'
I630
sg20
I1
sS'y'
I1438
s(dp51
g18
S'line'
p52
sS'x'
I510
sg20
I1
sS'y'
I1438
s(dp53
S'y'
I1438
sS'x'
I357
sg20
I0
s(dp54
S'y'
I1371
sS'x'
I238
sg20
I0
s(dp55
g18
S'curve'
p56
sS'x'
I238
sg20
I1
sS'y'
I1112
s(dp57
g18
S'line'
p58
sS'x'
I238
sg20
I0
sS'y'
I981
s(dp59
g18
S'line'
p60
sS'x'
I98
sg20
I1
sS'y'
I981
s(dp61
S'y'
I981
sS'x'
I55
sg20
I0
s(dp62
S'y'
I957
sS'x'
I39
sg20
I0
s(dp63
g18
S'curve'
p64
sS'x'
I39
sg20
I1
sS'y'
I928
s(dp65
S'y'
I899
sS'x'
I39
sg20
I0
s(dp66
S'y'
I876
sS'x'
I55
sg20
I0
s(dp67
g18
S'curve'
p68
sS'x'
I98
sg20
I1
sS'y'
I876
s(dp69
g18
S'line'
p70
sS'x'
I238
sg20
I0
sS'y'
I876
s(dp71
g18
S'line'
p72
sS'x'
I238
sg20
I1
sS'y'
I79
s(dp73
S'y'
I26
sS'x'
I238
sg20
I0
s(dp74
S'y'
I0
sS'x'
I278
sg20
I0
stp75
stp76
sg9
(tsg3
(tsssg13
S't'
s."
AnchorPoint: "bot" 460 7 basechar 0
AnchorPoint: "caron.alt" 370 1125 basechar 0
LayerCount: 2
Fore
SplineSet
484 -12 m 256
 500.043 -12 516.204 -12.179 532.089 -12.179 c 256
 622.348 -12.179 703.688 -6.40101 703.688 70.8166 c 256
 703.688 109.86 676.134 149.186 624.253 149.186 c 256
 622.207 149.186 620.122 149.125 618 149 c 258
 547 145 l 258
 543.654 144.816 540.384 144.724 537.191 144.724 c 256
 453.545 144.724 422 207.781 422 333 c 258
 422 856 l 257
 601 856 l 258
 651 856 673 884 673 920 c 256
 673 956 651 987 601 987 c 258
 422 987 l 257
 422 1273 l 258
 422 1328 387 1352 346 1352 c 256
 294 1352 253 1314 247 1264 c 257
 220 987 l 257
 103 987 l 258
 53 987 30 958 30 922 c 256
 30 886 54 856 104 856 c 258
 220 856 l 257
 220 291 l 258
 220 87 327 -12 484 -12 c 256
EndSplineSet
EndChar

StartChar: thorn
Encoding: 254 254 358
Width: 1186
VWidth: 0
GlyphClass: 2
Flags: W
LayerCount: 2
Fore
SplineSet
230 -342 m 256
 280 -342 329 -309 329 -244 c 258
 329 179 l 257
 415 40 543 -26 688 -26 c 256
 971 -26 1101 236 1101 503 c 256
 1101 787 965 1023 682 1023 c 256
 546 1023 404 958 334 830 c 257
 334 1338 l 258
 334 1401 284 1432 234 1432 c 256
 182 1432 132 1400 132 1338 c 258
 132 -244 l 258
 132 -310 180 -342 230 -342 c 256
633 117 m 256
 402 117 334 292 334 514 c 256
 334 710 411 878 619 878 c 256
 825 878 891 693 891 509 c 256
 891 335 842 117 633 117 c 256
EndSplineSet
EndChar

StartChar: three
Encoding: 51 51 359
Width: 1190
VWidth: 0
GlyphClass: 2
Flags: W
PickledData: "(dp1
S'com.typemytype.robofont.layerData'
p2
(dp3
S'b'
(dp4
S'name'
p5
S'three'
p6
sS'lib'
p7
(dp8
sS'unicodes'
p9
(tsS'width'
p10
I1160
sS'contours'
p11
(tsS'components'
p12
(tsS'anchors'
p13
(tsss."
LayerCount: 2
Fore
SplineSet
567 -22 m 256
 829 -22 1062 101 1062 383 c 256
 1062 571 968 707 796 753 c 257
 932 806 1030 906 1030 1073 c 256
 1030 1331 816 1462 557 1462 c 256
 405 1462 249 1413 186 1373 c 256
 162.594 1358.37 152.969 1335.61 152.969 1311.68 c 256
 152.969 1263.11 192.612 1209.73 237.142 1209.73 c 256
 245.663 1209.73 254.364 1211.68 263 1216 c 256
 330 1251 438 1281 548 1281 c 256
 678 1281 804 1213 804 1062 c 256
 804 902 674 826 503 826 c 258
 432 826 l 258
 381 826 358 784 358 744 c 256
 358 704 380 663 432 663 c 258
 511 663 l 258
 694 663 837 556 837 386 c 256
 837 233 718 159 552 159 c 256
 434 159 342 197 280 226 c 256
 271.661 229.458 263.25 231.043 254.984 231.043 c 256
 209.269 231.043 167.997 182.539 167.997 133.92 c 256
 167.997 104.885 182.717 75.8094 220 57 c 256
 304 12 425 -22 567 -22 c 256
EndSplineSet
EndChar

StartChar: threequarters
Encoding: 190 190 360
Width: 1670
VWidth: 0
GlyphClass: 2
Flags: W
PickledData: "(dp1
S'com.typemytype.robofont.layerData'
p2
(dp3
S'b'
(dp4
S'name'
p5
S'threequarters'
p6
sS'lib'
p7
(dp8
sS'unicodes'
p9
(tsS'width'
p10
I1603
sS'contours'
p11
(tsS'components'
p12
(tsS'anchors'
p13
(tsss."
LayerCount: 2
Fore
SplineSet
309 555 m 256
 463 555 590 632 590 785 c 256
 590 896 521 976 416 1000 c 257
 455 1063 573 1089 573 1190 c 256
 573 1343 447 1421 301 1421 c 256
 209 1421 65 1389 65 1331 c 256
 65 1306 84 1283 114 1283 c 256
 133 1283 222 1320 303 1320 c 256
 386 1320 459 1273 459 1189 c 256
 459 1093 378 1046 284 1044 c 258
 245 1043 l 258
 214 1042 199 1020 199 996 c 256
 199 972 214 950 245 950 c 258
 290 950 l 258
 391 950 473 888 473 788 c 256
 473 700 409 655 310 655 c 256
 235 655 163 686 130 694 c 256
 126.851 694.45 123.807 694.665 120.875 694.665 c 256
 91.2192 694.665 73 672.661 73 649 c 256
 73 590 229 555 309 555 c 256
1358 1 m 256
 1386 1 1415 20 1415 60 c 258
 1415 186 l 257
 1496 186 l 258
 1528 186 1542 206 1542 228 c 256
 1542 249 1527 269 1496 269 c 258
 1415 269 l 257
 1415 746 l 258
 1415 809 1380 839 1333 839 c 256
 1291 839 1257 823 1228 772 c 257
 912 283 l 258
 904 270 900 257 900 243 c 256
 900 211 924 186 965 186 c 258
 1301 186 l 257
 1301 60 l 258
 1301 20 1329 1 1358 1 c 256
581 -81 m 256
 607 -81 632 -67 643 -35 c 258
 1115 1355 l 258
 1118 1364 1120 1373 1120 1380 c 256
 1120 1420 1087 1443 1053 1443 c 256
 1026 1443 999 1428 988 1396 c 258
 519 7 l 258
 516 -3 514 -12 514 -19 c 256
 514 -57 548 -81 581 -81 c 256
1009 268 m 257
 1301 730 l 257
 1301 268 l 257
 1009 268 l 257
EndSplineSet
EndChar

StartChar: uni00B3
Encoding: 179 179 361
Width: 805
VWidth: 0
GlyphClass: 2
Flags: W
PickledData: "(dp1
S'com.typemytype.robofont.layerData'
p2
(dp3
S'b'
(dp4
S'name'
p5
S'threesuperior'
p6
sS'lib'
p7
(dp8
sS'unicodes'
p9
(tsS'width'
p10
I818
sS'contours'
p11
(tsS'components'
p12
(tsS'anchors'
p13
(tsss."
LayerCount: 2
Fore
SplineSet
400 549 m 256
 555 549 681 627 681 779 c 256
 681 889 617 970 513 994 c 257
 608 1024 665 1082 665 1183 c 256
 665 1338 544 1415 399 1415 c 256
 307 1415 157 1383 157 1326 c 256
 157 1301 176 1277 205 1277 c 256
 224 1277 307 1317 396 1317 c 256
 480 1317 551 1268 551 1182 c 256
 551 1087 469 1039 375 1038 c 257
 334 1037 l 258
 304 1037 290 1012 290 988 c 256
 290 965 305 940 336 940 c 258
 382 940 l 258
 482 940 564 882 564 782 c 256
 564 694 500 649 401 649 c 256
 318 649 253 681 221 690 c 256
 217.616 690.74 214.31 691.089 211.104 691.089 c 256
 183.992 691.089 164 666.145 164 642 c 256
 164 583 320 549 400 549 c 256
EndSplineSet
EndChar

StartChar: tilde
Encoding: 732 732 362
Width: 569
VWidth: 0
GlyphClass: 4
Flags: W
AnchorPoint: "top" 293 1040 mark 0
LayerCount: 2
Fore
SplineSet
20 1189 m 256
 42 1189 64 1198 81 1222 c 256
 102 1252 125 1269 155 1269 c 256
 225 1269 317 1189 407 1189 c 256
 493.326 1189 586.076 1254.71 586.076 1349.56 c 256
 586.076 1365.1 577.439 1375.15 567 1378 c 257
 565 1394 553 1405 536 1405 c 256
 485 1399 464 1324 416 1324 c 256
 349 1324 259 1401 157 1401 c 256
 57 1401 -1 1341 -25 1248 c 256
 -27 1243 -28 1238 -28 1233 c 256
 -28 1204 -6 1189 20 1189 c 256
EndSplineSet
EndChar

StartChar: trademark
Encoding: 8482 8482 363
Width: 1951
VWidth: 0
GlyphClass: 2
Flags: W
LayerCount: 2
Fore
SplineSet
897 651 m 256
 933 651 968 675 968 721 c 258
 968 1189 l 257
 1197 703 l 257
 1209 671 1234 656 1262 656 c 256
 1290 656 1317 673 1329 703 c 257
 1557 1189 l 257
 1557 721 l 258
 1557 674 1592 651 1628 651 c 256
 1664 651 1700 675 1700 721 c 258
 1700 1261 l 258
 1700 1347 1649 1385 1592 1385 c 256
 1549 1385 1503 1360 1476 1299 c 257
 1264 852 l 257
 1051 1299 l 257
 1023 1361 977 1386 935 1386 c 256
 877 1386 825 1347 825 1261 c 258
 825 721 l 258
 825 675 861 651 897 651 c 256
370 652 m 256
 406 652 444 675 444 722 c 258
 444 1278 l 257
 620 1278 l 258
 657 1278 674 1305 674 1331 c 256
 674 1359 656 1386 620 1386 c 258
 119 1386 l 258
 81 1386 64 1359 64 1332 c 256
 64 1305 82 1278 119 1278 c 258
 296 1278 l 257
 296 722 l 258
 296 675 333 652 370 652 c 256
EndSplineSet
EndChar

StartChar: two
Encoding: 50 50 364
Width: 1199
VWidth: 0
GlyphClass: 2
Flags: W
PickledData: "(dp1
S'com.typemytype.robofont.layerData'
p2
(dp3
S'b'
(dp4
S'name'
p5
S'two'
p6
sS'lib'
p7
(dp8
sS'unicodes'
p9
(tsS'width'
p10
I1160
sS'contours'
p11
(tsS'components'
p12
(tsS'anchors'
p13
(tsss."
LayerCount: 2
Fore
SplineSet
1055 1036 m 256
 1055 1257.69 871.183 1442.01 611.982 1442.01 c 256
 420.959 1442.01 304.04 1385.42 194 1319 c 256
 163.488 1300.87 151.32 1275.9 151.32 1250.98 c 256
 151.32 1203.76 194.999 1156.71 240.355 1156.71 c 256
 250.304 1156.71 260.333 1158.98 270 1164 c 256
 350 1207 412 1268 592 1268 c 256
 729 1268 845 1171 845 1020 c 256
 845 930 799 846 697 743 c 258
 178 220 l 258
 143.842 185.486 128.295 147.681 128.295 113.295 c 256
 128.295 51.0422 179.256 7.10543e-15 263 0 c 258
 958 0 l 258
 1013 0 1040 43 1040 85 c 256
 1040 128 1012 169 958 169 c 258
 371 169 l 257
 818 596 l 257
 988 751 1055 886 1055 1036 c 256
EndSplineSet
EndChar

StartChar: uni00B2
Encoding: 178 178 365
Width: 750
VWidth: 0
GlyphClass: 2
Flags: W
LayerCount: 2
Fore
SplineSet
162 582 m 258
 598 582 l 258
 631 582 648 607 648 632 c 256
 648 657 630 683 598 683 c 258
 237 683 l 257
 397 815 639 1036 639 1214 c 256
 639 1348 522 1419 380 1419 c 256
 284 1419 129 1365 129 1306 c 256
 129 1282 148 1261 175 1261 c 256
 186 1261 197 1264 207 1270 c 256
 248 1291 307 1316 366 1316 c 256
 440 1316 510 1278 510 1202 c 256
 510 1096 338 915 221 808 c 257
 148 733 85 693 85 643 c 256
 85 609 109 582 162 582 c 258
EndSplineSet
EndChar

StartChar: u
Encoding: 117 117 366
Width: 1170
VWidth: 0
GlyphClass: 2
Flags: W
PickledData: "(dp1
S'b'
(dp2
sS'anchors'
p3
(tsS'lib'
p4
(dp5
sS'unicodes'
p6
(tsS'width'
p7
I1195
sS'contours'
p8
(tsS'components'
p9
(tsS'com.typemytype.robofont.layerData'
p10
(dp11
S'b'
(dp12
S'name'
p13
S'u'
sg4
(dp14
sg6
(tsg7
I1152
sg8
((dp15
S'points'
p16
((dp17
S'segmentType'
p18
S'curve'
p19
sS'x'
I915
sS'smooth'
p20
I1
sS'y'
I991
s(dp21
S'y'
I991
sS'x'
I875
sg20
I0
s(dp22
S'y'
I965
sS'x'
I834
sg20
I0
s(dp23
g18
S'curve'
p24
sS'x'
I834
sg20
I1
sS'y'
I916
s(dp25
g18
S'line'
p26
sS'x'
I834
sg20
I0
sS'y'
I395
s(dp27
S'y'
I198
sS'x'
I821
sg20
I0
s(dp28
S'y'
I90
sS'x'
I698
sg20
I0
s(dp29
g18
S'curve'
p30
sS'x'
I542
sg20
I1
sS'y'
I90
s(dp31
S'y'
I90
sS'x'
I385
sg20
I0
s(dp32
S'y'
I187
sS'x'
I306
sg20
I0
s(dp33
g18
S'curve'
p34
sS'x'
I306
sg20
I1
sS'y'
I367
s(dp35
g18
S'line'
p36
sS'x'
I306
sg20
I1
sS'y'
I916
s(dp37
S'y'
I967
sS'x'
I306
sg20
I0
s(dp38
S'y'
I991
sS'x'
I266
sg20
I0
s(dp39
g18
S'curve'
p40
sS'x'
I226
sg20
I1
sS'y'
I991
s(dp41
S'y'
I991
sS'x'
I186
sg20
I0
s(dp42
S'y'
I967
sS'x'
I146
sg20
I0
s(dp43
g18
S'curve'
p44
sS'x'
I146
sg20
I1
sS'y'
I916
s(dp45
g18
S'line'
p46
sS'x'
I146
sg20
I1
sS'y'
I369
s(dp47
S'y'
I96
sS'x'
I146
sg20
I0
s(dp48
S'y'
S'-20'
p49
sS'x'
I294
sg20
I0
s(dp50
g18
S'curve'
p51
sS'x'
I507
sg20
I1
sS'y'
S'-20'
p52
s(dp53
S'y'
S'-20'
p54
sS'x'
I656
sg20
I0
s(dp55
S'y'
I49
sS'x'
I786
sg20
I0
s(dp56
g18
S'curve'
p57
sS'x'
I834
sg20
I0
sS'y'
I179
s(dp58
g18
S'line'
p59
sS'x'
I834
sg20
I1
sS'y'
I73
s(dp60
S'y'
I24
sS'x'
I834
sg20
I0
s(dp61
S'y'
I0
sS'x'
I874
sg20
I0
s(dp62
g18
S'curve'
p63
sS'x'
I913
sg20
I1
sS'y'
I0
s(dp64
S'y'
I0
sS'x'
I953
sg20
I0
s(dp65
S'y'
I24
sS'x'
I994
sg20
I0
s(dp66
g18
S'curve'
p67
sS'x'
I994
sg20
I1
sS'y'
I75
s(dp68
g18
S'line'
p69
sS'x'
I994
sg20
I1
sS'y'
I916
s(dp70
S'y'
I967
sS'x'
I994
sg20
I0
s(dp71
S'y'
I991
sS'x'
I955
sg20
I0
stp72
stp73
sg9
(tsg3
(tsssg13
S'u'
s."
AnchorPoint: "ogonek" 913 21 basechar 0
AnchorPoint: "top" 581 995 basechar 0
LayerCount: 2
Fore
SplineSet
497 -16 m 256
 647 -16 769 47 823 163 c 257
 823 91 l 258
 823 30 873 0 923 0 c 256
 974 0 1025 31 1025 95 c 258
 1025 900 l 258
 1025 965 975 997 925 997 c 256
 873 997 823 964 823 900 c 258
 823 426 l 257
 818 234 693 121 550 121 c 256
 421 121 337 203 337 368 c 258
 337 900 l 258
 337 965 287 997 237 997 c 256
 186 997 136 965 136 900 c 258
 136 370 l 258
 136 99 298 -16 497 -16 c 256
EndSplineSet
EndChar

StartChar: underscore
Encoding: 95 95 374
Width: 1024
VWidth: 0
GlyphClass: 2
Flags: W
LayerCount: 2
Fore
SplineSet
58 -255 m 258
 963 -255 l 258
 1003 -255 1023 -223 1023 -193 c 256
 1023 -161 1003 -131 963 -131 c 258
 58 -131 l 258
 19 -131 0 -161 0 -193 c 256
 0 -223 19 -255 58 -255 c 258
EndSplineSet
EndChar

StartChar: uni00AD
Encoding: 173 173 376
Width: 723
VWidth: 0
GlyphClass: 2
Flags: W
LayerCount: 2
Fore
SplineSet
124 456 m 258
 594 456 l 258
 650 456 684 484 684 529 c 256
 684 575 650 604 594 604 c 258
 130 604 l 258
 74 604 39 575 39 529 c 256
 39 484 72 456 124 456 c 258
EndSplineSet
EndChar

StartChar: uni02C9
Encoding: 713 713 440
Width: 569
VWidth: 0
GlyphClass: 4
Flags: W
AnchorPoint: "top" 288 1040 mark 0
LayerCount: 2
Fore
SplineSet
50 1300 m 258
 524 1300 l 258
 572 1300 594 1333 594 1371 c 256
 594 1407 572 1441 524 1441 c 258
 50 1441 l 258
 1 1441 -22 1407 -22 1371 c 256
 -22 1333 1 1300 50 1300 c 258
EndSplineSet
EndChar

StartChar: uni0307
Encoding: 775 775 441
Width: 600
VWidth: 0
GlyphClass: 2
Flags: W
LayerCount: 2
Fore
SplineSet
323 400 m 256
 401 400 449 457 449 519 c 256
 449 582 399 637 323 637 c 256
 244 637 195 581 195 519 c 256
 195 456 244 400 323 400 c 256
EndSplineSet
EndChar

StartChar: uni03A9
Encoding: 937 937 442
Width: 1558
VWidth: 0
GlyphClass: 2
Flags: W
LayerCount: 2
Fore
SplineSet
240 0 m 258
 726 0 l 257
 555 270 366 615 366 872 c 256
 366 1093 489 1248 822 1248 c 256
 1156 1248 1279 1093 1279 872 c 256
 1279 615 1090 271 918 0 c 257
 1404 0 l 258
 1447 0 1468 40 1468 80 c 256
 1468 120 1447 159 1404 159 c 258
 1142 159 l 257
 1350 404 1506 699 1506 934 c 256
 1506 1211 1371 1460 822 1460 c 256
 311 1460 138 1208 138 934 c 256
 138 699 289 418 503 159 c 257
 240 159 l 258
 198 159 177 120 177 80 c 256
 177 40 198 0 240 0 c 258
EndSplineSet
EndChar

StartChar: uni03BC
Encoding: 956 956 443
Width: 1174
VWidth: 0
GlyphClass: 2
Flags: W
LayerCount: 2
Fore
SplineSet
236 -278 m 256
 298 -278 339 -231 339 -159 c 258
 339 502 l 257
 136 502 l 257
 136 -159 l 258
 136 -240 177 -278 236 -278 c 256
EndSplineSet
Refer: 366 117 N 1 0 0 1 0 0 2
EndChar

StartChar: afii61289
Encoding: 8467 8467 462
Width: 756
VWidth: 0
GlyphClass: 2
Flags: W
LayerCount: 2
Fore
SplineSet
502 1494 m 256
 369 1494 220 1407 219 1177 c 258
 218 846 l 257
 41 707 l 258
 26 695 19 681 19 668 c 256
 19 647 36 629 58 629 c 256
 68 629 77 631 90 641 c 258
 218 741 l 257
 218 289 l 258
 218 60 335 -17 485 -17 c 256
 554 -17 614 -15 641 -10 c 256
 674 -4 692 24 692 55 c 256
 692 92.8043 667.57 123.092 625.085 123.092 c 256
 623.741 123.092 622.38 123.061 621 123 c 258
 556 120 l 258
 552.406 119.844 548.88 119.764 545.423 119.764 c 256
 460.399 119.764 417 168.134 417 319 c 258
 417 876 l 257
 642 1042 721 1128 721 1262 c 256
 721 1375 658 1494 502 1494 c 256
502 1348 m 256
 543 1348 584 1316 584 1249 c 256
 584 1149 527 1067 417 981 c 257
 417 1199 l 258
 417 1314 460 1348 502 1348 c 256
EndSplineSet
EndChar

StartChar: v
Encoding: 118 118 471
Width: 1051
VWidth: 0
GlyphClass: 2
Flags: W
PickledData: "(dp1
S'com.typemytype.robofont.layerData'
p2
(dp3
S'b'
(dp4
S'name'
p5
S'v'
sS'lib'
p6
(dp7
sS'unicodes'
p8
(tsS'width'
p9
I1027
sS'contours'
p10
((dp11
S'points'
p12
((dp13
S'segmentType'
p14
S'line'
p15
sS'x'
I518
sS'smooth'
p16
I0
sS'y'
I0
s(dp17
S'y'
I0
sS'x'
I589
sg16
I0
s(dp18
S'y'
I36
sS'x'
I618
sg16
I0
s(dp19
g14
S'curve'
p20
sS'x'
I654
sg16
I1
sS'y'
I121
s(dp21
g14
S'line'
p22
sS'x'
I979
sg16
I1
sS'y'
I890
s(dp23
S'y'
I940
sS'x'
I1000
sg16
I0
s(dp24
S'y'
I991
sS'x'
I968
sg16
I0
s(dp25
g14
S'curve'
p26
sS'x'
I907
sg16
I1
sS'y'
I991
s(dp27
S'y'
I991
sS'x'
I878
sg16
I0
s(dp28
S'y'
I975
sS'x'
I850
sg16
I0
s(dp29
g14
S'curve'
p30
sS'x'
I836
sg16
I1
sS'y'
I940
s(dp31
g14
S'line'
p32
sS'x'
I518
sg16
I0
sS'y'
I166
stp33
s(dp34
g12
((dp35
g14
S'curve'
p36
sS'x'
I518
sg16
I0
sS'y'
I0
s(dp37
g14
S'line'
p38
sS'x'
I518
sg16
I0
sS'y'
I166
s(dp39
g14
S'line'
p40
sS'x'
I200
sg16
I1
sS'y'
I940
s(dp41
S'y'
I975
sS'x'
I186
sg16
I0
s(dp42
S'y'
I991
sS'x'
I158
sg16
I0
s(dp43
g14
S'curve'
p44
sS'x'
I129
sg16
I1
sS'y'
I991
s(dp45
S'y'
I991
sS'x'
I68
sg16
I0
s(dp46
S'y'
I940
sS'x'
I36
sg16
I0
s(dp47
g14
S'curve'
p48
sS'x'
I57
sg16
I1
sS'y'
I890
s(dp49
g14
S'line'
p50
sS'x'
I382
sg16
I1
sS'y'
I121
s(dp51
S'y'
I36
sS'x'
I418
sg16
I0
s(dp52
S'y'
I0
sS'x'
I447
sg16
I0
stp53
stp54
sS'components'
p55
(tsS'anchors'
p56
(tsss."
LayerCount: 2
Fore
SplineSet
529 -2 m 256
 617 -2 658 44 700 147 c 258
 999 872 l 258
 1003.55 883.151 1005.61 894.091 1005.61 904.575 c 256
 1005.61 956.379 955.26 997.052 905.536 997.052 c 256
 872.371 997.052 839.483 978.957 822 934 c 258
 529 202 l 257
 236 934 l 258
 218.874 978.957 186.216 997.052 153.197 997.052 c 256
 103.698 997.052 53.3895 956.384 53.3895 904.585 c 256
 53.3895 894.098 55.4516 883.154 60 872 c 258
 358 147 l 258
 400 44 441 -2 529 -2 c 256
EndSplineSet
EndChar

StartChar: w
Encoding: 119 119 472
Width: 1701
VWidth: 0
GlyphClass: 2
Flags: W
PickledData: "(dp1
S'b'
(dp2
sS'anchors'
p3
(tsS'lib'
p4
(dp5
sS'unicodes'
p6
(tsS'width'
p7
I1742
sS'contours'
p8
(tsS'components'
p9
(tsS'com.typemytype.robofont.layerData'
p10
(dp11
S'b'
(dp12
S'name'
p13
S'w'
sg4
(dp14
sg6
(tsg7
I1699
sg8
((dp15
S'points'
p16
((dp17
S'segmentType'
p18
S'curve'
p19
sS'x'
I477
sS'smooth'
p20
I1
sS'y'
I0
s(dp21
S'y'
I0
sS'x'
I524
sg20
I0
s(dp22
S'y'
I30
sS'x'
I564
sg20
I0
s(dp23
g18
S'curve'
p24
sS'x'
I588
sg20
I0
sS'y'
I96
s(dp25
g18
S'line'
p26
sS'x'
I859
sg20
I0
sS'y'
I839
s(dp27
g18
S'line'
p28
sS'x'
I859
sg20
I0
sS'y'
I991
s(dp29
S'y'
I991
sS'x'
I808
sg20
I0
s(dp30
S'y'
I959
sS'x'
I771
sg20
I0
s(dp31
g18
S'curve'
p32
sS'x'
I750
sg20
I1
sS'y'
I899
s(dp33
g18
S'line'
p34
sS'x'
I488
sg20
I0
sS'y'
I173
s(dp35
g18
S'line'
p36
sS'x'
I223
sg20
I1
sS'y'
I936
s(dp37
S'y'
I974
sS'x'
I210
sg20
I0
s(dp38
S'y'
I991
sS'x'
I183
sg20
I0
s(dp39
g18
S'curve'
p40
sS'x'
I152
sg20
I1
sS'y'
I991
s(dp41
S'y'
I991
sS'x'
I112
sg20
I0
s(dp42
S'y'
I962
sS'x'
I79
sg20
I0
s(dp43
g18
S'curve'
p44
sS'x'
I79
sg20
I1
sS'y'
I916
s(dp45
S'y'
I909
sS'x'
I79
sg20
I0
s(dp46
S'y'
I899
sS'x'
I81
sg20
I0
s(dp47
g18
S'curve'
p48
sS'x'
I84
sg20
I0
sS'y'
I888
s(dp49
g18
S'line'
p50
sS'x'
I372
sg20
I1
sS'y'
I88
s(dp51
S'y'
I26
sS'x'
I394
sg20
I0
s(dp52
S'y'
I0
sS'x'
I433
sg20
I0
stp53
s(dp54
g16
((dp55
g18
S'curve'
p56
sS'x'
I1241
sg20
I1
sS'y'
I0
s(dp57
S'y'
I0
sS'x'
I1285
sg20
I0
s(dp58
S'y'
I26
sS'x'
I1324
sg20
I0
s(dp59
g18
S'curve'
p60
sS'x'
I1346
sg20
I1
sS'y'
I88
s(dp61
g18
S'line'
p62
sS'x'
I1634
sg20
I0
sS'y'
I888
s(dp63
S'y'
I899
sS'x'
I1637
sg20
I0
s(dp64
S'y'
I909
sS'x'
I1639
sg20
I0
s(dp65
g18
S'curve'
p66
sS'x'
I1639
sg20
I1
sS'y'
I916
s(dp67
S'y'
I962
sS'x'
I1639
sg20
I0
s(dp68
S'y'
I991
sS'x'
I1606
sg20
I0
s(dp69
g18
S'curve'
p70
sS'x'
I1566
sg20
I1
sS'y'
I991
s(dp71
S'y'
I991
sS'x'
I1535
sg20
I0
s(dp72
S'y'
I974
sS'x'
I1508
sg20
I0
s(dp73
g18
S'curve'
p74
sS'x'
I1495
sg20
I1
sS'y'
I936
s(dp75
g18
S'line'
p76
sS'x'
I1230
sg20
I0
sS'y'
I173
s(dp77
g18
S'line'
p78
sS'x'
I968
sg20
I1
sS'y'
I899
s(dp79
S'y'
I959
sS'x'
I947
sg20
I0
s(dp80
S'y'
I991
sS'x'
I910
sg20
I0
s(dp81
g18
S'curve'
p82
sS'x'
I859
sg20
I0
sS'y'
I991
s(dp83
g18
S'line'
p84
sS'x'
I859
sg20
I0
sS'y'
I839
s(dp85
g18
S'line'
p86
sS'x'
I1130
sg20
I0
sS'y'
I96
s(dp87
S'y'
I30
sS'x'
I1154
sg20
I0
s(dp88
S'y'
I0
sS'x'
I1194
sg20
I0
stp89
stp90
sg9
(tsg3
(tsssg13
S'w'
s."
AnchorPoint: "top" 859 1008 basechar 0
LayerCount: 2
Fore
SplineSet
1241 0 m 256
 1296 0 1345 31 1372 112 c 258
 1630 875 l 258
 1633.98 886.941 1635.79 898.179 1635.79 908.624 c 256
 1635.79 962.01 1588.46 994.689 1541.43 994.689 c 256
 1505.18 994.689 1469.11 975.285 1455 931 c 258
 1224 211 l 257
 989 889 l 258
 964 962 918 997 858 997 c 256
 798 997 751 962 726 889 c 258
 491 211 l 257
 261 931 l 258
 246.5 975.285 210.343 994.689 174.14 994.689 c 256
 127.2 994.689 80.181 962.07 80.181 908.77 c 256
 80.181 898.284 82.0011 886.997 86 875 c 258
 344 112 l 257
 370 31 420 0 475 0 c 256
 534 0 587 29 619 123 c 258
 858 805 l 257
 1096 123 l 258
 1129 29 1182 0 1241 0 c 256
EndSplineSet
EndChar

StartChar: x
Encoding: 120 120 477
Width: 1051
VWidth: 0
GlyphClass: 2
Flags: W
PickledData: "(dp1
S'com.typemytype.robofont.layerData'
p2
(dp3
S'b'
(dp4
S'name'
p5
S'x'
sS'lib'
p6
(dp7
sS'unicodes'
p8
(tsS'width'
p9
I1039
sS'contours'
p10
(tsS'components'
p11
(tsS'anchors'
p12
(tsss."
LayerCount: 2
Fore
SplineSet
868 0 m 256
 921 0 969 44 969 93 c 256
 969 112 962 130 949 146 c 258
 647.482 515.588 l 257
 928 862 l 258
 941 879 947 895 947 912 c 256
 947 957 905 997 858 997 c 256
 832 997 809 985 788 959 c 258
 537.841 649.981 l 257
 289 955 l 258
 266 984 238 997 211 997 c 256
 158 997 111 953 111 902 c 256
 111 883 116 866 130 848 c 258
 406.227 510.25 l 257
 100 135 l 258
 88 121 82 105 82 88 c 256
 82 42 127 0 176 0 c 256
 201 0 224 12 244 37 c 258
 515.51 376.627 l 257
 790 41 l 257
 812 12 840 0 868 0 c 256
EndSplineSet
EndChar

StartChar: y
Encoding: 121 121 478
Width: 1055
VWidth: 0
GlyphClass: 2
Flags: W
PickledData: "(dp1
S'com.typemytype.robofont.layerData'
p2
(dp3
S'b'
(dp4
S'name'
p5
S'y'
sS'lib'
p6
(dp7
sS'unicodes'
p8
(tsS'width'
p9
I1029
sS'contours'
p10
((dp11
S'points'
p12
((dp13
S'segmentType'
p14
S'line'
p15
sS'x'
I502
sS'smooth'
p16
I0
sS'y'
I10
s(dp17
g14
S'line'
p18
sS'x'
I585
sg16
I0
sS'y'
I181
s(dp19
g14
S'line'
p20
sS'x'
I241
sg16
I1
sS'y'
I931
s(dp21
S'y'
I966
sS'x'
I225
sg16
I0
s(dp22
S'y'
I984
sS'x'
I201
sg16
I0
s(dp23
g14
S'curve'
p24
sS'x'
I171
sg16
I1
sS'y'
I984
s(dp25
S'y'
I984
sS'x'
I117
sg16
I0
s(dp26
S'y'
I936
sS'x'
I64
sg16
I0
s(dp27
g14
S'curve'
p28
sS'x'
I91
sg16
I0
sS'y'
I887
stp29
s(dp30
g12
((dp31
g14
S'curve'
p32
sS'x'
I365
sg16
I1
sS'y'
S'-388'
p33
s(dp34
S'y'
S'-388'
p35
sS'x'
I396
sg16
I0
s(dp36
S'y'
S'-373'
p37
sS'x'
I424
sg16
I0
s(dp38
g14
S'curve'
p39
sS'x'
I442
sg16
I1
sS'y'
S'-334'
p40
s(dp41
g14
S'line'
p42
sS'x'
I1009
sg16
I1
sS'y'
I888
s(dp43
S'y'
I898
sS'x'
I1013
sg16
I0
s(dp44
S'y'
I908
sS'x'
I1016
sg16
I0
s(dp45
g14
S'curve'
p46
sS'x'
I1016
sg16
I1
sS'y'
I918
s(dp47
S'y'
I962
sS'x'
I1018
sg16
I0
s(dp48
S'y'
I990
sS'x'
I978
sg16
I0
s(dp49
g14
S'curve'
p50
sS'x'
I938
sg16
I1
sS'y'
I990
s(dp51
S'y'
I990
sS'x'
I910
sg16
I0
s(dp52
S'y'
I977
sS'x'
I883
sg16
I0
s(dp53
g14
S'curve'
p54
sS'x'
I866
sg16
I0
sS'y'
I941
s(dp55
g14
S'line'
p56
sS'x'
I299
sg16
I1
sS'y'
S'-286'
p57
s(dp58
S'y'
S'-344'
p59
sS'x'
I272
sg16
I0
s(dp60
S'y'
S'-388'
p61
sS'x'
I316
sg16
I0
stp62
stp63
sS'components'
p64
(tsS'anchors'
p65
(tsss."
AnchorPoint: "top" 570 1017 basechar 0
LayerCount: 2
Fore
SplineSet
434 -349 m 258
 1022 867 l 258
 1028.63 881.047 1031.6 894.738 1031.6 907.656 c 256
 1031.6 959.444 983.987 998.805 934.413 998.805 c 256
 901.276 998.805 867.26 981.218 846 938 c 258
 550.993 326.805 l 257
 260 930 l 258
 239.688 972.345 205.865 989.682 172.525 989.682 c 256
 122.209 989.682 72.9959 950.194 72.9959 897.586 c 256
 72.9959 883.8 76.3754 869.113 84 854 c 258
 450.438 118.476 l 257
 261 -274 l 258
 253.941 -288.385 250.802 -302.362 250.802 -315.506 c 256
 250.802 -367.223 299.395 -406.037 348.932 -406.037 c 256
 381.326 -406.037 414.123 -389.44 434 -349 c 258
EndSplineSet
EndChar

StartChar: yen
Encoding: 165 165 482
Width: 1222
VWidth: 0
GlyphClass: 2
Flags: W
LayerCount: 2
Fore
SplineSet
205 296 m 258
 1080 296 l 258
 1121 296 1142 329 1142 361 c 256
 1142 392 1121 426 1080 426 c 258
 205 426 l 258
 163 426 143 393 143 363 c 256
 143 331 163 296 205 296 c 258
205 541 m 258
 1080 541 l 258
 1121 541 1142 573 1142 605 c 256
 1142 636 1121 670 1080 670 c 258
 205 670 l 258
 163 670 143 637 143 607 c 256
 143 575 163 541 205 541 c 258
EndSplineSet
Refer: 124 89 N 1 0 0 1 0 0 2
EndChar

StartChar: z
Encoding: 122 122 484
Width: 951
VWidth: 0
GlyphClass: 2
Flags: W
AnchorPoint: "top" 495 1001 basechar 0
LayerCount: 2
Fore
SplineSet
177 0 m 258
 787 0 l 258
 840 0 866 39 866 77 c 256
 866 116 840 154 787 154 c 258
 320 154 l 257
 845 841 l 258
 863 866 872 892 872 914 c 256
 872 960 837 997 768 997 c 258
 173 997 l 258
 121 997 95 958 95 919 c 256
 95 880 120 842 173 842 c 258
 629 842 l 257
 104 156 l 258
 87 134 79 109 79 87 c 256
 79 39 116 0 177 0 c 258
EndSplineSet
EndChar

StartChar: zero
Encoding: 48 48 488
Width: 1203
VWidth: 0
GlyphClass: 2
Flags: W
LayerCount: 2
Fore
SplineSet
601 159 m 256
 349 159 318 471 318 722 c 256
 318 981 351 1281 601 1281 c 256
 853 1281 886 980 886 722 c 256
 886 472 854 159 601 159 c 256
601 -22 m 256
 1003 -22 1115 342 1115 722 c 256
 1115 1111 1000 1462 601 1462 c 256
 202 1462 87 1112 87 722 c 256
 87 341 200 -22 601 -22 c 256
EndSplineSet
EndChar

StartChar: uni0358
Encoding: 856 856 491
Width: 600
VWidth: 0
GlyphClass: 2
Flags: W
LayerCount: 2
Fore
SplineSet
323 400 m 256
 401 400 449 457 449 519 c 256
 449 582 399 637 323 637 c 256
 244 637 195 581 195 519 c 256
 195 456 244 400 323 400 c 256
EndSplineSet
EndChar

